<?xml version="1.0" encoding="utf-8"?>
<!-- Generator: Adobe Illustrator 16.0.0, SVG Export Plug-In . SVG Version: 6.00 Build 0)  -->
<!DOCTYPE svg PUBLIC "-//W3C//DTD SVG 1.1//EN" "http://www.w3.org/Graphics/SVG/1.1/DTD/svg11.dtd">
<svg version="1.1"
	 id="svg3392" xmlns:dc="http://purl.org/dc/elements/1.1/" xmlns:cc="http://creativecommons.org/ns#" xmlns:rdf="http://www.w3.org/1999/02/22-rdf-syntax-ns#" xmlns:svg="http://www.w3.org/2000/svg" xmlns:sodipodi="http://sodipodi.sourceforge.net/DTD/sodipodi-0.dtd" xmlns:inkscape="http://www.inkscape.org/namespaces/inkscape" inkscape:version="0.91 r13725" sodipodi:docname="disp usb.svg"
	 xmlns="http://www.w3.org/2000/svg" xmlns:xlink="http://www.w3.org/1999/xlink" x="0px" y="0px" width="512px" height="512px"
	 viewBox="0 0 512 512" enable-background="new 0 0 512 512" xml:space="preserve">
<sodipodi:namedview  pagecolor="#ffffff" bordercolor="#666666" borderopacity="1.0" inkscape:zoom="0.93244291" inkscape:cx="240.17714" inkscape:cy="238.35187" showgrid="true" id="base" inkscape:grid-bbox="true" inkscape:document-units="px" inkscape:pageopacity="0.0" inkscape:current-layer="layer1" inkscape:pageshadow="2" inkscape:window-width="641" inkscape:window-height="691" inkscape:window-x="0" inkscape:window-y="21" inkscape:window-maximized="0">
	</sodipodi:namedview>
<path fill="#CCCCCC" d="M363.637,395.745h-57.168v-12.704h57.168c14.033,0,25.409-11.376,25.409-25.408V230.591h12.703v127.042
	C401.729,378.673,384.678,395.725,363.637,395.745z"/>
<rect x="103.202" y="97.198" fill="#666666" width="215.97" height="317.604"/>
<rect x="217.539" y="97.198" fill="#B3B3B3" width="101.633" height="50.816"/>
<rect x="242.948" y="97.198" fill="#808080" width="50.817" height="25.408"/>
<rect x="103.202" y="97.198" fill="#29ABE2" width="114.337" height="50.816"/>
<circle fill="#FBB03B" cx="211.188" cy="287.76" r="69.873"/>
<path fill="#29ABE2" d="M204.835,313.168l-59.487,32.447c-6.403,3.493-10.387,10.204-10.386,17.5l0,0
	c0.003,11.003,8.923,19.923,19.927,19.926l0,0c7.294,0.001,14.006-3.982,17.5-10.386L204.835,313.168z"/>
<g>
	<path fill="#F7931E" d="M173.075,287.761h-12.705c0.032-28.053,22.764-50.786,50.817-50.817v12.704
		C190.147,249.668,173.096,266.72,173.075,287.761z"/>
	<path fill="#F7931E" d="M225.702,336.468l-3.621-12.177c16.11-4.88,27.152-19.698,27.219-36.53h12.703
		C261.912,310.206,247.186,329.965,225.702,336.468z"/>
</g>
<rect x="122.258" y="116.254" fill="#0071BC" width="12.704" height="12.704"/>
<g>
	<rect x="287.413" y="167.071" fill="#999999" width="12.703" height="12.704"/>
	<rect x="287.413" y="383.041" fill="#999999" width="12.703" height="12.704"/>
	<rect x="122.258" y="167.071" fill="#999999" width="12.704" height="12.704"/>
</g>
<rect x="147.667" y="116.254" fill="#0071BC" width="12.704" height="12.704"/>
<rect x="204.835" y="281.408" fill="#F15A24" width="12.704" height="12.703"/>
<rect x="369.989" y="97.198" fill="#B3B3B3" width="50.816" height="57.168"/>
<polygon fill="#29ABE2" points="433.511,148.014 357.285,148.014 363.637,243.296 427.157,243.296 "/>
<rect x="389.046" y="116.254" fill="#808080" width="12.703" height="12.704"/>
<polygon fill="#0071BC" points="427.157,243.296 428.854,217.887 361.941,217.887 363.637,243.296 "/>
</svg>
