<?xml version="1.0" encoding="utf-8"?>
<!-- Generator: Adobe Illustrator 16.0.0, SVG Export Plug-In . SVG Version: 6.00 Build 0)  -->
<!DOCTYPE svg PUBLIC "-//W3C//DTD SVG 1.1//EN" "http://www.w3.org/Graphics/SVG/1.1/DTD/svg11.dtd">
<svg version="1.1"
	 id="svg3392" xmlns:dc="http://purl.org/dc/elements/1.1/" xmlns:cc="http://creativecommons.org/ns#" xmlns:rdf="http://www.w3.org/1999/02/22-rdf-syntax-ns#" xmlns:svg="http://www.w3.org/2000/svg" xmlns:sodipodi="http://sodipodi.sourceforge.net/DTD/sodipodi-0.dtd" xmlns:inkscape="http://www.inkscape.org/namespaces/inkscape" inkscape:version="0.91 r13725" sodipodi:docname="disp disc.svg"
	 xmlns="http://www.w3.org/2000/svg" xmlns:xlink="http://www.w3.org/1999/xlink" x="0px" y="0px" width="512px" height="512px"
	 viewBox="0 0 512 512" enable-background="new 0 0 512 512" xml:space="preserve">
<sodipodi:namedview  pagecolor="#ffffff" bordercolor="#666666" borderopacity="1.0" inkscape:zoom="0.93303299" inkscape:cx="236.65704" inkscape:cy="247.97615" showgrid="true" id="base" inkscape:grid-bbox="true" inkscape:document-units="px" inkscape:pageopacity="0.0" inkscape:current-layer="layer1" inkscape:pageshadow="2" inkscape:window-width="641" inkscape:window-height="691" inkscape:window-x="0" inkscape:window-y="21" inkscape:window-maximized="0">
	</sodipodi:namedview>
<g id="layer1" transform="translate(0,464)" inkscape:label="Layer 1" inkscape:groupmode="layer">
	<path fill="#596666" d="M407.473-94.639c0,10.699-8.662,19.87-19.869,19.87H126.745c-10.699,0-19.87-8.661-19.87-19.87v-242.517
		c0-10.699,8.661-19.87,19.87-19.87h260.859c10.698,0,19.869,8.661,19.869,19.87V-94.639L407.473-94.639z"/>
	<path fill="#494F4F" d="M276.024-327.475c-61.647,0-111.578,49.93-111.578,111.578c0,38.721,19.871,100.369,49.42,141.128h123.806
		c30.061-40.76,49.42-102.407,49.42-141.128C387.604-277.545,337.673-327.475,276.024-327.475z"/>
	<path fill="#6A7677" d="M126.745-74.769c-10.699,0-19.87-8.661-19.87-19.87v-242.517c0-10.699,8.661-19.87,19.87-19.87h260.859
		c10.698,0,19.869,8.661,19.869,19.87"/>
	<circle fill="#BFD5D8" cx="276.024" cy="-215.897" r="111.578"/>
	<path fill="#B0CCD1" d="M197.054-294.868c43.307-43.306,114.125-43.306,157.432,0c43.307,43.307,43.307,114.126,0,157.432"/>
	<path fill="#CFE6E8" d="M376.904-168.515l-66.234-39.231l-25.983,25.984l39.23,66.233
		C346.844-126.227,365.695-145.078,376.904-168.515z"/>
	<path fill="#BAD6D8" d="M310.67-207.746l-13.247,13.247l57.063,57.063c2.038-2.038,4.076-4.587,6.113-6.623c0,0,0,0,0.51-0.51
		c2.037-2.548,4.076-4.586,5.604-7.133l0,0c3.567-5.096,6.624-10.699,9.682-16.304L310.67-207.746z"/>
	<path fill="#CFE6E8" d="M175.146-263.279l66.233,39.23l25.984-25.984l-39.23-66.233
		C205.206-305.566,186.355-286.716,175.146-263.279z"/>
	<path fill="#BAD6D8" d="M254.626-237.296l13.247-13.246l-39.23-66.233c-5.604,2.547-11.208,6.114-16.304,9.68l0,0
		c-2.547,2.038-5.095,3.566-7.133,5.604c0,0,0,0-0.509,0.509c-2.547,2.038-4.585,4.076-6.624,6.114L254.626-237.296z"/>
	<path fill="#9BB6BC" d="M276.024-96.677c-65.724,0-119.22-53.496-119.22-119.22s53.496-119.22,119.22-119.22
		c65.725,0,118.711,53.496,118.711,119.22S341.749-96.677,276.024-96.677z M276.024-319.833
		c-57.063,0-103.936,46.364-103.936,103.936s46.364,103.935,103.936,103.935c57.063,0,103.936-46.363,103.936-103.935
		S333.088-319.833,276.024-319.833z"/>
	<circle fill="#424849" cx="276.024" cy="-215.897" r="43.816"/>
	<path fill="#9BB6BC" d="M276.024-168.515c-25.983,0-47.382-21.397-47.382-47.382c0-25.984,21.398-47.382,47.382-47.382
		c25.984,0,47.383,21.398,47.383,47.382C323.407-189.912,302.009-168.515,276.024-168.515z M276.024-255.637
		c-21.908,0-39.739,17.832-39.739,39.74c0,21.909,17.832,39.74,39.739,39.74c21.908,0,39.74-17.831,39.74-39.74
		C315.765-237.805,297.933-255.637,276.024-255.637z"/>
	<circle fill="#C5DADD" cx="276.024" cy="-215.897" r="14.776"/>
	<path fill="#B0CCD1" d="M265.326-226.596c5.604-5.604,15.284-5.604,20.889,0c5.604,5.604,5.604,15.284,0,20.889"/>
	<path fill="#3E4948" d="M147.634-357.025h-20.889c-10.699,0-19.87,8.661-19.87,19.87v242.007c0,10.699,8.661,19.87,19.87,19.87
		h20.889V-357.025z"/>
	<polyline fill="#121C1B" points="126.745,-74.769 147.634,-74.769 147.634,-357.025 126.745,-357.025 	"/>
</g>
</svg>
