<?xml version="1.0" encoding="utf-8"?>
<!-- Generator: Adobe Illustrator 16.0.0, SVG Export Plug-In . SVG Version: 6.00 Build 0)  -->
<!DOCTYPE svg PUBLIC "-//W3C//DTD SVG 1.1//EN" "http://www.w3.org/Graphics/SVG/1.1/DTD/svg11.dtd">
<svg version="1.1"
	 id="svg3392" xmlns:dc="http://purl.org/dc/elements/1.1/" xmlns:cc="http://creativecommons.org/ns#" xmlns:rdf="http://www.w3.org/1999/02/22-rdf-syntax-ns#" xmlns:svg="http://www.w3.org/2000/svg" xmlns:sodipodi="http://sodipodi.sourceforge.net/DTD/sodipodi-0.dtd" xmlns:inkscape="http://www.inkscape.org/namespaces/inkscape" inkscape:version="0.91 r13725" sodipodi:docname="disp usb.svg"
	 xmlns="http://www.w3.org/2000/svg" xmlns:xlink="http://www.w3.org/1999/xlink" x="0px" y="0px" width="512px" height="512px"
	 viewBox="0 0 512 512" enable-background="new 0 0 512 512" xml:space="preserve">
<sodipodi:namedview  pagecolor="#ffffff" bordercolor="#666666" borderopacity="1.0" inkscape:zoom="0.93244291" inkscape:cx="240.17714" inkscape:cy="238.35187" showgrid="true" id="base" inkscape:grid-bbox="true" inkscape:document-units="px" inkscape:pageopacity="0.0" inkscape:current-layer="layer1" inkscape:pageshadow="2" inkscape:window-width="641" inkscape:window-height="691" inkscape:window-x="0" inkscape:window-y="21" inkscape:window-maximized="0">
	</sodipodi:namedview>
<rect x="191.039" y="18.884" fill="#DDE4E8" width="133.616" height="185.578"/>
<rect x="191.039" y="33.73" fill="#B6C3CC" width="133.616" height="193"/>
<polyline fill="#A1B5BF" points="191.039,33.73 324.654,33.73 324.654,226.731 "/>
<path fill="#FFA515" d="M354.347,463.527c0,11.877-9.649,15.589-21.526,15.589H182.874c-11.877,0-21.527-3.712-21.527-15.589V181.45
	c0-11.877,9.65-21.527,21.527-21.527H332.82c11.877,0,21.526,9.65,21.526,21.527V463.527z"/>
<path fill="#EF7D16" d="M354.347,182.192v281.335c0,11.877-9.649,15.589-21.526,15.589H182.874
	c-11.877,0-21.527-3.712-21.527-15.589V182.192"/>
<path fill="#D86A0F" d="M354.347,182.192v281.335c0,11.877-9.649,15.589-21.526,15.589H182.874
	c-11.877,0-21.527-2.228-21.527-14.847"/>
<rect x="220.731" y="70.846" fill="#869BA3" width="22.269" height="59.385"/>
<rect x="220.731" y="78.269" fill="#69848C" width="22.269" height="51.961"/>
<rect x="272.693" y="70.846" fill="#869BA3" width="22.269" height="59.385"/>
<rect x="272.693" y="78.269" fill="#69848C" width="22.269" height="51.961"/>
<g>
	<circle fill="#F4E7BD" cx="205.143" cy="240.092" r="11.135"/>
	<circle fill="#F4E7BD" cx="257.847" cy="240.092" r="11.135"/>
	<circle fill="#F4E7BD" cx="310.551" cy="240.092" r="11.135"/>
	<path fill="#F4E7BD" d="M213.309,335.85c0,1.484-0.743,2.228-2.228,2.228h-10.392c-1.485,0-2.227-0.743-2.227-2.228V258.65
		c0-1.485,0.742-2.227,2.227-2.227h10.392c1.485,0,2.228,0.742,2.228,2.227V335.85z"/>
	<path fill="#F4E7BD" d="M265.27,335.85c0,1.484-0.742,2.228-2.227,2.228H252.65c-1.484,0-2.227-0.743-2.227-2.228V258.65
		c0-1.485,0.742-2.227,2.227-2.227h10.393c1.484,0,2.227,0.742,2.227,2.227V335.85z"/>
	<path fill="#F4E7BD" d="M317.231,335.85c0,1.484-0.742,2.228-2.227,2.228h-10.393c-1.484,0-2.228-0.743-2.228-2.228V258.65
		c0-1.485,0.743-2.227,2.228-2.227h10.393c1.484,0,2.227,0.742,2.227,2.227V335.85z"/>
</g>
</svg>
