<?xml version="1.0" encoding="utf-8"?>
<!-- Generator: Adobe Illustrator 16.0.0, SVG Export Plug-In . SVG Version: 6.00 Build 0)  -->
<!DOCTYPE svg PUBLIC "-//W3C//DTD SVG 1.1//EN" "http://www.w3.org/Graphics/SVG/1.1/DTD/svg11.dtd">
<svg version="1.1"
	 id="svg2" xmlns:dc="http://purl.org/dc/elements/1.1/" xmlns:cc="http://creativecommons.org/ns#" xmlns:rdf="http://www.w3.org/1999/02/22-rdf-syntax-ns#" xmlns:svg="http://www.w3.org/2000/svg" xmlns:sodipodi="http://sodipodi.sourceforge.net/DTD/sodipodi-0.dtd" xmlns:inkscape="http://www.inkscape.org/namespaces/inkscape" inkscape:version="0.91 r" sodipodi:docname="blogger.svg"
	 xmlns="http://www.w3.org/2000/svg" xmlns:xlink="http://www.w3.org/1999/xlink" x="0px" y="0px" width="256px" height="256px"
	 viewBox="0 0 256 256" enable-background="new 0 0 256 256" xml:space="preserve">
<sodipodi:namedview  pagecolor="#ffffff" bordercolor="#666666" borderopacity="1" inkscape:zoom="1.3037281" inkscape:cx="131.2229" inkscape:cy="126.3635" showgrid="false" id="namedview4" inkscape:pageopacity="0" inkscape:current-layer="svg2" inkscape:pageshadow="2" inkscape:window-width="884" inkscape:window-height="617" inkscape:window-x="15" inkscape:window-y="39" inkscape:window-maximized="0" guidetolerance="10" gridtolerance="10" objecttolerance="10">
	</sodipodi:namedview>
<circle fill="#ED7826" cx="127.813" cy="127.822" r="124.296"/>
<path fill="#DB6D27" d="M216.076,40.276c48.541,48.543,48.545,127.245,0,175.792c-48.541,48.541-127.25,48.543-175.792,0
	L216.076,40.276z"/>
<path fill="#CE6028" d="M247.725,160.585l-89.172-89.169l-18.167,18.169L90.53,82.578l10.277,46.584l-35.829,35.829l12.595,12.595
	l-3.107,3.106l70.25,70.252C194.43,244.186,234.779,208.05,247.725,160.585z"/>
<path fill="#FFFFFF" d="M153.595,193.636c23.271,0,42.173-18.955,42.304-42.098l0.262-34.074l-0.391-1.854l-1.117-2.331
	l-1.892-1.464c-2.456-1.924-14.899,0.129-18.249-2.911c-2.375-2.17-2.746-6.094-3.469-11.408
	c-1.336-10.297-2.176-10.835-3.791-14.322c-5.859-12.396-21.755-21.711-32.675-22.997h-29.582c-23.273,0-42.299,18.985-42.299,42.17
	v49.192c0,23.142,19.024,42.098,42.299,42.098H153.595z M105.534,94.625h23.45c4.479,0,8.106,3.635,8.106,8.053
	c0,4.4-3.627,8.067-8.106,8.067h-23.45c-4.477,0-8.098-3.667-8.098-8.067C97.437,98.26,101.058,94.625,105.534,94.625z
	 M97.437,150.913c0-4.416,3.622-8.022,8.099-8.022h47.652c4.449,0,8.061,3.606,8.061,8.022c0,4.36-3.613,8.022-8.061,8.022h-47.652
	C101.058,158.936,97.437,155.273,97.437,150.913z"/>
</svg>
