<?xml version="1.0" encoding="utf-8"?>
<!-- Generator: Adobe Illustrator 16.0.0, SVG Export Plug-In . SVG Version: 6.00 Build 0)  -->
<!DOCTYPE svg PUBLIC "-//W3C//DTD SVG 1.1//EN" "http://www.w3.org/Graphics/SVG/1.1/DTD/svg11.dtd">
<svg version="1.1"
	 id="svg2" xmlns:dc="http://purl.org/dc/elements/1.1/" xmlns:cc="http://creativecommons.org/ns#" xmlns:rdf="http://www.w3.org/1999/02/22-rdf-syntax-ns#" xmlns:svg="http://www.w3.org/2000/svg" xmlns:sodipodi="http://sodipodi.sourceforge.net/DTD/sodipodi-0.dtd" xmlns:inkscape="http://www.inkscape.org/namespaces/inkscape" inkscape:version="0.48.4 r9939" sodipodi:docname="bluetooth.svg"
	 xmlns="http://www.w3.org/2000/svg" xmlns:xlink="http://www.w3.org/1999/xlink" x="0px" y="0px" width="512px" height="512px"
	 viewBox="0 0 512 512" enable-background="new 0 0 512 512" xml:space="preserve">
<sodipodi:namedview  pagecolor="#ffffff" bordercolor="#666666" borderopacity="1" inkscape:zoom="0.43457603" inkscape:cx="203.25257" inkscape:cy="74.911205" showgrid="false" id="namedview9" inkscape:document-units="px" inkscape:pageopacity="0" inkscape:current-layer="svg2" inkscape:pageshadow="2" inkscape:window-width="1360" inkscape:window-height="721" inkscape:window-x="0" inkscape:window-y="25" inkscape:window-maximized="1" inkscape:snap-global="false" inkscape:showpageshadow="false" borderlayer="true" guidetolerance="10" gridtolerance="10" objecttolerance="10">
	</sodipodi:namedview>
<path fill="#5D9BEB" d="M23,256.005C23,384.698,127.31,489.003,255.996,489C384.69,489.003,489,384.698,489,256.005
	C489.009,127.313,384.69,23,255.996,23C127.31,23,23,127.316,23,256.005z"/>
<path fill="#4988DB" d="M485.23,297.565l-0.549-0.504c-0.104-0.106-0.148-0.257-0.261-0.359c0,0-134.677-134.688-134.789-134.79
	l-88.639-81.253c-2.166-1.969-5.296-2.503-7.964-1.311c-2.684,1.176-4.415,3.83-4.415,6.756V238.19l-0.556-0.579
	c-0.05-0.055-74.039-73.987-74.092-74.039l-1.275-1.327c-2.827-2.957-7.509-3.039-10.444-0.217
	c-2.944,2.828-3.038,7.502-0.218,10.445l81.824,85.227l-81.714,81.715c-2.885,2.886-2.885,7.561,0,10.445
	c0.257,0.257,0.588,0.367,0.871,0.579c0.211,0.282,133.66,133.955,133.917,134.21c0.244,0.244,0.552,0.358,0.824,0.548
	C393.016,467.957,468.066,392.855,485.23,297.565z"/>
<path fill="#F6F6F6" d="M264.533,257.912l85.328-85.329c1.429-1.422,2.208-3.369,2.164-5.381c-0.043-2.013-0.907-3.925-2.394-5.288
	l-88.64-81.253c-2.165-1.969-5.296-2.503-7.964-1.313c-2.684,1.176-4.415,3.83-4.415,6.759v155.227l-75.923-79.089
	c-2.828-2.958-7.51-3.037-10.444-0.218c-2.943,2.829-3.037,7.502-0.218,10.446l81.824,85.227l-81.714,81.714
	c-2.885,2.886-2.885,7.561,0,10.445c2.885,2.885,7.56,2.885,10.445,0l76.03-76.029v152.06c0,2.865,1.659,5.477,4.256,6.688
	c0.995,0.469,2.063,0.7,3.131,0.7c1.695,0,3.376-0.584,4.731-1.71l88.64-73.865c1.574-1.312,2.533-3.224,2.641-5.266
	c0.115-2.049-0.627-4.047-2.041-5.525L264.533,257.912z M263.387,102.901l70.576,64.69l-70.576,70.576V102.901L263.387,102.901z
	 M263.387,410.124V278.051l70.434,73.376L263.387,410.124z"/>
</svg>
