<?xml version="1.0" encoding="utf-8"?>
<!-- Generator: Adobe Illustrator 16.0.0, SVG Export Plug-In . SVG Version: 6.00 Build 0)  -->
<!DOCTYPE svg PUBLIC "-//W3C//DTD SVG 1.1//EN" "http://www.w3.org/Graphics/SVG/1.1/DTD/svg11.dtd">
<svg version="1.1"
	 id="svg2" xmlns:dc="http://purl.org/dc/elements/1.1/" xmlns:cc="http://creativecommons.org/ns#" xmlns:rdf="http://www.w3.org/1999/02/22-rdf-syntax-ns#" xmlns:svg="http://www.w3.org/2000/svg" xmlns:sodipodi="http://sodipodi.sourceforge.net/DTD/sodipodi-0.dtd" xmlns:inkscape="http://www.inkscape.org/namespaces/inkscape" sodipodi:docname="calendar.svg" inkscape:version="0.48.4 r9939"
	 xmlns="http://www.w3.org/2000/svg" xmlns:xlink="http://www.w3.org/1999/xlink" x="0px" y="0px" width="512px" height="512px"
	 viewBox="0 0 512 512" enable-background="new 0 0 512 512" xml:space="preserve">
<sodipodi:namedview  inkscape:cy="366.36396" inkscape:cx="359.87077" inkscape:zoom="0.35" showgrid="false" bordercolor="#666666" pagecolor="#ffffff" borderopacity="1.0" id="base" inkscape:document-units="px" inkscape:current-layer="layer1" inkscape:window-maximized="1" inkscape:window-y="25" inkscape:window-x="0" inkscape:window-height="719" inkscape:window-width="1360" inkscape:pageshadow="2" inkscape:pageopacity="0.0">
	</sodipodi:namedview>
<g id="layer1" transform="translate(0,-540.36218)" inkscape:label="Capa 1" inkscape:groupmode="layer">
	<path id="rect3763" fill="#293D39" d="M86.112,578.897H423.43c13.534,0,24.506,10.972,24.506,24.506v354.615
		c0,13.535-10.972,24.507-24.506,24.507H86.112c-13.534,0-24.506-10.972-24.506-24.507V603.403
		C61.606,589.869,72.578,578.897,86.112,578.897z"/>
	<path id="rect2991" fill="#1F4283" d="M85.399,640.883h338.743c13.141,0,23.793,10.653,23.793,23.793v338.743
		c0,13.141-10.652,23.793-23.793,23.793H85.399c-13.141,0-23.793-10.652-23.793-23.793V664.676
		C61.606,651.536,72.259,640.883,85.399,640.883z"/>
	<path id="rect3794" inkscape:connector-curvature="0" fill-opacity="0.3039" d="M85.389,631.519
		c-13.182,0-23.792,10.61-23.792,23.792v9.365c0-13.182,10.61-23.792,23.792-23.792h338.744c13.181,0,23.813,10.61,23.813,23.792
		v-9.365c0-13.182-10.633-23.792-23.813-23.792H85.389L85.389,631.519z"/>
	<path id="rect3761" inkscape:connector-curvature="0" sodipodi:nodetypes="ssssccccs" fill="#71A2D7" d="M85.145,640.883h338.743
		c13.182,0,23.793,10.612,23.793,23.793v338.743c0,13.182-10.611,23.793-23.793,23.793c-84.687,0-169.372,0-254.058,0
		L61.352,918.733c0-84.686,0-169.372,0-254.058C61.352,651.495,71.963,640.883,85.145,640.883L85.145,640.883z"/>
	<g>
		<defs>
			<path id="SVGID_1_" d="M85.399,640.883h338.743c13.141,0,23.793,10.652,23.793,23.793v338.743
				c0,13.141-10.652,23.793-23.793,23.793H85.399c-13.141,0-23.793-10.652-23.793-23.793V664.676
				C61.606,651.535,72.259,640.883,85.399,640.883z"/>
		</defs>
		<clipPath id="SVGID_2_">
			<use xlink:href="#SVGID_1_"  overflow="visible"/>
		</clipPath>
		<g id="g3776" transform="matrix(0.71351945,0,0,0.71351945,-24.16462,459.40505)" clip-path="url(#SVGID_2_)">
			<path id="rect3778" fill-opacity="0.1961" d="M192.939,217.977L192.939,217.977c10.6,0,19.193,8.592,19.193,19.193v54.549
				c0,10.6-8.593,19.193-19.193,19.193l0,0c-10.6,0-19.193-8.593-19.193-19.193v-54.549
				C173.746,226.569,182.339,217.977,192.939,217.977z"/>
			<path id="rect3780" fill-opacity="0.1961" d="M399.011,217.977L399.011,217.977c10.599,0,19.193,8.592,19.193,19.193v54.549
				c0,10.6-8.594,19.193-19.193,19.193l0,0c-10.6,0-19.193-8.593-19.193-19.193v-54.549
				C379.817,226.569,388.41,217.977,399.011,217.977z"/>
			<path id="rect3782" fill-opacity="0.1961" d="M605.081,217.977L605.081,217.977c10.6,0,19.194,8.592,19.194,19.193v54.549
				c0,10.6-8.594,19.193-19.194,19.193l0,0c-10.599,0-19.193-8.593-19.193-19.193v-54.549
				C585.888,226.569,594.482,217.977,605.081,217.977z"/>
			<path id="rect3782_1_" fill-opacity="0.1961" d="M515.385,217.977L515.385,217.977c10.6,0,19.194,8.592,19.194,19.193v54.549
				c0,10.6-8.594,19.193-19.194,19.193l0,0c-10.599,0-19.193-8.593-19.193-19.193v-54.549
				C496.192,226.569,504.786,217.977,515.385,217.977z"/>
			<path id="rect3782_4_" fill-opacity="0.1961" d="M308.326,217.977L308.326,217.977c10.6,0,19.194,8.592,19.194,19.193v54.549
				c0,10.6-8.594,19.193-19.194,19.193l0,0c-10.599,0-19.193-8.593-19.193-19.193v-54.549
				C289.133,226.569,297.727,217.977,308.326,217.977z"/>
		</g>
	</g>
	<g id="g3771" transform="matrix(0.71351945,0,0,0.71351945,-29.930727,459.40505)">
		<path id="rect3765" fill="#F9F9F9" d="M192.94,217.977L192.94,217.977c10.599,0,19.193,8.592,19.193,19.193v54.549
			c0,10.6-8.593,19.193-19.193,19.193l0,0c-10.6,0-19.193-8.593-19.193-19.193v-54.549
			C173.746,226.569,182.339,217.977,192.94,217.977z"/>
		<path id="rect3767" fill="#F9F9F9" d="M399.011,217.977L399.011,217.977c10.6,0,19.192,8.592,19.192,19.193v54.549
			c0,10.6-8.592,19.193-19.192,19.193l0,0c-10.6,0-19.193-8.593-19.193-19.193v-54.549
			C379.817,226.569,388.41,217.977,399.011,217.977z"/>
		<path id="rect3767_1_" fill="#F9F9F9" d="M305.11,217.977L305.11,217.977c10.599,0,19.192,8.592,19.192,19.193v54.549
			c0,10.6-8.593,19.193-19.192,19.193l0,0c-10.6,0-19.193-8.593-19.193-19.193v-54.549
			C285.917,226.569,294.51,217.977,305.11,217.977z"/>
		<path id="rect3767_2_" fill="#F9F9F9" d="M516.864,217.977L516.864,217.977c10.6,0,19.193,8.592,19.193,19.193v54.549
			c0,10.6-8.592,19.193-19.193,19.193l0,0c-10.599,0-19.193-8.593-19.193-19.193v-54.549
			C497.671,226.569,506.265,217.977,516.864,217.977z"/>
		<path id="rect3769" fill="#F9F9F9" d="M605.082,217.977L605.082,217.977c10.6,0,19.193,8.592,19.193,19.193v54.549
			c0,10.6-8.592,19.193-19.193,19.193l0,0c-10.6,0-19.193-8.593-19.193-19.193v-54.549
			C585.889,226.569,594.482,217.977,605.082,217.977z"/>
	</g>
	<g id="flowRoot3853" transform="matrix(1.1229845,0,0,1.1229845,-62.025988,258.61372)">
		<path id="path4065" fill="#FFFAEC" d="M227.399,586.365c15.388,0,23.082-7.161,23.082-21.484v-13.14
			c0-22.846-11.955-34.268-35.866-34.268v-28.764c12.902,0,22.431-3.611,28.587-10.831c5.682-6.51,8.523-15.625,8.523-27.344v-5.149
			c0-14.559-6.392-21.839-19.176-21.839c-7.102,0-12.311,2.723-15.625,8.167c-2.486,4.143-3.729,9.529-3.729,16.158v5.859h-32.848
			v-5.149c0-15.862,4.025-28.764,12.074-38.708c9.115-11.363,21.958-17.045,38.53-17.045c15.743,0,28.35,5.327,37.819,15.98
			c8.523,9.588,12.784,21.544,12.784,35.867v9.411c0,13.849-4.143,25.805-12.429,35.866c-3.552,4.262-7.694,7.872-12.429,10.831
			c9.943,5.564,17.637,14.027,23.082,25.391c2.841,5.8,4.262,12.843,4.262,21.129v17.578c0,16.453-5.623,29.948-16.868,40.482
			c-10.772,10.181-23.734,15.27-38.885,15.27c-14.796,0-27.344-5.208-37.642-15.625c-10.298-10.416-15.448-22.905-15.448-37.465
			v-5.504l31.96-2.486l0.71,7.813c0.474,5.564,2.427,10.121,5.859,13.672C217.278,584.59,221.835,586.365,227.399,586.365"/>
		<path id="path4067" fill="#FFFAEC" d="M335.443,618.325V446.983h-28.409v-23.437c8.049-0.947,15.684-3.965,22.905-9.055
			c7.339-5.208,12.607-11.482,15.803-18.821h23.438v222.656H335.443"/>
	</g>
	<g>
		<defs>
			<path id="SVGID_3_" d="M85.399,640.883h338.743c13.141,0,23.793,10.652,23.793,23.793v338.743
				c0,13.141-10.652,23.793-23.793,23.793H85.399c-13.141,0-23.793-10.652-23.793-23.793V664.676
				C61.606,651.535,72.259,640.883,85.399,640.883z"/>
		</defs>
		<clipPath id="SVGID_4_">
			<use xlink:href="#SVGID_3_"  overflow="visible"/>
		</clipPath>
		
			<linearGradient id="path3829_1_" gradientUnits="userSpaceOnUse" x1="-266.3086" y1="524.6587" x2="58.9605" y2="397.3795" gradientTransform="matrix(0.7135 0 0 -0.7135 343.3418 1363.782)">
			<stop  offset="0" style="stop-color:#000000;stop-opacity:0.0616"/>
			<stop  offset="1" style="stop-color:#47B39A;stop-opacity:0.1712"/>
		</linearGradient>
		<path id="path3829" inkscape:connector-curvature="0" clip-path="url(#SVGID_4_)" fill="url(#path3829_1_)" d="M162.513,927.747
			l234.969,106.673l-240.735,21.623L162.513,927.747z"/>
	</g>
	<path id="path3797" inkscape:connector-curvature="0" sodipodi:nodetypes="csscc" fill="#6DB6E5" d="M61.352,918.733h84.686
		c13.182,0,23.793,10.611,23.793,23.793v84.686L61.352,918.733z"/>
	<path id="path3822" inkscape:connector-curvature="0" fill="#FFFFFF" fill-opacity="0.2451" d="M85.144,640.884
		c-13.181,0-23.791,10.61-23.791,23.792v4.326c0-13.181,10.61-23.792,23.791-23.792h338.743c13.182,0,23.792,10.61,23.792,23.792
		v-4.326c0-13.181-10.61-23.792-23.792-23.792H85.144z"/>
</g>
</svg>
