<?xml version="1.0" encoding="utf-8"?>
<!-- Generator: Adobe Illustrator 16.0.0, SVG Export Plug-In . SVG Version: 6.00 Build 0)  -->
<!DOCTYPE svg PUBLIC "-//W3C//DTD SVG 1.1//EN" "http://www.w3.org/Graphics/SVG/1.1/DTD/svg11.dtd">
<svg version="1.1"
	 id="svg2" xmlns:dc="http://purl.org/dc/elements/1.1/" xmlns:cc="http://creativecommons.org/ns#" xmlns:rdf="http://www.w3.org/1999/02/22-rdf-syntax-ns#" xmlns:svg="http://www.w3.org/2000/svg" xmlns:sodipodi="http://sodipodi.sourceforge.net/DTD/sodipodi-0.dtd" xmlns:inkscape="http://www.inkscape.org/namespaces/inkscape" sodipodi:docname="chromium.svg" inkscape:version="0.91 r13725" inkscape:export-ydpi="90" inkscape:export-xdpi="90" inkscape:export-filename="/home/silerio/Imágenes/chrome12.png"
	 xmlns="http://www.w3.org/2000/svg" xmlns:xlink="http://www.w3.org/1999/xlink" x="0px" y="0px" width="512px" height="512px"
	 viewBox="0 0 512 512" enable-background="new 0 0 512 512" xml:space="preserve">
<sodipodi:namedview  inkscape:cy="202.11347" inkscape:cx="-75.659968" inkscape:zoom="0.48996029" showgrid="false" guidetolerance="10" gridtolerance="10" objecttolerance="10" bordercolor="#666666" pagecolor="#ffffff" borderopacity="1" id="namedview4" inkscape:document-units="px" inkscape:current-layer="svg2" inkscape:window-maximized="1" inkscape:window-y="25" inkscape:window-x="0" inkscape:window-height="721" inkscape:window-width="1360" inkscape:pageshadow="2" inkscape:pageopacity="0" inkscape:guide-bbox="true" showguides="true">
	</sodipodi:namedview>
<g id="g3851" transform="translate(-188.82406,1.1047704)">
</g>
<path id="path3847" inkscape:connector-curvature="0" fill="#EF4830" d="M252.219,33.219c-92.317,0-171.727,55.206-207.031,134.406
	c7.92,17.454,18.186,34.2,30.875,49.75c29.793,36.51,68.599,61.293,110.594,73.813c33.777-82.689,115.003-140.969,209.844-140.969
	c20.07,0,39.531,2.602,58.063,7.5C417.231,83.851,340.64,33.219,252.219,33.219z M38.094,185.625
	c-0.42,1.213-0.819,2.434-1.219,3.656C37.274,188.059,37.673,186.841,38.094,185.625z M36.875,189.281
	c-0.402,1.229-0.806,2.45-1.188,3.688C36.066,191.741,36.476,190.504,36.875,189.281z M34.594,196.656
	c-0.354,1.224-0.697,2.455-1.031,3.688C33.898,199.105,34.236,197.89,34.594,196.656z M33.563,200.344
	c-0.338,1.247-0.683,2.495-1,3.75C32.877,202.85,33.227,201.583,33.563,200.344z M30.75,211.906
	c-0.246,1.144-0.49,2.288-0.719,3.438C30.26,214.201,30.504,213.046,30.75,211.906z M29.313,219.125
	c-0.177,0.978-0.335,1.956-0.5,2.938C28.978,221.082,29.134,220.104,29.313,219.125z M478.656,254.125
	c0.032,1.293,0.053,2.582,0.063,3.875C478.71,256.705,478.688,255.416,478.656,254.125z M478.125,276.625
	c-0.099,1.324-0.223,2.646-0.344,3.969C477.902,279.275,478.026,277.951,478.125,276.625z M462.625,343.906
	c-0.362,0.91-0.719,1.813-1.094,2.719C461.907,345.719,462.261,344.819,462.625,343.906z M455.031,360.875
	c-0.457,0.919-0.905,1.837-1.375,2.75C454.124,362.718,454.575,361.79,455.031,360.875z M451.438,367.813
	c-0.614,1.136-1.24,2.279-1.875,3.406C450.199,370.091,450.819,368.953,451.438,367.813z M382.813,444.969
	c-1.016,0.719-2.038,1.425-3.063,2.125C380.771,446.397,381.803,445.682,382.813,444.969z"/>
<path id="path3857" inkscape:connector-curvature="0" fill="#2E9445" d="M45.188,167.625c-33.63,75.625-24.433,166.993,31.469,235.5
	c64.84,79.461,172.393,103.496,262.469,66.031c6.245-18.121,10.277-37.358,11.75-57.375c3.264-44.354-6.494-86.656-26-123.188
	c-87.083,29.729-187.226,4.254-248.813-71.219C63.373,201.825,53.108,185.079,45.188,167.625z M478.656,254.125
	c0.031,1.291,0.054,2.58,0.063,3.875C478.709,256.707,478.688,255.418,478.656,254.125z M478.125,276.625
	c-0.099,1.326-0.223,2.65-0.344,3.969C477.902,279.271,478.026,277.949,478.125,276.625z M462.625,343.906
	c-0.364,0.913-0.718,1.813-1.094,2.719C461.906,345.719,462.263,344.816,462.625,343.906z M455.031,360.875
	c-0.456,0.915-0.907,1.843-1.375,2.75C454.126,362.712,454.574,361.794,455.031,360.875z M451.438,367.813
	c-0.618,1.141-1.238,2.278-1.875,3.406C450.197,370.092,450.823,368.948,451.438,367.813z M447.625,374.563
	c-1.312,2.231-2.678,4.445-4.063,6.625C444.953,378.995,446.316,376.794,447.625,374.563z M443.563,381.188
	c-0.692,1.09-1.384,2.173-2.094,3.25C442.179,383.359,442.873,382.275,443.563,381.188z M439.313,387.656
	c-3.639,5.318-7.5,10.466-11.563,15.438C431.844,398.086,435.704,392.936,439.313,387.656z M427.75,403.094
	c-0.813,0.994-1.64,1.989-2.469,2.969C426.115,405.077,426.935,404.091,427.75,403.094z M425.281,406.063
	c-2.486,2.939-5.027,5.788-7.656,8.594C420.263,411.844,422.811,408.98,425.281,406.063z M417.625,414.656
	c-0.876,0.936-1.765,1.893-2.656,2.813C415.867,416.543,416.745,415.595,417.625,414.656z M414.969,417.469
	c-0.892,0.92-1.78,1.814-2.688,2.719C413.185,419.287,414.083,418.381,414.969,417.469z M403.781,428.25
	c-0.908,0.817-1.829,1.604-2.75,2.406C401.95,429.855,402.878,429.063,403.781,428.25z M401.031,430.656
	c-0.965,0.841-1.927,1.675-2.906,2.5C399.104,432.332,400.069,431.494,401.031,430.656z M382.813,444.969
	c-1.01,0.713-2.041,1.429-3.063,2.125C380.774,446.394,381.797,445.688,382.813,444.969z M369.906,453.469
	c-2.068,1.261-4.14,2.492-6.25,3.688C365.76,455.965,367.832,454.734,369.906,453.469z M363.344,457.344
	c-1.087,0.613-2.184,1.186-3.281,1.781C361.154,458.532,362.259,457.956,363.344,457.344z M360.063,459.125
	c-1.131,0.613-2.265,1.218-3.406,1.813C357.791,460.346,358.936,459.737,360.063,459.125z M353.188,462.719
	c-1.152,0.575-2.306,1.132-3.469,1.688C350.879,463.852,352.035,463.294,353.188,462.719z M349.719,464.406
	c-1.163,0.556-2.326,1.089-3.5,1.625C347.39,465.496,348.555,464.963,349.719,464.406z"/>
<path id="path3855" inkscape:connector-curvature="0" fill="#FFD449" d="M55.906,146.625c-0.556,0.962-1.114,1.935-1.656,2.906
	C54.791,148.562,55.352,147.585,55.906,146.625z M396.5,150.219c-56.552,0-108.271,20.738-147.969,55
	c66.867,43.614,108.617,121.311,102.344,206.563c-1.473,20.017-5.505,39.254-11.75,57.375c14.326-5.964,27.918-13.393,40.625-22.063
	c1.024-0.7,2.047-1.406,3.063-2.125c27.25-19.252,50.158-44.38,66.75-73.75c0.635-1.127,1.261-2.271,1.875-3.406
	c0.751-1.385,1.496-2.785,2.219-4.188c0.47-0.913,0.918-1.831,1.375-2.75c2.321-4.657,4.495-9.409,6.5-14.25
	c0.375-0.906,0.731-1.809,1.094-2.719c7.899-19.8,13.116-41.046,15.156-63.313c0.121-1.322,0.245-2.645,0.344-3.969
	c0.004-0.052-0.004-0.104,0-0.156c0.456-6.199,0.637-12.359,0.594-18.469c-0.01-1.293-0.03-2.582-0.063-3.875
	c-0.828-34.444-9.442-67.192-24.25-96.438C435.921,152.815,416.516,150.219,396.5,150.219z M30.75,211.906
	c-0.246,1.14-0.49,2.294-0.719,3.438C30.26,214.194,30.504,213.05,30.75,211.906z M29.313,219.125
	c-0.178,0.979-0.334,1.957-0.5,2.938C28.977,221.081,29.135,220.103,29.313,219.125z"/>
<g>
	<defs>
		<path id="SVGID_1_" d="M56.417,146.115c-0.556,0.962-1.114,1.935-1.656,2.906C55.301,148.052,55.862,147.075,56.417,146.115z
			 M397.01,149.708c-56.551,0-108.271,20.738-147.968,55c66.868,43.614,108.617,121.311,102.343,206.563
			c-1.473,20.016-5.504,39.253-11.75,57.375c14.327-5.965,27.919-13.393,40.625-22.063c1.025-0.7,2.047-1.406,3.063-2.125
			c27.25-19.252,50.159-44.381,66.75-73.75c0.636-1.127,1.261-2.271,1.875-3.406c0.752-1.385,1.496-2.785,2.219-4.188
			c0.471-0.914,0.919-1.832,1.375-2.75c2.322-4.658,4.495-9.41,6.5-14.25c0.375-0.906,0.731-1.809,1.094-2.719
			c7.9-19.801,13.117-41.047,15.156-63.313c0.122-1.322,0.246-2.645,0.344-3.969c0.005-0.053-0.004-0.105,0-0.156
			c0.457-6.2,0.637-12.359,0.594-18.469c-0.01-1.294-0.03-2.582-0.063-3.875c-0.828-34.444-9.441-67.193-24.25-96.438
			C436.432,152.305,417.025,149.708,397.01,149.708z M31.26,211.396c-0.246,1.14-0.49,2.294-0.719,3.438
			C30.77,213.684,31.014,212.539,31.26,211.396z M29.823,218.615c-0.178,0.979-0.334,1.957-0.5,2.938
			C29.487,220.57,29.646,219.592,29.823,218.615z"/>
	</defs>
	<clipPath id="SVGID_2_">
		<use xlink:href="#SVGID_1_"  overflow="visible"/>
	</clipPath>
	<path id="path3937" inkscape:connector-curvature="0" clip-path="url(#SVGID_2_)" fill-opacity="0.1" d="M397.01,149.708
		c-58.396,0-111.637,22.091-151.812,58.375l50.312,37.406c62.635,4.818,149.523-82.845,155.781-89.25
		C433.896,151.962,415.726,149.708,397.01,149.708z M31.26,211.396c-0.246,1.14-0.49,2.294-0.719,3.438
		C30.77,213.684,31.014,212.539,31.26,211.396z M29.823,218.615c-0.178,0.979-0.334,1.957-0.5,2.938
		C29.487,220.57,29.646,219.592,29.823,218.615z M479.166,253.615c0.031,1.291,0.054,2.58,0.063,3.875
		C479.219,256.196,479.198,254.908,479.166,253.615z M478.635,276.115c-0.098,1.325-0.223,2.649-0.344,3.969
		C478.413,278.762,478.537,277.439,478.635,276.115z M463.135,343.396c-0.363,0.912-0.718,1.812-1.094,2.719
		C462.416,345.209,462.772,344.307,463.135,343.396z M455.541,360.365c-0.455,0.914-0.906,1.842-1.375,2.75
		C454.637,362.201,455.085,361.283,455.541,360.365z M451.947,367.303c-0.618,1.14-1.237,2.277-1.875,3.406
		C450.708,369.582,451.333,368.438,451.947,367.303z M383.322,444.459c-1.009,0.713-2.041,1.428-3.063,2.125
		C381.285,445.884,382.307,445.178,383.322,444.459z"/>
</g>
<g>
	<defs>
		<path id="SVGID_3_" d="M45.698,167.115c-33.629,75.625-24.433,166.993,31.469,235.5c64.84,79.46,172.393,103.495,262.468,66.031
			c6.246-18.122,10.277-37.359,11.75-57.375c3.264-44.354-6.493-86.657-26-123.188c-87.083,29.728-187.226,4.254-248.812-71.219
			C63.883,201.314,53.618,184.569,45.698,167.115z M479.166,253.615c0.031,1.291,0.054,2.58,0.063,3.875
			C479.219,256.196,479.198,254.908,479.166,253.615z M478.635,276.115c-0.098,1.325-0.223,2.649-0.344,3.969
			C478.413,278.762,478.537,277.439,478.635,276.115z M463.135,343.396c-0.363,0.912-0.718,1.812-1.094,2.719
			C462.416,345.209,462.772,344.307,463.135,343.396z M455.541,360.365c-0.455,0.914-0.906,1.842-1.375,2.75
			C454.637,362.201,455.085,361.283,455.541,360.365z M451.947,367.303c-0.618,1.14-1.237,2.277-1.875,3.406
			C450.708,369.582,451.333,368.438,451.947,367.303z M448.135,374.053c-1.311,2.23-2.678,4.444-4.063,6.625
			C445.463,378.484,446.826,376.284,448.135,374.053z M444.072,380.678c-0.691,1.09-1.383,2.173-2.094,3.25
			C442.688,382.85,443.383,381.766,444.072,380.678z M439.822,387.146c-3.638,5.317-7.5,10.466-11.563,15.438
			C432.354,397.576,436.215,392.425,439.822,387.146z M428.26,402.584c-0.812,0.994-1.64,1.988-2.469,2.969
			C426.626,404.566,427.445,403.581,428.26,402.584z M425.791,405.553c-2.485,2.939-5.027,5.787-7.656,8.594
			C420.773,411.334,423.321,408.471,425.791,405.553z M418.135,414.146c-0.876,0.935-1.764,1.892-2.656,2.813
			C416.378,416.032,417.255,415.084,418.135,414.146z M415.479,416.959c-0.891,0.92-1.78,1.813-2.688,2.719
			C413.695,418.777,414.594,417.871,415.479,416.959z M404.291,427.74c-0.907,0.816-1.829,1.604-2.75,2.406
			C402.461,429.346,403.388,428.552,404.291,427.74z M401.541,430.146c-0.965,0.841-1.927,1.675-2.906,2.5
			C399.614,431.821,400.58,430.983,401.541,430.146z M383.322,444.459c-1.009,0.713-2.041,1.428-3.063,2.125
			C381.285,445.884,382.307,445.178,383.322,444.459z M370.416,452.959c-2.068,1.26-4.139,2.492-6.25,3.688
			C366.27,455.454,368.342,454.224,370.416,452.959z M363.854,456.834c-1.086,0.612-2.184,1.186-3.281,1.781
			C361.664,458.022,362.77,457.445,363.854,456.834z M360.572,458.615c-1.13,0.612-2.264,1.218-3.406,1.813
			C358.302,459.836,359.445,459.227,360.572,458.615z M353.697,462.209c-1.152,0.575-2.305,1.131-3.469,1.688
			C351.389,463.342,352.545,462.784,353.697,462.209z M350.229,463.896c-1.162,0.556-2.326,1.088-3.5,1.625
			C347.9,464.986,349.064,464.452,350.229,463.896z"/>
	</defs>
	<clipPath id="SVGID_4_">
		<use xlink:href="#SVGID_3_"  overflow="visible"/>
	</clipPath>
	<path id="path3948" inkscape:connector-curvature="0" clip-path="url(#SVGID_4_)" fill-opacity="0.1" d="M56.417,146.115
		c-0.555,0.96-1.115,1.937-1.656,2.906C55.303,148.05,55.86,147.077,56.417,146.115z M31.26,211.396
		c-0.246,1.143-0.49,2.288-0.719,3.438C30.77,213.69,31.014,212.536,31.26,211.396z M29.823,218.615
		c-0.177,0.978-0.335,1.956-0.5,2.938C29.488,220.571,29.645,219.593,29.823,218.615z M323.041,283.803l-69.875,16.688
		c-1.99,48.744,85.832,166.117,86.75,167.344c6.088-17.884,10.019-36.846,11.469-56.563
		C354.777,365.173,344.111,321.288,323.041,283.803z"/>
</g>
<g>
	<defs>
		<path id="SVGID_5_" d="M252.219,33.729c-92.317,0-171.727,55.206-207.031,134.406c7.92,17.455,18.186,34.2,30.875,49.75
			c29.793,36.51,68.599,61.292,110.594,73.812c33.777-82.688,115.003-140.968,209.844-140.968c20.07,0,39.531,2.602,58.063,7.5
			C417.231,84.361,340.64,33.729,252.219,33.729z M38.094,186.135c-0.42,1.213-0.819,2.434-1.219,3.656
			C37.274,188.569,37.673,187.352,38.094,186.135z M36.875,189.792c-0.402,1.229-0.806,2.45-1.188,3.688
			C36.066,192.251,36.476,191.014,36.875,189.792z M34.594,197.167c-0.354,1.224-0.697,2.455-1.031,3.688
			C33.898,199.615,34.236,198.4,34.594,197.167z M33.563,200.854c-0.338,1.247-0.683,2.495-1,3.75
			C32.877,203.36,33.227,202.093,33.563,200.854z M30.75,212.417c-0.246,1.143-0.49,2.288-0.719,3.438
			C30.26,214.711,30.504,213.556,30.75,212.417z M29.313,219.635c-0.177,0.978-0.335,1.956-0.5,2.938
			C28.978,221.592,29.134,220.614,29.313,219.635z M478.656,254.635c0.032,1.293,0.053,2.582,0.063,3.875
			C478.71,257.215,478.688,255.926,478.656,254.635z M478.125,277.135c-0.099,1.324-0.223,2.646-0.344,3.969
			C477.902,279.785,478.026,278.461,478.125,277.135z M462.625,344.416c-0.362,0.911-0.719,1.813-1.094,2.719
			C461.907,346.229,462.261,345.329,462.625,344.416z M455.031,361.385c-0.457,0.919-0.905,1.837-1.375,2.75
			C454.124,363.228,454.575,362.3,455.031,361.385z M451.438,368.322c-0.614,1.136-1.24,2.28-1.875,3.406
			C450.199,370.601,450.819,369.463,451.438,368.322z M382.813,445.479c-1.016,0.72-2.038,1.426-3.063,2.125
			C380.771,446.907,381.803,446.192,382.813,445.479z"/>
	</defs>
	<clipPath id="SVGID_6_">
		<use xlink:href="#SVGID_5_"  overflow="visible"/>
	</clipPath>
	<path id="path3952" inkscape:connector-curvature="0" clip-path="url(#SVGID_6_)" fill-opacity="0.1" d="M45.719,169.292
		c7.846,17.036,17.937,33.389,30.344,48.594c32.28,39.559,75.154,65.381,121.188,76.718L215,240.51
		C164.741,169.557,49.077,169.285,45.719,169.292z M478.656,254.635c0.032,1.293,0.053,2.582,0.063,3.875
		C478.71,257.215,478.688,255.926,478.656,254.635z M478.125,277.135c-0.099,1.324-0.223,2.646-0.344,3.969
		C477.902,279.785,478.026,278.461,478.125,277.135z M462.625,344.416c-0.362,0.911-0.719,1.813-1.094,2.719
		C461.907,346.229,462.261,345.329,462.625,344.416z M455.031,361.385c-0.457,0.919-0.905,1.837-1.375,2.75
		C454.124,363.228,454.575,362.3,455.031,361.385z M451.438,368.322c-0.614,1.136-1.24,2.28-1.875,3.406
		C450.199,370.601,450.819,369.463,451.438,368.322z M382.813,445.479c-1.016,0.72-2.038,1.426-3.063,2.125
		C380.771,446.907,381.803,446.192,382.813,445.479z"/>
</g>
</svg>
