<?xml version="1.0" encoding="utf-8"?>
<!-- Generator: Adobe Illustrator 16.0.0, SVG Export Plug-In . SVG Version: 6.00 Build 0)  -->
<!DOCTYPE svg PUBLIC "-//W3C//DTD SVG 1.1//EN" "http://www.w3.org/Graphics/SVG/1.1/DTD/svg11.dtd">
<svg version="1.1"
	 id="svg2" xmlns:dc="http://purl.org/dc/elements/1.1/" xmlns:cc="http://creativecommons.org/ns#" xmlns:rdf="http://www.w3.org/1999/02/22-rdf-syntax-ns#" xmlns:svg="http://www.w3.org/2000/svg" xmlns:sodipodi="http://sodipodi.sourceforge.net/DTD/sodipodi-0.dtd" xmlns:inkscape="http://www.inkscape.org/namespaces/inkscape" sodipodi:docname="alienarena.svg" inkscape:version="0.48.4 r9939" inkscape:export-ydpi="90" inkscape:export-xdpi="90" inkscape:export-filename="/home/silerio/Imágenes/iconos/alien arena.png"
	 xmlns="http://www.w3.org/2000/svg" xmlns:xlink="http://www.w3.org/1999/xlink" x="0px" y="0px" width="512px" height="513px"
	 viewBox="0 0 512 513" enable-background="new 0 0 512 513" xml:space="preserve">
<sodipodi:namedview  inkscape:cy="126.65377" inkscape:cx="735.31775" inkscape:zoom="0.1767767" showgrid="false" guidetolerance="10" gridtolerance="10" objecttolerance="10" bordercolor="#666666" pagecolor="#ffffff" borderopacity="1" id="namedview4" inkscape:document-units="px" inkscape:current-layer="svg2" inkscape:window-maximized="1" inkscape:window-y="25" inkscape:window-x="0" inkscape:window-height="721" inkscape:window-width="1360" inkscape:pageshadow="2" inkscape:pageopacity="0" inkscape:guide-bbox="true" showguides="false">
	</sodipodi:namedview>
<path fill="#FF8E31" d="M509.997,256.503c0,140.274-113.717,253.992-253.997,253.992c-140.283,0-253.997-113.718-253.997-253.992
	C2.003,116.22,115.717,2.505,256,2.505C396.28,2.505,509.997,116.22,509.997,256.503z"/>
<path fill="#ED7425" d="M504.758,308.025L393.342,196.633c-0.072-0.112-0.182-0.181-0.293-0.292l-3.807-3.813
	c-0.106-0.104-0.182-0.217-0.286-0.285c-11.542-10.487-26.853-16.878-43.657-16.878c-13.086,0-25.275,3.889-35.483,10.564l0,0
	l-51.998-51.999c-0.508-0.508-1.198-0.767-1.852-0.767c-0.649,0-1.307,0.259-1.851,0.767c-0.508,0.504-0.762,1.158-0.762,1.847
	v49.313h-0.943c-1.163,0-2.362,0.432-3.229,1.347c-0.874,0.871-1.341,2.063-1.341,3.189v11.72h-29.174
	c-11.867-15.783-30.731-25.984-51.962-25.984c-1.995,0-3.957,0.124-5.902,0.3c-0.557,0.049-1.105,0.109-1.654,0.181
	c-1.572,0.181-3.124,0.419-4.658,0.711c-0.386,0.068-0.782,0.124-1.163,0.209c-1.621,0.335-3.224,0.726-4.8,1.178l-0.068,0.077
	c-26.959,7.887-46.662,32.756-46.662,62.26c0,2.941,0.181,5.848,0.581,8.677c0,0.068,0.036,0.181,0.036,0.251
	c0.112,0.907,0.254,1.818,0.435,2.726c0,0.104,0.036,0.181,0.036,0.285c0.186,0.871,0.366,1.742,0.545,2.613
	c0.036,0.076,0.036,0.112,0.036,0.146c0.181,0.871,0.437,1.706,0.655,2.578c0,0.068,0.036,0.146,0.069,0.25v0.077
	c0.475,1.631,0.983,3.189,1.559,4.788v0.035l21.224,65.642c1.491,4.571,3.959,8.854,7.442,12.442
	c0.25,0.291,0.543,0.585,0.835,0.835l164.958,164.958C402.589,488.607,483.871,409.379,504.758,308.025z"/>
<rect x="194.614" y="201.332" fill="#34495E" width="122.706" height="77.903"/>
<g>
	<path fill="#0575A5" d="M166.71,175.365c-35.859,0-64.924,29.064-64.924,64.925c0,2.934,0.203,5.831,0.58,8.668
		c0.008,0.083,0.025,0.168,0.033,0.251c0.124,0.912,0.267,1.811,0.434,2.718c0.013,0.1,0.036,0.188,0.049,0.292
		c0.167,0.886,0.345,1.763,0.559,2.629c0.005,0.049,0.013,0.091,0.02,0.132c0.195,0.863,0.418,1.715,0.655,2.566
		c0.013,0.083,0.041,0.167,0.053,0.258l0.028,0.077c0.457,1.618,0.967,3.213,1.546,4.78l0.008,0.044l21.223,65.633
		c2.035,6.312,6.018,12.062,11.791,16.263c5.769,4.194,12.466,6.216,19.094,6.216h8.849c8.299,0,16.609-3.171,22.954-9.505
		c6.33-6.348,9.505-14.656,9.505-22.96v-21.834c19.398-11.226,32.451-32.198,32.451-56.225
		C231.619,204.43,202.561,175.365,166.71,175.365z"/>
	<path fill="#0575A5" d="M345.283,175.365c35.861,0,64.929,29.064,64.929,64.925c0,2.934-0.203,5.831-0.581,8.668
		c-0.02,0.083-0.028,0.168-0.041,0.251c-0.119,0.912-0.269,1.811-0.418,2.718c-0.026,0.1-0.055,0.188-0.068,0.292
		c-0.158,0.886-0.344,1.763-0.534,2.629c-0.019,0.049-0.026,0.091-0.036,0.132c-0.198,0.863-0.414,1.715-0.652,2.566
		c-0.028,0.083-0.044,0.167-0.064,0.258l-0.025,0.077c-0.454,1.618-0.973,3.213-1.539,4.78l-0.018,0.044l-21.229,65.633
		c-2.029,6.312-6.013,12.062-11.785,16.263c-5.766,4.194-12.459,6.216-19.096,6.216h-8.844c-8.309,0-16.611-3.171-22.954-9.505
		c-6.332-6.348-9.497-14.656-9.497-22.96v-21.834c-19.413-11.226-32.461-32.198-32.461-56.225
		C280.371,204.43,309.436,175.365,345.283,175.365z"/>
</g>
<g>
	<polygon fill="#FFFFFF" points="165.115,240.29 155.371,250.015 132.653,250.015 132.653,230.547 155.371,230.547 	"/>
	<polygon fill="#FFFFFF" points="168.358,240.29 178.1,250.015 200.822,250.015 200.822,230.547 178.1,230.547 	"/>
	<polygon fill="#FFFFFF" points="166.738,238.659 156.995,228.923 156.995,206.2 176.476,206.2 176.476,228.923 	"/>
	<polygon fill="#FFFFFF" points="166.738,241.904 156.995,251.646 156.995,274.363 176.476,274.363 176.476,251.646 	"/>
	<path fill="#FFFFFF" d="M355,215.934c0,5.38-4.366,9.741-9.748,9.741c-5.366,0-9.73-4.364-9.73-9.741
		c0-5.38,4.364-9.735,9.73-9.735C350.634,206.2,355,210.554,355,215.934z"/>
	<path fill="#FFFFFF" d="M320.916,230.547c5.372,0,9.738,4.354,9.738,9.741c0,5.371-4.366,9.728-9.738,9.728
		c-5.379,0-9.74-4.355-9.74-9.728C311.176,234.902,315.535,230.547,320.916,230.547z"/>
	<path fill="#FFFFFF" d="M335.521,264.628c0-5.38,4.363-9.735,9.73-9.735c5.382,0,9.748,4.354,9.748,9.735
		c0,5.371-4.367,9.735-9.748,9.735C339.883,274.363,335.521,269.999,335.521,264.628z"/>
	<path fill="#FFFFFF" d="M369.604,250.015c-5.383,0-9.73-4.355-9.73-9.729c0-5.387,4.349-9.74,9.73-9.74
		c5.377,0,9.743,4.354,9.743,9.74C379.347,245.659,374.98,250.015,369.604,250.015z"/>
</g>
<g>
	<path fill="#34495E" d="M166.738,290.271c-27.569,0-49.984-22.423-49.984-49.981c0-27.574,22.412-49.992,49.984-49.992
		c27.559,0,49.988,22.418,49.988,49.992C216.727,267.849,194.297,290.271,166.738,290.271z M166.738,192.891
		c-26.131,0-47.398,21.26-47.398,47.399c0,26.124,21.267,47.383,47.398,47.383c26.128,0,47.388-21.259,47.388-47.383
		C214.126,214.15,192.867,192.891,166.738,192.891z"/>
	<path fill="#34495E" d="M345.252,290.271c-27.559,0-49.986-22.423-49.986-49.981c0-27.574,22.428-49.992,49.986-49.992
		c27.569,0,49.994,22.418,49.994,49.992C395.244,267.849,372.821,290.271,345.252,290.271z M345.252,192.891
		c-26.117,0-47.385,21.26-47.385,47.399c0,26.124,21.268,47.383,47.385,47.383c26.139,0,47.398-21.259,47.398-47.383
		C392.65,214.15,371.391,192.891,345.252,192.891z"/>
</g>
<g>
	<path fill="#FFFFFF" d="M267.334,231.517c0,1.783-1.464,3.246-3.254,3.246h-16.233c-1.781,0-3.238-1.463-3.238-3.246l0,0
		c0-1.783,1.46-3.241,3.238-3.241h16.233C265.87,228.275,267.334,229.73,267.334,231.517L267.334,231.517z"/>
	<path fill="#FFFFFF" d="M267.334,249.047c0,1.783-1.464,3.242-3.254,3.242h-16.233c-1.781,0-3.238-1.458-3.238-3.242l0,0
		c0-1.782,1.46-3.246,3.238-3.246h16.233C265.87,245.801,267.334,247.265,267.334,249.047L267.334,249.047z"/>
</g>
<path fill="#283A4D" d="M247.846,201.329h16.233v-11.688c0-1.155-0.441-2.326-1.325-3.213c-0.879-0.884-2.051-1.33-3.213-1.33
	h-7.135c-1.174,0-2.336,0.447-3.223,1.33c-0.89,0.887-1.333,2.059-1.333,3.213v11.688H247.846z"/>
<path fill="#34495E" d="M257.804,133.927c-0.508-0.509-1.171-0.768-1.839-0.768c-0.662,0-1.323,0.259-1.833,0.768
	c-0.511,0.508-0.759,1.17-0.759,1.838v49.336h5.192v-49.336C258.566,135.097,258.316,134.435,257.804,133.927z"/>
</svg>
