<?xml version="1.0" encoding="utf-8"?>
<!-- Generator: Adobe Illustrator 16.0.0, SVG Export Plug-In . SVG Version: 6.00 Build 0)  -->
<!DOCTYPE svg PUBLIC "-//W3C//DTD SVG 1.1//EN" "http://www.w3.org/Graphics/SVG/1.1/DTD/svg11.dtd">
<svg version="1.1"
	 id="svg2" xmlns:dc="http://purl.org/dc/elements/1.1/" xmlns:cc="http://creativecommons.org/ns#" xmlns:rdf="http://www.w3.org/1999/02/22-rdf-syntax-ns#" xmlns:svg="http://www.w3.org/2000/svg" xmlns:sodipodi="http://sodipodi.sourceforge.net/DTD/sodipodi-0.dtd" xmlns:inkscape="http://www.inkscape.org/namespaces/inkscape" sodipodi:docname="gnome t.svg" inkscape:version="0.91 r13725" inkscape:export-ydpi="50" inkscape:export-xdpi="50" inkscape:export-filename="/home/cecilia/corebird-new.png"
	 xmlns="http://www.w3.org/2000/svg" xmlns:xlink="http://www.w3.org/1999/xlink" x="0px" y="0px" width="512px" height="512px"
	 viewBox="0 0 512 512" enable-background="new 0 0 512 512" xml:space="preserve">
<sodipodi:namedview  units="px" inkscape:cy="134.2227" inkscape:cx="265.53711" inkscape:zoom="0.26987068" showgrid="false" bordercolor="#666666" pagecolor="#ffffff" borderopacity="1.0" id="base" inkscape:document-units="px" inkscape:current-layer="layer1" inkscape:window-maximized="1" inkscape:window-y="25" inkscape:window-x="0" inkscape:window-height="721" inkscape:window-width="1360" inkscape:pageshadow="2" inkscape:pageopacity="0.0" showguides="false">
	</sodipodi:namedview>
<ellipse fill="#C1D354" cx="256.365" cy="257.25" rx="256.365" ry="256.479"/>
<path fill="#9DB138" d="M511.521,281.982L353.118,123.541c-0.354-0.446-0.797-0.89-1.277-1.284
	c-1.689-1.417-3.779-2.221-6.119-2.221h-1.332c-5.315,0-9.62,4.346-9.62,9.626v25.583c-9.139,2.853-16.546,9.477-20.603,18.015
	l-49.652-49.681c0,0-0.043,0-0.043-0.043l-1.288-1.282c-0.045,0-0.045-0.047-0.045-0.047c-1.685-1.373-3.809-2.176-6.074-2.176
	h-1.373c-5.275,0-9.621,4.346-9.621,9.626v64.245l-70.209-70.237c-0.043-0.043-0.043-0.087-0.083-0.132l-1.287-1.282
	c-0.092-0.045-0.133-0.092-0.174-0.134c-1.641-1.336-3.68-2.085-5.935-2.085h-1.38c-5.275,0-9.568,4.346-9.568,9.626v82.524
	c-13.918,4.344-24.027,17.339-24.027,32.687c0,15.343,10.107,28.375,24.027,32.722v107.22c0,2.175,0.708,4.174,1.948,5.813
	l1.548,1.599c0.044,0.091,0.141,0.141,0.225,0.183l120.048,120.102C402.99,500.79,499.856,403.843,511.521,281.982z"/>
<path fill="#FFFFFF" d="M177.973,384.83c0,5.291-4.32,9.614-9.601,9.614h-1.372c-5.289,0-9.594-4.323-9.594-9.614V129.659
	c0-5.281,4.304-9.604,9.594-9.604h1.372c5.281,0,9.601,4.324,9.601,9.604V384.83z"/>
<ellipse fill="#FF8E31" cx="167.688" cy="244.912" rx="34.285" ry="34.299"/>
<path fill="#34495E" d="M167.682,258.627c-7.575,0-13.707-6.159-13.707-13.725c0-7.57,6.133-13.721,13.707-13.721
	c7.567,0,13.716,6.147,13.716,13.721C181.398,252.468,175.25,258.627,167.682,258.627z"/>
<path fill="#FFFFFF" d="M266.655,384.83c0,5.291-4.329,9.614-9.614,9.614h-1.354c-5.282,0-9.61-4.323-9.61-9.614V129.659
	c0-5.281,4.328-9.604,9.61-9.604h1.354c5.289,0,9.614,4.324,9.614,9.604V384.83z"/>
<path fill="#FF8E31" d="M290.645,332.7c0,18.942-15.348,34.303-34.28,34.303c-18.925,0-34.286-15.36-34.286-34.303
	c0-18.934,15.362-34.302,34.286-34.302C275.297,298.396,290.645,313.767,290.645,332.7z"/>
<path fill="#34495E" d="M256.365,346.428c-7.56,0-13.715-6.163-13.715-13.73c0-7.556,6.153-13.707,13.715-13.707
	c7.569,0,13.708,6.148,13.708,13.707C270.073,340.263,263.934,346.428,256.365,346.428z"/>
<path fill="#FFFFFF" d="M355.329,384.83c0,5.291-4.328,9.614-9.6,9.614h-1.37c-5.283,0-9.602-4.323-9.602-9.614V129.659
	c0-5.281,4.32-9.604,9.602-9.604h1.37c5.273,0,9.6,4.324,9.6,9.604V384.83z"/>
<path fill="#FF8E31" d="M379.325,187.972c0,18.939-15.352,34.296-34.286,34.296c-18.927,0-34.279-15.355-34.279-34.296
	c0-18.948,15.351-34.298,34.279-34.298C363.974,153.674,379.325,169.023,379.325,187.972z"/>
<path fill="#34495E" d="M345.039,201.686c-7.553,0-13.717-6.155-13.717-13.714c0-7.57,6.16-13.716,13.717-13.716
	c7.566,0,13.725,6.146,13.725,13.716C358.76,195.531,352.605,201.686,345.039,201.686z"/>
</svg>
