<?xml version="1.0" encoding="utf-8"?>
<!-- Generator: Adobe Illustrator 16.0.0, SVG Export Plug-In . SVG Version: 6.00 Build 0)  -->
<!DOCTYPE svg PUBLIC "-//W3C//DTD SVG 1.1//EN" "http://www.w3.org/Graphics/SVG/1.1/DTD/svg11.dtd">
<svg version="1.1"
	 id="svg2" xmlns:dc="http://purl.org/dc/elements/1.1/" xmlns:cc="http://creativecommons.org/ns#" xmlns:rdf="http://www.w3.org/1999/02/22-rdf-syntax-ns#" xmlns:svg="http://www.w3.org/2000/svg" xmlns:sodipodi="http://sodipodi.sourceforge.net/DTD/sodipodi-0.dtd" xmlns:inkscape="http://www.inkscape.org/namespaces/inkscape" sodipodi:docname="gnome-music.svg" inkscape:version="0.91 r13725"
	 xmlns="http://www.w3.org/2000/svg" xmlns:xlink="http://www.w3.org/1999/xlink" x="0px" y="0px" width="512px" height="512px"
	 viewBox="0 0 512 512" enable-background="new 0 0 512 512" xml:space="preserve">
<filter  height="1.0735901" width="1.0752211" x="-0.037610565" y="-0.036795063" id="filter5079" inkscape:collect="always" style="color-interpolation-filters:sRGB">
	<feGaussianBlur  id="feGaussianBlur5081" inkscape:collect="always" stdDeviation="2.9760644"></feGaussianBlur>
</filter>
<defs>
	
	<inkscape:path-effect  id="path-effect4181-3" is_visible="true" effect="spiro"></inkscape:path-effect>
	<inkscape:path-effect  id="path-effect4147-7" is_visible="true" effect="spiro"></inkscape:path-effect>
	<inkscape:path-effect  id="path-effect4085-4" is_visible="true" effect="spiro"></inkscape:path-effect>
	<inkscape:path-effect  id="path-effect3960-4" is_visible="true" effect="spiro"></inkscape:path-effect>
	<inkscape:path-effect  id="path-effect3938-5" is_visible="true" effect="spiro"></inkscape:path-effect>
	<inkscape:path-effect  id="path-effect3889-3" is_visible="true" effect="spiro"></inkscape:path-effect>
	<inkscape:path-effect  id="path-effect3855-4" is_visible="true" effect="spiro"></inkscape:path-effect>
	<inkscape:path-effect  id="path-effect3829-8" is_visible="true" effect="spiro"></inkscape:path-effect>
	<inkscape:path-effect  id="path-effect3829" is_visible="true" effect="spiro"></inkscape:path-effect>
	<inkscape:path-effect  id="path-effect3855" is_visible="true" effect="spiro"></inkscape:path-effect>
	<inkscape:path-effect  id="path-effect3889" is_visible="true" effect="spiro"></inkscape:path-effect>
	<inkscape:path-effect  id="path-effect3938" is_visible="true" effect="spiro"></inkscape:path-effect>
	<inkscape:path-effect  id="path-effect3960" is_visible="true" effect="spiro"></inkscape:path-effect>
	<inkscape:path-effect  id="path-effect4085" is_visible="true" effect="spiro"></inkscape:path-effect>
	<inkscape:path-effect  id="path-effect4147" is_visible="true" effect="spiro"></inkscape:path-effect>
	<inkscape:path-effect  id="path-effect4181" is_visible="true" effect="spiro"></inkscape:path-effect>
	<inkscape:path-effect  id="path-effect4181-3-5" is_visible="true" effect="spiro"></inkscape:path-effect>
	<inkscape:path-effect  id="path-effect4147-7-1" is_visible="true" effect="spiro"></inkscape:path-effect>
	<inkscape:path-effect  id="path-effect4085-4-0" is_visible="true" effect="spiro"></inkscape:path-effect>
	<inkscape:path-effect  id="path-effect3960-4-3" is_visible="true" effect="spiro"></inkscape:path-effect>
	<inkscape:path-effect  id="path-effect3938-5-7" is_visible="true" effect="spiro"></inkscape:path-effect>
	<inkscape:path-effect  id="path-effect3889-3-1" is_visible="true" effect="spiro"></inkscape:path-effect>
	<inkscape:path-effect  id="path-effect3855-4-1" is_visible="true" effect="spiro"></inkscape:path-effect>
	<inkscape:path-effect  id="path-effect3829-8-1" is_visible="true" effect="spiro"></inkscape:path-effect>
	<inkscape:path-effect  id="path-effect3829-9" is_visible="true" effect="spiro"></inkscape:path-effect>
	<inkscape:path-effect  id="path-effect3855-7" is_visible="true" effect="spiro"></inkscape:path-effect>
	<inkscape:path-effect  id="path-effect3889-31" is_visible="true" effect="spiro"></inkscape:path-effect>
	<inkscape:path-effect  id="path-effect3938-52" is_visible="true" effect="spiro"></inkscape:path-effect>
	<inkscape:path-effect  id="path-effect3960-2" is_visible="true" effect="spiro"></inkscape:path-effect>
	<inkscape:path-effect  id="path-effect4085-0" is_visible="true" effect="spiro"></inkscape:path-effect>
	<inkscape:path-effect  id="path-effect4147-0" is_visible="true" effect="spiro"></inkscape:path-effect>
	<inkscape:path-effect  id="path-effect4181-32" is_visible="true" effect="spiro"></inkscape:path-effect>
	<inkscape:path-effect  id="path-effect3829-4" is_visible="true" effect="spiro"></inkscape:path-effect>
	<inkscape:path-effect  id="path-effect3855-43" is_visible="true" effect="spiro"></inkscape:path-effect>
	<inkscape:path-effect  id="path-effect3889-0" is_visible="true" effect="spiro"></inkscape:path-effect>
	<inkscape:path-effect  id="path-effect3938-8" is_visible="true" effect="spiro"></inkscape:path-effect>
	<inkscape:path-effect  id="path-effect3960-7" is_visible="true" effect="spiro"></inkscape:path-effect>
	<inkscape:path-effect  id="path-effect4085-6" is_visible="true" effect="spiro"></inkscape:path-effect>
	<inkscape:path-effect  id="path-effect4147-6" is_visible="true" effect="spiro"></inkscape:path-effect>
	<inkscape:path-effect  id="path-effect4181-6" is_visible="true" effect="spiro"></inkscape:path-effect>
	<inkscape:path-effect  id="path-effect4181-4" is_visible="true" effect="spiro"></inkscape:path-effect>
	<inkscape:path-effect  id="path-effect4147-78" is_visible="true" effect="spiro"></inkscape:path-effect>
	<inkscape:path-effect  id="path-effect4085-7" is_visible="true" effect="spiro"></inkscape:path-effect>
	<inkscape:path-effect  id="path-effect3960-3" is_visible="true" effect="spiro"></inkscape:path-effect>
	<inkscape:path-effect  id="path-effect3938-6" is_visible="true" effect="spiro"></inkscape:path-effect>
	<inkscape:path-effect  id="path-effect3889-2" is_visible="true" effect="spiro"></inkscape:path-effect>
	<inkscape:path-effect  id="path-effect3855-46" is_visible="true" effect="spiro"></inkscape:path-effect>
	<inkscape:path-effect  id="path-effect3829-89" is_visible="true" effect="spiro"></inkscape:path-effect>
	<inkscape:path-effect  id="path-effect4181-8" is_visible="true" effect="spiro"></inkscape:path-effect>
	<inkscape:path-effect  id="path-effect4147-9" is_visible="true" effect="spiro"></inkscape:path-effect>
	<inkscape:path-effect  id="path-effect4085-65" is_visible="true" effect="spiro"></inkscape:path-effect>
	<inkscape:path-effect  id="path-effect3960-21" is_visible="true" effect="spiro"></inkscape:path-effect>
	<inkscape:path-effect  id="path-effect3938-0" is_visible="true" effect="spiro"></inkscape:path-effect>
	<inkscape:path-effect  id="path-effect3889-4" is_visible="true" effect="spiro"></inkscape:path-effect>
	<inkscape:path-effect  id="path-effect3855-6" is_visible="true" effect="spiro"></inkscape:path-effect>
	<inkscape:path-effect  id="path-effect3829-47" is_visible="true" effect="spiro"></inkscape:path-effect>
	<inkscape:path-effect  id="path-effect3829-5" is_visible="true" effect="spiro"></inkscape:path-effect>
	<inkscape:path-effect  id="path-effect3855-0" is_visible="true" effect="spiro"></inkscape:path-effect>
	<inkscape:path-effect  id="path-effect3889-40" is_visible="true" effect="spiro"></inkscape:path-effect>
	<inkscape:path-effect  id="path-effect3938-58" is_visible="true" effect="spiro"></inkscape:path-effect>
	<inkscape:path-effect  id="path-effect3960-9" is_visible="true" effect="spiro"></inkscape:path-effect>
	<inkscape:path-effect  id="path-effect4085-5" is_visible="true" effect="spiro"></inkscape:path-effect>
	<inkscape:path-effect  id="path-effect4147-5" is_visible="true" effect="spiro"></inkscape:path-effect>
	<inkscape:path-effect  id="path-effect4181-86" is_visible="true" effect="spiro"></inkscape:path-effect>
	
		<inkscape:perspective  id="perspective3810" inkscape:vp_z="23.999999 : 12 : 1" inkscape:vp_x="0 : 12 : 1" inkscape:vp_y="0 : 999.99996 : 0" sodipodi:type="inkscape:persp3d" inkscape:persp3d-origin="12 : 7.9999997 : 1">
		</inkscape:perspective>
	<inkscape:path-effect  id="path-effect4181-3-50" is_visible="true" effect="spiro"></inkscape:path-effect>
	<inkscape:path-effect  id="path-effect4147-7-3" is_visible="true" effect="spiro"></inkscape:path-effect>
	<inkscape:path-effect  id="path-effect4085-4-6" is_visible="true" effect="spiro"></inkscape:path-effect>
	<inkscape:path-effect  id="path-effect3960-4-8" is_visible="true" effect="spiro"></inkscape:path-effect>
	<inkscape:path-effect  id="path-effect3938-5-0" is_visible="true" effect="spiro"></inkscape:path-effect>
	<inkscape:path-effect  id="path-effect3889-3-9" is_visible="true" effect="spiro"></inkscape:path-effect>
	<inkscape:path-effect  id="path-effect3855-4-3" is_visible="true" effect="spiro"></inkscape:path-effect>
	<inkscape:path-effect  id="path-effect3829-8-4" is_visible="true" effect="spiro"></inkscape:path-effect>
	<inkscape:path-effect  id="path-effect3829-3" is_visible="true" effect="spiro"></inkscape:path-effect>
	<inkscape:path-effect  id="path-effect3855-9" is_visible="true" effect="spiro"></inkscape:path-effect>
	<inkscape:path-effect  id="path-effect3889-8" is_visible="true" effect="spiro"></inkscape:path-effect>
	<inkscape:path-effect  id="path-effect3938-7" is_visible="true" effect="spiro"></inkscape:path-effect>
	<inkscape:path-effect  id="path-effect3960-94" is_visible="true" effect="spiro"></inkscape:path-effect>
	<inkscape:path-effect  id="path-effect4085-78" is_visible="true" effect="spiro"></inkscape:path-effect>
	<inkscape:path-effect  id="path-effect4147-91" is_visible="true" effect="spiro"></inkscape:path-effect>
	<inkscape:path-effect  id="path-effect4181-2" is_visible="true" effect="spiro"></inkscape:path-effect>
	<inkscape:path-effect  id="path-effect4181-3-5-5" is_visible="true" effect="spiro"></inkscape:path-effect>
	<inkscape:path-effect  id="path-effect4147-7-1-6" is_visible="true" effect="spiro"></inkscape:path-effect>
	<inkscape:path-effect  id="path-effect4085-4-0-1" is_visible="true" effect="spiro"></inkscape:path-effect>
	<inkscape:path-effect  id="path-effect3960-4-3-2" is_visible="true" effect="spiro"></inkscape:path-effect>
	<inkscape:path-effect  id="path-effect3938-5-7-7" is_visible="true" effect="spiro"></inkscape:path-effect>
	<inkscape:path-effect  id="path-effect3889-3-1-8" is_visible="true" effect="spiro"></inkscape:path-effect>
	<inkscape:path-effect  id="path-effect3855-4-1-8" is_visible="true" effect="spiro"></inkscape:path-effect>
	<inkscape:path-effect  id="path-effect3829-8-1-4" is_visible="true" effect="spiro"></inkscape:path-effect>
	<inkscape:path-effect  id="path-effect3829-9-8" is_visible="true" effect="spiro"></inkscape:path-effect>
	<inkscape:path-effect  id="path-effect3855-7-8" is_visible="true" effect="spiro"></inkscape:path-effect>
	<inkscape:path-effect  id="path-effect3889-31-3" is_visible="true" effect="spiro"></inkscape:path-effect>
	<inkscape:path-effect  id="path-effect3938-52-4" is_visible="true" effect="spiro"></inkscape:path-effect>
	<inkscape:path-effect  id="path-effect3960-2-8" is_visible="true" effect="spiro"></inkscape:path-effect>
	<inkscape:path-effect  id="path-effect4085-0-3" is_visible="true" effect="spiro"></inkscape:path-effect>
	<inkscape:path-effect  id="path-effect4147-0-7" is_visible="true" effect="spiro"></inkscape:path-effect>
	<inkscape:path-effect  id="path-effect4181-32-9" is_visible="true" effect="spiro"></inkscape:path-effect>
	<inkscape:path-effect  id="path-effect3829-4-2" is_visible="true" effect="spiro"></inkscape:path-effect>
	<inkscape:path-effect  id="path-effect3855-43-0" is_visible="true" effect="spiro"></inkscape:path-effect>
	<inkscape:path-effect  id="path-effect3889-0-4" is_visible="true" effect="spiro"></inkscape:path-effect>
	<inkscape:path-effect  id="path-effect3938-8-9" is_visible="true" effect="spiro"></inkscape:path-effect>
	<inkscape:path-effect  id="path-effect3960-7-4" is_visible="true" effect="spiro"></inkscape:path-effect>
	<inkscape:path-effect  id="path-effect4085-6-1" is_visible="true" effect="spiro"></inkscape:path-effect>
	<inkscape:path-effect  id="path-effect4147-6-7" is_visible="true" effect="spiro"></inkscape:path-effect>
	<inkscape:path-effect  id="path-effect4181-6-7" is_visible="true" effect="spiro"></inkscape:path-effect>
	<inkscape:path-effect  id="path-effect4181-4-4" is_visible="true" effect="spiro"></inkscape:path-effect>
	<inkscape:path-effect  id="path-effect4147-78-6" is_visible="true" effect="spiro"></inkscape:path-effect>
	<inkscape:path-effect  id="path-effect4085-7-1" is_visible="true" effect="spiro"></inkscape:path-effect>
	<inkscape:path-effect  id="path-effect3960-3-0" is_visible="true" effect="spiro"></inkscape:path-effect>
	<inkscape:path-effect  id="path-effect3938-6-1" is_visible="true" effect="spiro"></inkscape:path-effect>
	<inkscape:path-effect  id="path-effect3889-2-7" is_visible="true" effect="spiro"></inkscape:path-effect>
	<inkscape:path-effect  id="path-effect3855-46-8" is_visible="true" effect="spiro"></inkscape:path-effect>
	<inkscape:path-effect  id="path-effect3829-89-0" is_visible="true" effect="spiro"></inkscape:path-effect>
	<inkscape:path-effect  id="path-effect4181-8-8" is_visible="true" effect="spiro"></inkscape:path-effect>
	<inkscape:path-effect  id="path-effect4147-9-1" is_visible="true" effect="spiro"></inkscape:path-effect>
	<inkscape:path-effect  id="path-effect4085-65-7" is_visible="true" effect="spiro"></inkscape:path-effect>
	<inkscape:path-effect  id="path-effect3960-21-8" is_visible="true" effect="spiro"></inkscape:path-effect>
	<inkscape:path-effect  id="path-effect3938-0-3" is_visible="true" effect="spiro"></inkscape:path-effect>
	<inkscape:path-effect  id="path-effect3889-4-2" is_visible="true" effect="spiro"></inkscape:path-effect>
	<inkscape:path-effect  id="path-effect3855-6-8" is_visible="true" effect="spiro"></inkscape:path-effect>
	<inkscape:path-effect  id="path-effect3829-47-2" is_visible="true" effect="spiro"></inkscape:path-effect>
	<inkscape:path-effect  id="path-effect3829-5-9" is_visible="true" effect="spiro"></inkscape:path-effect>
	<inkscape:path-effect  id="path-effect3855-0-8" is_visible="true" effect="spiro"></inkscape:path-effect>
	<inkscape:path-effect  id="path-effect3889-40-1" is_visible="true" effect="spiro"></inkscape:path-effect>
	<inkscape:path-effect  id="path-effect3938-58-0" is_visible="true" effect="spiro"></inkscape:path-effect>
	<inkscape:path-effect  id="path-effect3960-9-9" is_visible="true" effect="spiro"></inkscape:path-effect>
	<inkscape:path-effect  id="path-effect4085-5-6" is_visible="true" effect="spiro"></inkscape:path-effect>
	<inkscape:path-effect  id="path-effect4147-5-8" is_visible="true" effect="spiro"></inkscape:path-effect>
	<inkscape:path-effect  id="path-effect4181-86-8" is_visible="true" effect="spiro"></inkscape:path-effect>
	
		<inkscape:perspective  id="perspective3810-0" inkscape:vp_z="23.999999 : 12 : 1" inkscape:vp_x="0 : 12 : 1" inkscape:vp_y="0 : 999.99996 : 0" sodipodi:type="inkscape:persp3d" inkscape:persp3d-origin="12 : 7.9999997 : 1">
		</inkscape:perspective>
	<inkscape:path-effect  id="path-effect4181-3-6" is_visible="true" effect="spiro"></inkscape:path-effect>
	<inkscape:path-effect  id="path-effect4147-7-2" is_visible="true" effect="spiro"></inkscape:path-effect>
	<inkscape:path-effect  id="path-effect4085-4-9" is_visible="true" effect="spiro"></inkscape:path-effect>
	<inkscape:path-effect  id="path-effect3960-4-7" is_visible="true" effect="spiro"></inkscape:path-effect>
	<inkscape:path-effect  id="path-effect3938-5-09" is_visible="true" effect="spiro"></inkscape:path-effect>
	<inkscape:path-effect  id="path-effect3889-3-3" is_visible="true" effect="spiro"></inkscape:path-effect>
	<inkscape:path-effect  id="path-effect3855-4-6" is_visible="true" effect="spiro"></inkscape:path-effect>
	<inkscape:path-effect  id="path-effect3829-8-0" is_visible="true" effect="spiro"></inkscape:path-effect>
	<inkscape:path-effect  id="path-effect3829-36" is_visible="true" effect="spiro"></inkscape:path-effect>
	<inkscape:path-effect  id="path-effect3855-1" is_visible="true" effect="spiro"></inkscape:path-effect>
	<inkscape:path-effect  id="path-effect3889-29" is_visible="true" effect="spiro"></inkscape:path-effect>
	<inkscape:path-effect  id="path-effect3938-3" is_visible="true" effect="spiro"></inkscape:path-effect>
	<inkscape:path-effect  id="path-effect3960-1" is_visible="true" effect="spiro"></inkscape:path-effect>
	<inkscape:path-effect  id="path-effect4085-9" is_visible="true" effect="spiro"></inkscape:path-effect>
	<inkscape:path-effect  id="path-effect4147-4" is_visible="true" effect="spiro"></inkscape:path-effect>
	<inkscape:path-effect  id="path-effect4181-7" is_visible="true" effect="spiro"></inkscape:path-effect>
	<inkscape:path-effect  id="path-effect4181-3-5-8" is_visible="true" effect="spiro"></inkscape:path-effect>
	<inkscape:path-effect  id="path-effect4147-7-1-4" is_visible="true" effect="spiro"></inkscape:path-effect>
	<inkscape:path-effect  id="path-effect4085-4-0-5" is_visible="true" effect="spiro"></inkscape:path-effect>
	<inkscape:path-effect  id="path-effect3960-4-3-0" is_visible="true" effect="spiro"></inkscape:path-effect>
	<inkscape:path-effect  id="path-effect3938-5-7-3" is_visible="true" effect="spiro"></inkscape:path-effect>
	<inkscape:path-effect  id="path-effect3889-3-1-6" is_visible="true" effect="spiro"></inkscape:path-effect>
	<inkscape:path-effect  id="path-effect3855-4-1-1" is_visible="true" effect="spiro"></inkscape:path-effect>
	<inkscape:path-effect  id="path-effect3829-8-1-0" is_visible="true" effect="spiro"></inkscape:path-effect>
	<inkscape:path-effect  id="path-effect3829-9-9" is_visible="true" effect="spiro"></inkscape:path-effect>
	<inkscape:path-effect  id="path-effect3855-7-3" is_visible="true" effect="spiro"></inkscape:path-effect>
	<inkscape:path-effect  id="path-effect3889-31-7" is_visible="true" effect="spiro"></inkscape:path-effect>
	<inkscape:path-effect  id="path-effect3938-52-45" is_visible="true" effect="spiro"></inkscape:path-effect>
	<inkscape:path-effect  id="path-effect3960-2-2" is_visible="true" effect="spiro"></inkscape:path-effect>
	<inkscape:path-effect  id="path-effect4085-0-5" is_visible="true" effect="spiro"></inkscape:path-effect>
	<inkscape:path-effect  id="path-effect4147-0-4" is_visible="true" effect="spiro"></inkscape:path-effect>
	<inkscape:path-effect  id="path-effect4181-32-7" is_visible="true" effect="spiro"></inkscape:path-effect>
	<inkscape:path-effect  id="path-effect3829-4-8" is_visible="true" effect="spiro"></inkscape:path-effect>
	<inkscape:path-effect  id="path-effect3855-43-8" is_visible="true" effect="spiro"></inkscape:path-effect>
	<inkscape:path-effect  id="path-effect3889-0-43" is_visible="true" effect="spiro"></inkscape:path-effect>
	<inkscape:path-effect  id="path-effect3938-8-1" is_visible="true" effect="spiro"></inkscape:path-effect>
	<inkscape:path-effect  id="path-effect3960-7-49" is_visible="true" effect="spiro"></inkscape:path-effect>
	<inkscape:path-effect  id="path-effect4085-6-2" is_visible="true" effect="spiro"></inkscape:path-effect>
	<inkscape:path-effect  id="path-effect4147-6-0" is_visible="true" effect="spiro"></inkscape:path-effect>
	<inkscape:path-effect  id="path-effect4181-6-6" is_visible="true" effect="spiro"></inkscape:path-effect>
	<inkscape:path-effect  id="path-effect4181-4-8" is_visible="true" effect="spiro"></inkscape:path-effect>
	<inkscape:path-effect  id="path-effect4147-78-9" is_visible="true" effect="spiro"></inkscape:path-effect>
	<inkscape:path-effect  id="path-effect4085-7-2" is_visible="true" effect="spiro"></inkscape:path-effect>
	<inkscape:path-effect  id="path-effect3960-3-6" is_visible="true" effect="spiro"></inkscape:path-effect>
	<inkscape:path-effect  id="path-effect3938-6-6" is_visible="true" effect="spiro"></inkscape:path-effect>
	<inkscape:path-effect  id="path-effect3889-2-4" is_visible="true" effect="spiro"></inkscape:path-effect>
	<inkscape:path-effect  id="path-effect3855-46-9" is_visible="true" effect="spiro"></inkscape:path-effect>
	<inkscape:path-effect  id="path-effect3829-89-5" is_visible="true" effect="spiro"></inkscape:path-effect>
	<inkscape:path-effect  id="path-effect4181-8-2" is_visible="true" effect="spiro"></inkscape:path-effect>
	<inkscape:path-effect  id="path-effect4147-9-7" is_visible="true" effect="spiro"></inkscape:path-effect>
	<inkscape:path-effect  id="path-effect4085-65-2" is_visible="true" effect="spiro"></inkscape:path-effect>
	<inkscape:path-effect  id="path-effect3960-21-2" is_visible="true" effect="spiro"></inkscape:path-effect>
	<inkscape:path-effect  id="path-effect3938-0-6" is_visible="true" effect="spiro"></inkscape:path-effect>
	<inkscape:path-effect  id="path-effect3889-4-1" is_visible="true" effect="spiro"></inkscape:path-effect>
	<inkscape:path-effect  id="path-effect3855-6-0" is_visible="true" effect="spiro"></inkscape:path-effect>
	<inkscape:path-effect  id="path-effect3829-47-6" is_visible="true" effect="spiro"></inkscape:path-effect>
	<inkscape:path-effect  id="path-effect3829-5-97" is_visible="true" effect="spiro"></inkscape:path-effect>
	<inkscape:path-effect  id="path-effect3855-0-7" is_visible="true" effect="spiro"></inkscape:path-effect>
	<inkscape:path-effect  id="path-effect3889-40-6" is_visible="true" effect="spiro"></inkscape:path-effect>
	<inkscape:path-effect  id="path-effect3938-58-7" is_visible="true" effect="spiro"></inkscape:path-effect>
	<inkscape:path-effect  id="path-effect3960-9-3" is_visible="true" effect="spiro"></inkscape:path-effect>
	<inkscape:path-effect  id="path-effect4085-5-65" is_visible="true" effect="spiro"></inkscape:path-effect>
	<inkscape:path-effect  id="path-effect4147-5-6" is_visible="true" effect="spiro"></inkscape:path-effect>
	<inkscape:path-effect  id="path-effect4181-86-3" is_visible="true" effect="spiro"></inkscape:path-effect>
	
		<inkscape:perspective  id="perspective3810-5" inkscape:vp_z="23.999999 : 12 : 1" inkscape:vp_x="0 : 12 : 1" inkscape:vp_y="0 : 999.99996 : 0" sodipodi:type="inkscape:persp3d" inkscape:persp3d-origin="12 : 7.9999997 : 1">
		</inkscape:perspective>
	<inkscape:path-effect  id="path-effect4181-3-50-1" is_visible="true" effect="spiro"></inkscape:path-effect>
	<inkscape:path-effect  id="path-effect4147-7-3-5" is_visible="true" effect="spiro"></inkscape:path-effect>
	<inkscape:path-effect  id="path-effect4085-4-6-9" is_visible="true" effect="spiro"></inkscape:path-effect>
	<inkscape:path-effect  id="path-effect3960-4-8-8" is_visible="true" effect="spiro"></inkscape:path-effect>
	<inkscape:path-effect  id="path-effect3938-5-0-4" is_visible="true" effect="spiro"></inkscape:path-effect>
	<inkscape:path-effect  id="path-effect3889-3-9-8" is_visible="true" effect="spiro"></inkscape:path-effect>
	<inkscape:path-effect  id="path-effect3855-4-3-1" is_visible="true" effect="spiro"></inkscape:path-effect>
	<inkscape:path-effect  id="path-effect3829-8-4-0" is_visible="true" effect="spiro"></inkscape:path-effect>
	<inkscape:path-effect  id="path-effect3829-3-9" is_visible="true" effect="spiro"></inkscape:path-effect>
	<inkscape:path-effect  id="path-effect3855-9-6" is_visible="true" effect="spiro"></inkscape:path-effect>
	<inkscape:path-effect  id="path-effect3889-8-2" is_visible="true" effect="spiro"></inkscape:path-effect>
	<inkscape:path-effect  id="path-effect3938-7-1" is_visible="true" effect="spiro"></inkscape:path-effect>
	<inkscape:path-effect  id="path-effect3960-94-7" is_visible="true" effect="spiro"></inkscape:path-effect>
	<inkscape:path-effect  id="path-effect4085-78-8" is_visible="true" effect="spiro"></inkscape:path-effect>
	<inkscape:path-effect  id="path-effect4147-91-5" is_visible="true" effect="spiro"></inkscape:path-effect>
	<inkscape:path-effect  id="path-effect4181-2-7" is_visible="true" effect="spiro"></inkscape:path-effect>
	<inkscape:path-effect  id="path-effect4181-3-5-5-4" is_visible="true" effect="spiro"></inkscape:path-effect>
	<inkscape:path-effect  id="path-effect4147-7-1-6-1" is_visible="true" effect="spiro"></inkscape:path-effect>
	<inkscape:path-effect  id="path-effect4085-4-0-1-8" is_visible="true" effect="spiro"></inkscape:path-effect>
	<inkscape:path-effect  id="path-effect3960-4-3-2-5" is_visible="true" effect="spiro"></inkscape:path-effect>
	<inkscape:path-effect  id="path-effect3938-5-7-7-9" is_visible="true" effect="spiro"></inkscape:path-effect>
	<inkscape:path-effect  id="path-effect3889-3-1-8-7" is_visible="true" effect="spiro"></inkscape:path-effect>
	<inkscape:path-effect  id="path-effect3855-4-1-8-5" is_visible="true" effect="spiro"></inkscape:path-effect>
	<inkscape:path-effect  id="path-effect3829-8-1-4-3" is_visible="true" effect="spiro"></inkscape:path-effect>
	<inkscape:path-effect  id="path-effect3829-9-8-6" is_visible="true" effect="spiro"></inkscape:path-effect>
	<inkscape:path-effect  id="path-effect3855-7-8-0" is_visible="true" effect="spiro"></inkscape:path-effect>
	<inkscape:path-effect  id="path-effect3889-31-3-4" is_visible="true" effect="spiro"></inkscape:path-effect>
	<inkscape:path-effect  id="path-effect3938-52-4-8" is_visible="true" effect="spiro"></inkscape:path-effect>
	<inkscape:path-effect  id="path-effect3960-2-8-8" is_visible="true" effect="spiro"></inkscape:path-effect>
	<inkscape:path-effect  id="path-effect4085-0-3-8" is_visible="true" effect="spiro"></inkscape:path-effect>
	<inkscape:path-effect  id="path-effect4147-0-7-9" is_visible="true" effect="spiro"></inkscape:path-effect>
	<inkscape:path-effect  id="path-effect4181-32-9-7" is_visible="true" effect="spiro"></inkscape:path-effect>
	<inkscape:path-effect  id="path-effect3829-4-2-0" is_visible="true" effect="spiro"></inkscape:path-effect>
	<inkscape:path-effect  id="path-effect3855-43-0-9" is_visible="true" effect="spiro"></inkscape:path-effect>
	<inkscape:path-effect  id="path-effect3889-0-4-2" is_visible="true" effect="spiro"></inkscape:path-effect>
	<inkscape:path-effect  id="path-effect3938-8-9-5" is_visible="true" effect="spiro"></inkscape:path-effect>
	<inkscape:path-effect  id="path-effect3960-7-4-4" is_visible="true" effect="spiro"></inkscape:path-effect>
	<inkscape:path-effect  id="path-effect4085-6-1-0" is_visible="true" effect="spiro"></inkscape:path-effect>
	<inkscape:path-effect  id="path-effect4147-6-7-5" is_visible="true" effect="spiro"></inkscape:path-effect>
	<inkscape:path-effect  id="path-effect4181-6-7-9" is_visible="true" effect="spiro"></inkscape:path-effect>
	<inkscape:path-effect  id="path-effect4181-4-4-4" is_visible="true" effect="spiro"></inkscape:path-effect>
	<inkscape:path-effect  id="path-effect4147-78-6-6" is_visible="true" effect="spiro"></inkscape:path-effect>
	<inkscape:path-effect  id="path-effect4085-7-1-9" is_visible="true" effect="spiro"></inkscape:path-effect>
	<inkscape:path-effect  id="path-effect3960-3-0-2" is_visible="true" effect="spiro"></inkscape:path-effect>
	<inkscape:path-effect  id="path-effect3938-6-1-2" is_visible="true" effect="spiro"></inkscape:path-effect>
	<inkscape:path-effect  id="path-effect3889-2-7-4" is_visible="true" effect="spiro"></inkscape:path-effect>
	<inkscape:path-effect  id="path-effect3855-46-8-7" is_visible="true" effect="spiro"></inkscape:path-effect>
	<inkscape:path-effect  id="path-effect3829-89-0-7" is_visible="true" effect="spiro"></inkscape:path-effect>
	<inkscape:path-effect  id="path-effect4181-8-8-9" is_visible="true" effect="spiro"></inkscape:path-effect>
	<inkscape:path-effect  id="path-effect4147-9-1-3" is_visible="true" effect="spiro"></inkscape:path-effect>
	<inkscape:path-effect  id="path-effect4085-65-7-6" is_visible="true" effect="spiro"></inkscape:path-effect>
	<inkscape:path-effect  id="path-effect3960-21-8-8" is_visible="true" effect="spiro"></inkscape:path-effect>
	<inkscape:path-effect  id="path-effect3938-0-3-0" is_visible="true" effect="spiro"></inkscape:path-effect>
	<inkscape:path-effect  id="path-effect3889-4-2-2" is_visible="true" effect="spiro"></inkscape:path-effect>
	<inkscape:path-effect  id="path-effect3855-6-8-1" is_visible="true" effect="spiro"></inkscape:path-effect>
	<inkscape:path-effect  id="path-effect3829-47-2-0" is_visible="true" effect="spiro"></inkscape:path-effect>
	<inkscape:path-effect  id="path-effect3829-5-9-8" is_visible="true" effect="spiro"></inkscape:path-effect>
	<inkscape:path-effect  id="path-effect3855-0-8-6" is_visible="true" effect="spiro"></inkscape:path-effect>
	<inkscape:path-effect  id="path-effect3889-40-1-2" is_visible="true" effect="spiro"></inkscape:path-effect>
	<inkscape:path-effect  id="path-effect3938-58-0-8" is_visible="true" effect="spiro"></inkscape:path-effect>
	<inkscape:path-effect  id="path-effect3960-9-9-4" is_visible="true" effect="spiro"></inkscape:path-effect>
	<inkscape:path-effect  id="path-effect4085-5-6-7" is_visible="true" effect="spiro"></inkscape:path-effect>
	<inkscape:path-effect  id="path-effect4147-5-8-2" is_visible="true" effect="spiro"></inkscape:path-effect>
	<inkscape:path-effect  id="path-effect4181-86-8-4" is_visible="true" effect="spiro"></inkscape:path-effect>
	
		<inkscape:perspective  id="perspective3810-0-0" inkscape:vp_z="23.999999 : 12 : 1" inkscape:vp_x="0 : 12 : 1" inkscape:vp_y="0 : 999.99996 : 0" sodipodi:type="inkscape:persp3d" inkscape:persp3d-origin="12 : 7.9999997 : 1">
		</inkscape:perspective>
</defs>
<sodipodi:namedview  units="px" inkscape:cy="144.18113" inkscape:cx="445.73959" inkscape:zoom="0.35" showgrid="false" bordercolor="#666666" pagecolor="#ffffff" borderopacity="1.0" id="base" inkscape:document-units="px" inkscape:current-layer="layer1" inkscape:window-maximized="1" inkscape:window-y="25" inkscape:window-x="0" inkscape:window-height="719" inkscape:window-width="1360" inkscape:pageshadow="2" inkscape:pageopacity="0.0">
	</sodipodi:namedview>
<path fill="#FF8E31" d="M512,255.316c0,141.002-114.614,255.311-256,255.311c-141.389,0-256-114.309-256-255.311
	C0,114.305,114.611,0,256,0C397.386,0,512,114.305,512,255.316z"/>
<g id="layer1" transform="translate(0,-540.36219)" inkscape:label="Capa 1" inkscape:groupmode="layer">
	<path fill="#ED7425" d="M128.76,916.961l275.666-203.09l106.82,101.545c0,0-14.746,223.7-255.246,235.573"/>
	<path id="rect2985" fill="#05242A" d="M142.436,706.816h247.999c9.611,0,17.401,7.791,17.401,17.401v181.991
		c0,9.609-7.79,17.401-17.401,17.401H142.436c-9.61,0-17.402-7.792-17.402-17.401V724.217
		C125.034,714.607,132.825,706.816,142.436,706.816z"/>
	<path id="path5208" inkscape:connector-curvature="0" sodipodi:nodetypes="ccccccccc" fill="#3E5257" d="M179.848,879.2
		c-1.096,0-2.104,0.529-2.626,1.379l-24.135,39.329c-1.075,1.753,0.366,3.882,2.627,3.882h221.443c2.262,0,3.701-2.129,2.627-3.882
		l-24.135-39.329c-0.523-0.85-1.532-1.379-2.627-1.379H179.848z"/>
	<path id="rect4445" fill="#D6D1AE" d="M185.251,757.817h177.247c9.61,0,17.4,7.792,17.4,17.402v45.409
		c0,9.61-7.79,17.402-17.4,17.402H185.251c-9.611,0-17.402-7.792-17.402-17.402v-45.409
		C167.85,765.608,175.641,757.817,185.251,757.817z"/>
	<path id="rect5266" inkscape:connector-curvature="0" sodipodi:nodetypes="ccsssscccsssssss" fill="#00B584" d="M161.296,725.818
		l-24.739,26.025v93.867c0,14.419,11.033,26.025,24.739,26.025h209.931c13.705,0,24.738-11.607,24.738-26.025v-93.867
		l-24.738-26.025H161.296z M203.108,772.75h139.105c13.705,0,24.739,11.608,24.739,26.026c0,14.418-11.034,26.027-24.739,26.027
		H203.108c-13.705,0-24.738-11.609-24.738-26.027C178.37,784.358,189.403,772.75,203.108,772.75z"/>
	<path id="rect5245" fill="#4D4D4D" fill-opacity="0.4398" d="M203.108,772.75h139.105c13.662,0,24.739,11.652,24.739,26.026l0,0
		c0,14.375-11.077,26.025-24.739,26.025H203.108c-13.663,0-24.739-11.65-24.739-26.025l0,0
		C178.37,784.402,189.445,772.75,203.108,772.75z"/>
	<g>
		<g>
			<defs>
				<path id="SVGID_1_" d="M203.108,772.75h139.106c13.662,0,24.738,11.652,24.738,26.026l0,0c0,14.375-11.076,26.025-24.738,26.025
					H203.108c-13.663,0-24.738-11.65-24.738-26.025l0,0C178.37,784.402,189.445,772.75,203.108,772.75z"/>
			</defs>
			<clipPath id="SVGID_2_">
				<use xlink:href="#SVGID_1_"  overflow="visible"/>
			</clipPath>
			<circle id="path5249" clip-path="url(#SVGID_2_)" fill="#383846" cx="339.008" cy="798.563" r="56.959"/>
		</g>
	</g>
	<g>
		<g>
			<defs>
				<circle id="SVGID_3_" cx="339.893" cy="798.786" r="25.173"/>
			</defs>
			<clipPath id="SVGID_4_">
				<use xlink:href="#SVGID_3_"  overflow="visible"/>
			</clipPath>
			<path id="path5227" inkscape:connector-curvature="0" clip-path="url(#SVGID_4_)" fill="#FFFFFF" d="M339.893,768.276
				c-16.852,0-30.511,13.659-30.512,30.51l0,0c0,16.851,13.66,30.512,30.511,30.512h0.001c16.851,0,30.51-13.661,30.51-30.512l0,0
				C370.402,781.935,356.743,768.276,339.893,768.276z M336.707,780.855v2.01c0,1.23,0.992,2.221,2.223,2.221h1.926
				c1.23,0,2.222-0.992,2.222-2.221v-1.999c2.602,0.46,5.073,1.481,7.241,2.991l-1.419,1.419c-0.871,0.871-0.871,2.272,0,3.143
				l1.361,1.361c0.87,0.871,2.271,0.871,3.142,0l1.409-1.409c1.516,2.163,2.545,4.63,3.012,7.231h-2.01
				c-1.231,0-2.222,0.991-2.222,2.222v1.926c0,1.23,0.99,2.221,2.222,2.221h1.998c-0.459,2.603-1.48,5.074-2.989,7.242l-1.42-1.419
				c-0.436-0.435-1.004-0.653-1.57-0.653c-0.568,0-1.136,0.219-1.571,0.653l-1.361,1.361c-0.871,0.87-0.871,2.272,0,3.143
				l1.409,1.409c-2.164,1.516-4.632,2.544-7.231,3.013v-2.011c0-1.232-0.991-2.223-2.222-2.223h-1.926
				c-1.23,0-2.223,0.99-2.223,2.223v1.999c-2.602-0.46-5.072-1.481-7.24-2.99l1.419-1.42c0.87-0.87,0.87-2.272,0-3.143l-1.36-1.361
				c-0.436-0.435-1.004-0.653-1.572-0.653s-1.135,0.219-1.57,0.653l-1.409,1.409c-1.519-2.163-2.546-4.631-3.014-7.232h2.012
				c1.23,0,2.221-0.99,2.221-2.221v-1.926c0-1.231-0.99-2.222-2.221-2.222h-2c0.462-2.602,1.48-5.073,2.991-7.242l1.42,1.42
				c0.87,0.87,2.271,0.87,3.143,0l1.36-1.362c0.87-0.87,0.87-2.272,0-3.142l-1.41-1.41
				C331.64,782.35,334.107,781.321,336.707,780.855z"/>
		</g>
	</g>
	<g>
		<g>
			<defs>
				<path id="SVGID_5_" d="M203.108,772.75h139.106c13.662,0,24.738,11.652,24.738,26.026l0,0c0,14.375-11.076,26.025-24.738,26.025
					H203.108c-13.663,0-24.738-11.65-24.738-26.025l0,0C178.37,784.402,189.445,772.75,203.108,772.75z"/>
			</defs>
			<clipPath id="SVGID_6_">
				<use xlink:href="#SVGID_5_"  overflow="visible"/>
			</clipPath>
			<circle id="circle5251" clip-path="url(#SVGID_6_)" fill="#383846" cx="206.743" cy="796.856" r="56.959"/>
		</g>
	</g>
	<g>
		<g>
			<defs>
				<circle id="SVGID_7_" cx="205.939" cy="798.786" r="25.173"/>
			</defs>
			<clipPath id="SVGID_8_">
				<use xlink:href="#SVGID_7_"  overflow="visible"/>
			</clipPath>
			<path id="path5247" inkscape:connector-curvature="0" clip-path="url(#SVGID_8_)" fill="#FFFFFF" d="M205.939,768.276
				c-16.85,0-30.51,13.659-30.51,30.51l0,0c0,16.851,13.659,30.512,30.51,30.512l0,0c16.851,0,30.511-13.661,30.511-30.512l0,0
				C236.45,781.935,222.791,768.276,205.939,768.276z M202.756,780.855v2.01c0,1.23,0.99,2.221,2.221,2.221h1.926
				c1.23,0,2.221-0.992,2.221-2.221v-1.999c2.602,0.46,5.073,1.481,7.241,2.991l-1.418,1.419c-0.872,0.871-0.872,2.272,0,3.143
				l1.361,1.361c0.871,0.871,2.271,0.871,3.141,0l1.409-1.409c1.518,2.163,2.544,4.63,3.013,7.231h-2.011
				c-1.23,0-2.221,0.991-2.221,2.222v1.926c0,1.23,0.991,2.221,2.221,2.221h1.999c-0.46,2.603-1.48,5.074-2.991,7.242l-1.419-1.419
				c-0.436-0.435-1.004-0.653-1.57-0.653c-0.568,0-1.135,0.219-1.572,0.653l-1.361,1.361c-0.871,0.87-0.871,2.272,0,3.143
				l1.409,1.409c-2.163,1.516-4.631,2.544-7.231,3.013v-2.011c0-1.232-0.991-2.223-2.221-2.223h-1.926
				c-1.231,0-2.221,0.99-2.221,2.223v1.999c-2.602-0.46-5.073-1.481-7.242-2.99l1.419-1.42c0.87-0.87,0.87-2.272,0-3.143
				l-1.362-1.361c-0.436-0.435-1.003-0.653-1.57-0.653c-0.568,0-1.135,0.219-1.571,0.653l-1.41,1.409
				c-1.516-2.163-2.545-4.631-3.013-7.232h2.012c1.231,0,2.222-0.99,2.222-2.221v-1.926c0-1.231-0.992-2.222-2.222-2.222h-1.999
				c0.459-2.602,1.48-5.073,2.991-7.242l1.419,1.42c0.87,0.87,2.271,0.87,3.141,0l1.362-1.362c0.87-0.87,0.87-2.272,0-3.142
				l-1.41-1.41C197.688,782.35,200.155,781.321,202.756,780.855z"/>
		</g>
	</g>
	<circle id="path4429" fill="#2C2C2C" fill-opacity="0.5183" cx="137.983" cy="721.124" r="7.253"/>
	<circle id="circle4431" fill="#2C2C2C" fill-opacity="0.5183" cx="393.126" cy="721.124" r="7.253"/>
	<circle id="circle4433" fill="#2C2C2C" fill-opacity="0.5183" cx="393.126" cy="909.708" r="7.253"/>
	<circle id="circle4435" fill="#2C2C2C" fill-opacity="0.5183" cx="138.836" cy="909.708" r="7.253"/>
	<circle id="circle4437" fill="#253033" fill-opacity="0.8953" cx="312.914" cy="904.588" r="7.253"/>
	<ellipse id="circle4439" fill="#253033" fill-opacity="0.8953" cx="347.046" cy="913.12" rx="5.548" ry="6.4"/>
	<circle id="circle4441" fill="#253033" fill-opacity="0.8953" cx="214.782" cy="904.588" r="7.253"/>
	<ellipse id="ellipse4443" fill="#253033" fill-opacity="0.8953" cx="180.648" cy="913.12" rx="5.548" ry="6.4"/>
	<g>
		<g>
			<defs>
				<path id="SVGID_9_" d="M-123.807,419.957h254.208c9.974,0,18.058,7.912,18.058,17.673v184.832
					c0,9.76-8.085,17.673-18.058,17.673h-254.208c-9.972,0-18.057-7.913-18.057-17.673V437.63
					C-141.864,427.87-133.779,419.957-123.807,419.957z"/>
			</defs>
			<clipPath id="SVGID_10_">
				<use xlink:href="#SVGID_9_"  overflow="visible"/>
			</clipPath>
			
				<g id="g5055" transform="matrix(1.0265958,0,0,1.0156115,-447.36858,-489.97344)" clip-path="url(#SVGID_10_)" filter="url(#filter5079)">
				<g id="path5057_7_" inkscape:connector-curvature="0">
					<path opacity="0.3979" enable-background="new    " d="M734.397,1302.461l6.741,25.155
						c-7.418,9.814-11.442,21.775-11.467,34.077c-0.001,31.323,25.393,56.717,56.716,56.718c31.325,0,56.719-25.393,56.719-56.718
						l0,0c0-31.325-25.394-56.718-56.719-56.718c-8.085,0.024-16.071,1.777-23.424,5.141L734.397,1302.461z"/>
				</g>
				<g id="g5059_7_" transform="matrix(1.0435012,0,0,1.043505,787.49531,1347.4631)">
					<g id="path5061_7_" inkscape:connector-curvature="0">
						<g opacity="0.3979">
							<path d="M20.993-18.234c-14.695,0-17.452,20.932-9.184,20.932C20.075,2.698,35.689-18.234,20.993-18.234z M-1.712-15.669
								c-0.234-0.001-0.479,0.014-0.737,0.048c-8.271,1.074-5.363,15.456-0.959,15.724C0.856,0.365,5.523-15.644-1.712-15.669
								L-1.712-15.669z M-15.784-9.972c-0.505-0.033-1.068,0.064-1.69,0.321c-6.647,2.744-1.009,14.065,2.714,13.306
								C-11.383,2.965-10.899-9.654-15.784-9.972z M-26.632-1.103c-0.578-0.019-1.203,0.172-1.869,0.631
								c-5.32,3.677,1.789,12.56,4.919,11.181C-20.842,9.503-22.587-0.968-26.632-1.103z M3.753,5.693
								C-7.653,5.5-22.701,11.223-25.268,22.716c-2.779,12.437,11.441,29.69,26.278,29.69c7.3,0,15.719-6.592,17.294-14.941
								C19.507,31.098,4.148,33.65,4.7,37.863c0.661,5.051-3.704,7.543-7.98,4.288c-13.611-10.363,22.537-15.532,20.154-29.69
								C16.132,8.053,10.598,5.809,3.753,5.693z"/>
						</g>
					</g>
				</g>
			</g>
		</g>
	</g>
</g>
</svg>
