<?xml version="1.0" encoding="utf-8"?>
<!-- Generator: Adobe Illustrator 16.0.0, SVG Export Plug-In . SVG Version: 6.00 Build 0)  -->
<!DOCTYPE svg PUBLIC "-//W3C//DTD SVG 1.1//EN" "http://www.w3.org/Graphics/SVG/1.1/DTD/svg11.dtd">
<svg version="1.1"
	 id="svg3613" xmlns:dc="http://purl.org/dc/elements/1.1/" xmlns:cc="http://creativecommons.org/ns#" xmlns:rdf="http://www.w3.org/1999/02/22-rdf-syntax-ns#" xmlns:svg="http://www.w3.org/2000/svg" xmlns:sodipodi="http://sodipodi.sourceforge.net/DTD/sodipodi-0.dtd" xmlns:inkscape="http://www.inkscape.org/namespaces/inkscape" sodipodi:docname="libreoffice-impress.svg" inkscape:version="0.92.2 (5c3e80d, 2017-08-06)"
	 xmlns="http://www.w3.org/2000/svg" xmlns:xlink="http://www.w3.org/1999/xlink" x="0px" y="0px" width="512px" height="512px"
	 viewBox="0 0 512 512" enable-background="new 0 0 512 512" xml:space="preserve">
<sodipodi:namedview  inkscape:cy="143.23816" inkscape:cx="352.01592" inkscape:zoom="0.88737246" showgrid="false" bordercolor="#666666" pagecolor="#ffffff" borderopacity="1.0" id="base" inkscape:document-units="px" inkscape:current-layer="layer1" inkscape:window-maximized="1" inkscape:window-y="25" inkscape:window-x="0" inkscape:window-height="717" inkscape:window-width="1360" inkscape:pageshadow="2" inkscape:pageopacity="0.0" inkscape:guide-bbox="true" fit-margin-left="0" fit-margin-top="0" showguides="true" fit-margin-bottom="0" fit-margin-right="0">
	</sodipodi:namedview>
<path fill="#156634" d="M512,256.003c0,140.274-113.717,253.992-253.997,253.992c-140.283,0-253.997-113.718-253.997-253.992
	C4.006,115.72,117.72,2.005,258.003,2.005C398.283,2.005,512,115.72,512,256.003z"/>
<path fill="#153E1D" d="M389.5,100.5l-268,321l140.955,88.452c0,0,226.846-1.274,249.445-246.863"/>
<g id="layer1" transform="translate(-24,-476.36222)" inkscape:label="Layer 1" inkscape:groupmode="layer">
	<path id="rect5617" inkscape:connector-curvature="0" sodipodi:nodetypes="sssssssss" fill="#D14931" d="M169.155,567.918h225.696
		c16.483,0,29.753,13.27,29.753,29.752v282.614c0,16.484-13.27,29.754-29.753,29.754H169.155c-16.483,0-29.752-13.27-29.752-29.754
		V597.67C139.402,581.187,152.672,567.918,169.155,567.918z"/>
	<path id="rect5621" inkscape:connector-curvature="0" sodipodi:nodetypes="cssscssscc" fill="#FFFFFF" fill-opacity="0.2299" d="
		M424.604,748.687v131.597c0,8.242-3.317,15.681-8.695,21.059c-5.378,5.377-12.816,8.695-21.058,8.695H260.965h-91.81
		c-8.241,0-15.679-3.318-21.058-8.695c-5.377-5.378-8.695-12.816-8.695-21.059V748.687H424.604z"/>
	<path id="path936-5-6-3" inkscape:connector-curvature="0" sodipodi:nodetypes="cccc" fill="#FFFFFF" d="M303,765.578v49.64h49.64
		C352.64,782.125,336.094,765.578,303,765.578z"/>
	<g>
		<defs>
			<path id="SVGID_1_" d="M169.155,567.918h225.696c16.483,0,29.753,13.27,29.753,29.752v282.614
				c0,16.484-13.27,29.754-29.753,29.754H169.155c-16.483,0-29.752-13.27-29.752-29.754V597.67
				C139.402,581.187,152.672,567.918,169.155,567.918z"/>
		</defs>
		<clipPath id="SVGID_2_">
			<use xlink:href="#SVGID_1_"  overflow="visible"/>
		</clipPath>
		
			<linearGradient id="path1047_1_" gradientUnits="userSpaceOnUse" x1="-460.4697" y1="755.787" x2="-104.44" y2="406.2305" gradientTransform="matrix(1 0 0 -1 528.4575 1228.9968)">
			<stop  offset="0" style="stop-color:#000000"/>
			<stop  offset="1" style="stop-color:#000000;stop-opacity:0"/>
		</linearGradient>
		
			<path id="path1047" inkscape:connector-curvature="0" sodipodi:nodetypes="ccccc" clip-path="url(#SVGID_2_)" fill="url(#path1047_1_)" d="
			M501.896,829.629l-212-212l-20.081,123.385l209.573,209.573L501.896,829.629z"/>
	</g>
	<text transform="matrix(1 0 0 1 261.8774 739.451)" fill="#FFFFFF" font-family="'Arial-BoldMT'" font-size="170.5665">I</text>
	<path id="path932-5-5-3" inkscape:connector-curvature="0" sodipodi:nodetypes="ccccsc" fill="#FFFFFF" d="M336.094,831.765
		l-49.148-0.645l-0.49-48.995c-24.82,0-49.64,16.547-49.64,49.64c0,33.092,24.82,49.639,49.64,49.639
		C311.273,881.403,336.094,864.856,336.094,831.765z"/>
</g>
</svg>
