<?xml version="1.0" encoding="utf-8"?>
<!-- Generator: Adobe Illustrator 16.0.0, SVG Export Plug-In . SVG Version: 6.00 Build 0)  -->
<!DOCTYPE svg PUBLIC "-//W3C//DTD SVG 1.1//EN" "http://www.w3.org/Graphics/SVG/1.1/DTD/svg11.dtd">
<svg version="1.1"
	 id="svg3613" xmlns:dc="http://purl.org/dc/elements/1.1/" xmlns:cc="http://creativecommons.org/ns#" xmlns:rdf="http://www.w3.org/1999/02/22-rdf-syntax-ns#" xmlns:svg="http://www.w3.org/2000/svg" xmlns:sodipodi="http://sodipodi.sourceforge.net/DTD/sodipodi-0.dtd" xmlns:inkscape="http://www.inkscape.org/namespaces/inkscape" sodipodi:docname="libreoffice-writer.svg" inkscape:version="0.92.2 (5c3e80d, 2017-08-06)"
	 xmlns="http://www.w3.org/2000/svg" xmlns:xlink="http://www.w3.org/1999/xlink" x="0px" y="0px" width="512px" height="512px"
	 viewBox="0 0 512 512" enable-background="new 0 0 512 512" xml:space="preserve">
<sodipodi:namedview  inkscape:cy="274.20921" inkscape:cx="312.04879" inkscape:zoom="0.88737246" showgrid="false" bordercolor="#666666" pagecolor="#ffffff" borderopacity="1.0" id="base" inkscape:document-units="px" inkscape:current-layer="layer1" inkscape:window-maximized="1" inkscape:window-y="25" inkscape:window-x="0" inkscape:window-height="717" inkscape:window-width="1360" inkscape:pageshadow="2" inkscape:pageopacity="0.0" inkscape:guide-bbox="true" fit-margin-left="0" fit-margin-top="0" showguides="true" fit-margin-bottom="0" fit-margin-right="0">
	</sodipodi:namedview>
<path fill="#038CBB" d="M512,256.003c0,140.274-113.717,253.992-253.997,253.992c-140.283,0-253.997-113.718-253.997-253.992
	C4.006,115.72,117.72,2.005,258.003,2.005C398.283,2.005,512,115.72,512,256.003z"/>
<path fill="#0276A9" d="M130.032,401.5l251-307l127.44,119.096c0,0,40.337,261.734-244.052,296.319"/>
<g id="layer1" transform="translate(-24,-476.36222)" inkscape:label="Layer 1" inkscape:groupmode="layer">
	<path id="rect5617" inkscape:connector-curvature="0" sodipodi:nodetypes="sssssssss" fill="#414EA2" d="M180.743,570.353h213.755
		c15.61,0,28.179,12.567,28.179,28.178v267.663c0,15.611-12.568,28.179-28.179,28.179H180.743
		c-15.611,0-28.179-12.567-28.179-28.179V598.531C152.564,582.92,165.132,570.353,180.743,570.353z"/>
	<path id="rect5621" inkscape:connector-curvature="0" sodipodi:nodetypes="cssscssscc" fill="#FFFFFF" fill-opacity="0.2299" d="
		M422.677,741.558v124.635c0,7.806-3.142,14.851-8.236,19.944c-5.092,5.092-12.138,8.234-19.942,8.234H267.695h-86.952
		c-7.806,0-14.85-3.143-19.944-8.234c-5.093-5.094-8.235-12.139-8.235-19.944V741.558H422.677z"/>
	<g>
		<defs>
			<path id="SVGID_1_" d="M176.145,587.979h213.755c15.612,0,28.179,12.567,28.179,28.178v249.27
				c0,15.612-12.566,28.179-28.179,28.179H176.145c-15.611,0-28.178-12.566-28.178-28.179v-249.27
				C147.966,600.546,160.534,587.979,176.145,587.979z"/>
		</defs>
		<clipPath id="SVGID_2_">
			<use xlink:href="#SVGID_1_"  overflow="visible"/>
		</clipPath>
		
			<linearGradient id="path1047_1_" gradientUnits="userSpaceOnUse" x1="-434.9453" y1="758.6434" x2="-97.7518" y2="427.5807" gradientTransform="matrix(1 0 0 -1 533.2383 1228.9968)">
			<stop  offset="0" style="stop-color:#000000"/>
			<stop  offset="1" style="stop-color:#000000;stop-opacity:0"/>
		</linearGradient>
		
			<path id="path1047" inkscape:connector-curvature="0" sodipodi:nodetypes="ccccccccc" clip-path="url(#SVGID_2_)" fill="url(#path1047_1_)" d="
			M553.553,815.918L352.768,615.135l-17.518,38.317l-32.317-36.785l-17.434,34.726l-32.146-34.972l6.469,113.983L458.307,928.89
			L553.553,815.918z"/>
	</g>
	<text transform="matrix(1 0 0 1 231.5571 732.8104)" fill="#FFFFFF" font-family="'Arial-BoldMT'" font-size="161.5423">W</text>
	<g id="g5876" transform="translate(14.203781,25.549931)">
		<g id="g5855" transform="translate(-2.25384)">
			
				<path id="path5837" inkscape:connector-curvature="0" fill="none" stroke="#FFFFFF" stroke-width="17.5" stroke-linecap="round" d="
				M173.999,761.697h65.906"/>
			
				<path id="path5839" inkscape:connector-curvature="0" fill="none" stroke="#FFFFFF" stroke-width="17.5" stroke-linecap="round" d="
				M276.69,761.697h104.989"/>
		</g>
		<g id="g5864">
			
				<path id="path5845" inkscape:connector-curvature="0" fill="none" stroke="#FFFFFF" stroke-width="17.5" stroke-linecap="round" d="
				M171.745,815.724h123.381"/>
			
				<path id="path5847" inkscape:connector-curvature="0" fill="none" stroke="#FFFFFF" stroke-width="17.5" stroke-linecap="round" d="
				M315.053,815.724h23.757"/>
		</g>
		<g id="g5860" transform="translate(-10.1423,-3.6624985)">
			
				<path id="path5841" inkscape:connector-curvature="0" fill="none" stroke="#FFFFFF" stroke-width="17.5" stroke-linecap="round" d="
				M181.887,792.372h88.896"/>
			
				<path id="path5849" inkscape:connector-curvature="0" fill="none" stroke="#FFFFFF" stroke-width="17.5" stroke-linecap="round" d="
				M288.41,792.372h36.785"/>
			
				<path id="path5851" inkscape:connector-curvature="0" fill="none" stroke="#FFFFFF" stroke-width="17.5" stroke-linecap="round" d="
				M348.185,792.372h39.851"/>
		</g>
	</g>
</g>
</svg>
