<?xml version="1.0" encoding="utf-8"?>
<!-- Generator: Adobe Illustrator 16.0.0, SVG Export Plug-In . SVG Version: 6.00 Build 0)  -->
<!DOCTYPE svg PUBLIC "-//W3C//DTD SVG 1.1//EN" "http://www.w3.org/Graphics/SVG/1.1/DTD/svg11.dtd">
<svg version="1.1"
	 id="svg3613" xmlns:dc="http://purl.org/dc/elements/1.1/" xmlns:cc="http://creativecommons.org/ns#" xmlns:rdf="http://www.w3.org/1999/02/22-rdf-syntax-ns#" xmlns:svg="http://www.w3.org/2000/svg" xmlns:sodipodi="http://sodipodi.sourceforge.net/DTD/sodipodi-0.dtd" xmlns:inkscape="http://www.inkscape.org/namespaces/inkscape" sodipodi:docname="libreoffice-draw.svg" inkscape:version="0.92.2 (5c3e80d, 2017-08-06)"
	 xmlns="http://www.w3.org/2000/svg" xmlns:xlink="http://www.w3.org/1999/xlink" x="0px" y="0px" width="512px" height="512px"
	 viewBox="0 0 512 512" enable-background="new 0 0 512 512" xml:space="preserve">
<sodipodi:namedview  inkscape:cy="178.11111" inkscape:cx="363.66226" inkscape:zoom="0.31373354" showgrid="false" bordercolor="#666666" pagecolor="#ffffff" borderopacity="1.0" id="base" inkscape:document-units="px" inkscape:current-layer="layer1" inkscape:window-maximized="1" inkscape:window-y="25" inkscape:window-x="0" inkscape:window-height="717" inkscape:window-width="1360" inkscape:pageshadow="2" inkscape:pageopacity="0.0" inkscape:guide-bbox="true" fit-margin-left="0" fit-margin-top="0" showguides="true" fit-margin-bottom="0" fit-margin-right="0">
	</sodipodi:namedview>
<path fill="#86742D" d="M509.997,256.003c0,140.274-113.717,253.992-253.997,253.992c-140.283,0-253.997-113.718-253.997-253.992
	C2.003,115.72,115.717,2.005,256,2.005C396.28,2.005,509.997,115.72,509.997,256.003z"/>
<path fill="#534017" d="M387.5,91.5l-265,322l123.99,96.318c0,0,266.264,6.654,262.137-280.332"/>
<g id="layer1" transform="translate(-24,-476.36222)" inkscape:label="Layer 1" inkscape:groupmode="layer">
	<path id="rect5617" inkscape:connector-curvature="0" sodipodi:nodetypes="sssssssss" fill="#DBA839" d="M167.805,558.247h224.391
		c16.388,0,29.58,13.192,29.58,29.58v280.98c0,16.388-13.192,29.581-29.58,29.581H167.805c-16.388,0-29.581-13.193-29.581-29.581
		v-280.98C138.224,571.44,151.417,558.247,167.805,558.247z"/>
	<path id="rect5621" inkscape:connector-curvature="0" sodipodi:nodetypes="cssscssscc" fill="#FFFFFF" fill-opacity="0.2299" d="
		M421.775,737.972v130.836c0,8.194-3.297,15.589-8.645,20.936c-5.347,5.347-12.742,8.646-20.936,8.646H259.084h-91.279
		c-8.193,0-15.589-3.299-20.936-8.646c-5.346-5.347-8.645-12.741-8.645-20.936V737.972H421.775z"/>
	<path id="path13561-9-4-9-3" inkscape:connector-curvature="0" fill="#FFFFFF" d="M287.715,751.93c-0.863,0-1.505,0.526-1.92,1.059
		c-0.415,0.533-0.713,1.161-0.982,1.888c-0.538,1.451-0.925,3.313-1.178,5.324c-0.506,4.022-0.516,8.556,0.622,11.521
		c0.509,1.325,1.104,2.411,2.335,2.814c0.615,0.201,1.302,0.11,1.854-0.132c0.552-0.242,1.022-0.607,1.483-1.069
		c1.172-1.171,1.5-2.885,1.756-4.93c0.257-2.047,0.289-4.423,0.131-6.722c-0.156-2.298-0.496-4.507-1.025-6.24
		c-0.264-0.867-0.558-1.616-0.992-2.247C289.364,752.564,288.673,751.93,287.715,751.93z M297.709,777.122
		c-1.517-0.034-3.086,0.002-4.669,0.098c-6.337,0.382-12.93,1.8-17.741,4.255c-14.032,7.159-21.683,19.452-22.409,31.563
		c-0.725,12.11,5.572,24.021,18.908,30.079c0.14,0.067,0.292,0.108,0.447,0.12c11.013,4.905,18.073,4.933,29.271-0.152
		c11.826-5.372,19.158-14.602,19.158-24.732c0-9.202-3.814-16.899-9.852-21.658c-6.037-4.758-14.294-6.551-22.966-4.156
		c-9.002,2.485-14.574,7.905-16.671,16.311c-1.108,4.438,0.879,9.416,3.862,13.081c1.492,1.833,3.254,3.351,5.161,4.277
		c1.906,0.926,4.023,1.253,5.979,0.491c0.973-0.38,1.722-0.681,2.346-1.104c0.313-0.209,0.619-0.462,0.852-0.894
		c0.232-0.431,0.271-1.074,0.098-1.527c-0.347-0.907-0.97-1.262-1.768-1.778c-0.797-0.516-1.849-1.091-3.229-1.821
		c-3.627-1.92-5.242-4.507-5.28-7.267c-0.038-2.761,1.578-5.911,5.216-8.771c4.997-3.932,10.323-5.027,15.012-3.774
		c4.687,1.252,8.82,4.882,11.304,10.821c1.836,4.397,2.19,7.916,1.057,11.347c-1.132,3.43-3.854,6.882-8.497,10.79
		c-5.345,4.495-8.485,5.511-17.064,5.511c-4.742,0-7.541-0.244-9.885-1.189c-2.343-0.946-4.409-2.653-7.615-5.859
		c-3.05-3.051-4.779-5.187-5.761-7.431c-0.981-2.242-1.281-4.71-1.275-8.597c0.03-20.168,21.235-35.192,41.469-29.249
		c2.103,0.617,3.946,0.898,5.477,0.905c1.531,0.006,2.762-0.196,3.721-0.949c0.479-0.376,0.88-0.976,0.96-1.636
		c0.079-0.662-0.137-1.287-0.47-1.822c-0.666-1.071-1.828-1.966-3.578-2.902C306.372,777.947,302.26,777.223,297.709,777.122
		L297.709,777.122z M236.58,781.431c-1.22,0-2.258,0.155-3.022,0.972c-0.382,0.407-0.599,0.992-0.6,1.526
		c0,0.536,0.155,1.017,0.382,1.463c0.911,1.783,2.991,3.502,6.176,5.477c3.303,2.049,6.248,3.341,8.585,3.774
		c1.169,0.218,2.217,0.265,3.175-0.142c0.958-0.404,1.658-1.503,1.658-2.585c0-0.862-0.39-1.322-0.797-1.811
		c-0.406-0.49-0.925-0.974-1.537-1.485c-1.225-1.021-2.834-2.127-4.55-3.175c-1.715-1.047-3.532-2.027-5.171-2.76
		C239.239,781.953,237.875,781.431,236.58,781.431L236.58,781.431z M339.592,781.431c-1.372,0.006-2.707,0.665-4.406,1.549
		c-1.7,0.885-3.606,2.059-5.423,3.307s-3.532,2.561-4.833,3.741c-0.65,0.591-1.203,1.145-1.626,1.68
		c-0.424,0.537-0.818,0.999-0.818,1.889c0,0.925,0.063,1.81,0.753,2.563s1.812,0.854,2.771,0.633
		c1.918-0.441,4.387-1.872,8.542-4.439c3.477-2.148,5.994-4.313,7.277-6.23c0.642-0.959,1.129-1.967,0.698-3.12
		c-0.216-0.576-0.708-1.033-1.232-1.266C340.77,781.505,340.207,781.429,339.592,781.431L339.592,781.431z M259.272,840.988
		c-0.398-0.007-0.74,0.076-1.08,0.187c-0.679,0.219-1.369,0.593-2.139,1.068c-1.539,0.952-3.345,2.35-5.106,3.896
		c-1.759,1.545-3.468,3.222-4.767,4.757c-0.65,0.767-1.192,1.494-1.604,2.182c-0.412,0.687-0.742,1.304-0.742,2.139
		c0,0.543,0.061,1.05,0.262,1.537c0.202,0.49,0.59,0.964,1.102,1.222c1.025,0.518,2.057,0.214,3.056-0.271
		c1.998-0.969,4.445-3.086,7.582-6.361c1.777-1.854,3.223-3.712,4.157-5.291c0.467-0.788,0.816-1.495,1.003-2.191
		c0.188-0.698,0.306-1.605-0.425-2.336C260.185,841.137,259.671,840.997,259.272,840.988L259.272,840.988z M311.893,845.2
		c-0.418,0.021-0.92,0.198-1.266,0.545c-0.736,0.735-0.646,1.548-0.535,2.28c0.111,0.732,0.369,1.53,0.731,2.422
		c0.723,1.783,1.889,3.922,3.37,6.1c2.729,4.007,4.805,6.518,6.699,7.638c0.474,0.278,0.961,0.491,1.538,0.522
		c0.578,0.03,1.25-0.211,1.67-0.643c0.84-0.868,0.899-1.945,0.861-3.285c-0.044-1.523-0.833-3.036-1.888-4.769
		c-1.054-1.73-2.441-3.589-3.884-5.268c-1.441-1.681-2.925-3.177-4.255-4.201c-0.665-0.512-1.277-0.912-1.942-1.156
		C312.662,845.264,312.309,845.179,311.893,845.2L311.893,845.2z"/>
	<g>
		<defs>
			<path id="SVGID_1_" d="M167.805,558.247h224.391c16.388,0,29.58,13.192,29.58,29.58v280.98c0,16.388-13.192,29.581-29.58,29.581
				H167.805c-16.388,0-29.581-13.193-29.581-29.581v-280.98C138.224,571.44,151.417,558.247,167.805,558.247z"/>
		</defs>
		<clipPath id="SVGID_2_">
			<use xlink:href="#SVGID_1_"  overflow="visible"/>
		</clipPath>
		
			<linearGradient id="path1047_1_" gradientUnits="userSpaceOnUse" x1="-461.0093" y1="765.1415" x2="-107.0374" y2="417.6055" gradientTransform="matrix(1 0 0 -1 528.4575 1228.9968)">
			<stop  offset="0" style="stop-color:#000000"/>
			<stop  offset="1" style="stop-color:#000000;stop-opacity:0"/>
		</linearGradient>
		
			<path id="path1047" inkscape:connector-curvature="0" sodipodi:nodetypes="cccccc" clip-path="url(#SVGID_2_)" fill="url(#path1047_1_)" d="
			M526.398,825.076L315.624,614.303l-54.679,11.357l-13.978,103.878l208.361,208.36L526.398,825.076z"/>
	</g>
	<text transform="matrix(1 0 0 1 237.2373 728.788)" fill="#FFFFFF" font-family="'Arial-BoldMT'" font-size="169.58">D</text>
</g>
</svg>
