<?xml version="1.0" encoding="utf-8"?>
<!-- Generator: Adobe Illustrator 16.0.0, SVG Export Plug-In . SVG Version: 6.00 Build 0)  -->
<!DOCTYPE svg PUBLIC "-//W3C//DTD SVG 1.1//EN" "http://www.w3.org/Graphics/SVG/1.1/DTD/svg11.dtd">
<svg version="1.1"
	 id="svg3613" xmlns:dc="http://purl.org/dc/elements/1.1/" xmlns:cc="http://creativecommons.org/ns#" xmlns:rdf="http://www.w3.org/1999/02/22-rdf-syntax-ns#" xmlns:svg="http://www.w3.org/2000/svg" xmlns:sodipodi="http://sodipodi.sourceforge.net/DTD/sodipodi-0.dtd" xmlns:inkscape="http://www.inkscape.org/namespaces/inkscape" sodipodi:docname="libreoffice3-base.svg" inkscape:version="0.92.2 (5c3e80d, 2017-08-06)"
	 xmlns="http://www.w3.org/2000/svg" xmlns:xlink="http://www.w3.org/1999/xlink" x="0px" y="0px" width="512px" height="512px"
	 viewBox="0 0 512 512" enable-background="new 0 0 512 512" xml:space="preserve">
<sodipodi:namedview  inkscape:cy="153.31573" inkscape:cx="149.21573" inkscape:zoom="0.44368623" showgrid="false" bordercolor="#666666" pagecolor="#ffffff" borderopacity="1.0" id="base" inkscape:document-units="px" inkscape:current-layer="layer1" inkscape:window-maximized="1" inkscape:window-y="25" inkscape:window-x="0" inkscape:window-height="717" inkscape:window-width="1360" inkscape:pageshadow="2" inkscape:pageopacity="0.0" inkscape:guide-bbox="true" fit-margin-left="0" fit-margin-top="0" showguides="true" fit-margin-bottom="0" fit-margin-right="0">
	</sodipodi:namedview>
<path fill="#B9CFEC" d="M509.997,256.003c0,140.274-113.717,253.992-253.997,253.992c-140.283,0-253.997-113.718-253.997-253.992
	C2.003,115.72,115.717,2.005,256,2.005C396.28,2.005,509.997,115.72,509.997,256.003z"/>
<path fill="#A3B3DC" d="M137.5,421.5L386.994,99.076l118.742,110.38c0,0,42.107,257.077-234.064,300.061"/>
<g id="layer1" transform="translate(-24,-476.36222)" inkscape:label="Layer 1" inkscape:groupmode="layer">
	<path id="rect5617" inkscape:connector-curvature="0" sodipodi:nodetypes="sssssssss" fill="#6B41A2" d="M170.317,566.101h219.365
		c16.021,0,28.918,12.897,28.918,28.917v274.688c0,16.02-12.897,28.918-28.918,28.918H170.317
		c-16.021,0-28.918-12.898-28.918-28.918V595.018C141.399,578.998,154.297,566.101,170.317,566.101z"/>
	<path id="rect5621" inkscape:connector-curvature="0" sodipodi:nodetypes="cssscssscc" fill="#FFFFFF" fill-opacity="0.2299" d="
		M418.601,741.8v127.906c0,8.01-3.225,15.24-8.451,20.467s-12.457,8.451-20.467,8.451H259.552h-89.234
		c-8.01,0-15.24-3.225-20.467-8.451s-8.451-12.457-8.451-20.467V741.8H418.601z"/>
	<g id="g3214" transform="translate(-9.0153799,20.284605)">
		<path id="path90-6-6-7" inkscape:connector-curvature="0" fill="#FFFFFF" d="M342.591,771.248
			c0,16.383-24.083,29.664-53.791,29.664s-53.791-13.281-53.791-29.664s24.083-29.664,53.791-29.664
			S342.591,754.865,342.591,771.248L342.591,771.248z"/>
		<path id="path3234-1-4-8" inkscape:connector-curvature="0" sodipodi:nodetypes="ccccccccsccccsccccc" fill="#FFFFFF" d="
			M235.009,804.199v1.855c0-0.639,0.096-1.227,0.168-1.855H235.009z M235.009,806.054v22.148v2.781h0.336
			c2.461,15.107,25.389,26.885,53.455,26.885s50.994-11.777,53.455-26.885h0.336v-2.781v-22.148
			c0,16.383-24.083,29.664-53.791,29.664S235.009,822.437,235.009,806.054L235.009,806.054z M342.591,806.054v-1.855h-0.168
			C342.495,804.828,342.591,805.416,342.591,806.054z"/>
		<path id="path86-0-0-5" inkscape:connector-curvature="0" sodipodi:nodetypes="ccccccccsccccsccccc" fill="#FFFFFF" d="
			M234.84,775.052v1.854c0-0.639,0.097-1.225,0.169-1.854H234.84z M234.84,776.906v22.15v2.781h0.337
			c2.461,15.105,25.389,26.883,53.455,26.883s50.994-11.777,53.455-26.883h0.336v-2.781v-22.15
			c0,16.383-24.083,29.664-53.791,29.664S234.84,793.289,234.84,776.906z M342.423,776.906v-1.854h-0.168
			C342.327,775.681,342.423,776.267,342.423,776.906z"/>
	</g>
	<g>
		<defs>
			<path id="SVGID_1_" d="M170.317,584.975h219.365c16.021,0,28.918,12.897,28.918,28.918v255.813
				c0,16.02-12.897,28.918-28.918,28.918H170.317c-16.021,0-28.918-12.898-28.918-28.918V613.893
				C141.399,597.873,154.297,584.975,170.317,584.975z"/>
		</defs>
		<clipPath id="SVGID_2_">
			<use xlink:href="#SVGID_1_"  overflow="visible"/>
		</clipPath>
		
			<linearGradient id="path1047_1_" gradientUnits="userSpaceOnUse" x1="-466.1338" y1="748.9969" x2="-120.0903" y2="409.2452" gradientTransform="matrix(1 0 0 -1 540 1230.1238)">
			<stop  offset="0" style="stop-color:#000000"/>
			<stop  offset="1" style="stop-color:#000000;stop-opacity:0"/>
		</linearGradient>
		
			<path id="path1047" inkscape:connector-curvature="0" sodipodi:nodetypes="cccccc" clip-path="url(#SVGID_2_)" fill="url(#path1047_1_)" d="
			M507.858,820.011L301.806,613.956h-58.198l-1.573,119.542l203.694,203.695L507.858,820.011z"/>
	</g>
	<text transform="matrix(1 0 0 1 231.1172 731.2504)" fill="#FFFFFF" font-family="'Arial-BoldMT'" font-size="165.7821">B</text>
</g>
</svg>
