<?xml version="1.0" encoding="utf-8"?>
<!-- Generator: Adobe Illustrator 16.0.0, SVG Export Plug-In . SVG Version: 6.00 Build 0)  -->
<!DOCTYPE svg PUBLIC "-//W3C//DTD SVG 1.1//EN" "http://www.w3.org/Graphics/SVG/1.1/DTD/svg11.dtd">
<svg version="1.1"
	 id="svg2" xmlns:dc="http://purl.org/dc/elements/1.1/" xmlns:cc="http://creativecommons.org/ns#" xmlns:rdf="http://www.w3.org/1999/02/22-rdf-syntax-ns#" xmlns:svg="http://www.w3.org/2000/svg" xmlns:sodipodi="http://sodipodi.sourceforge.net/DTD/sodipodi-0.dtd" xmlns:inkscape="http://www.inkscape.org/namespaces/inkscape" sodipodi:docname="nvidia.svg" inkscape:version="0.48.4 r9939"
	 xmlns="http://www.w3.org/2000/svg" xmlns:xlink="http://www.w3.org/1999/xlink" x="0px" y="0px" width="612px" height="792px"
	 viewBox="0 0 612 792" enable-background="new 0 0 612 792" xml:space="preserve">
<path fill="#0276A9" d="M152.801,578.788l302.386-369.852l153.531,143.478c0,0,48.595,315.318-294.017,356.984"/>
<path fill="#8EC857" d="M612.968,403.504c0,168.992-136.998,305.991-305.997,305.991c-169.002,0-305.997-136.999-305.997-305.991
	c0-169.003,136.995-305.999,305.997-305.999C475.97,97.505,612.968,234.5,612.968,403.504z"/>
<sodipodi:namedview  inkscape:cy="227.68665" inkscape:cx="219.21123" inkscape:zoom="0.23046875" showgrid="false" guidetolerance="10" gridtolerance="10" objecttolerance="10" bordercolor="#666666" pagecolor="#ffffff" borderopacity="1" id="namedview44" inkscape:current-layer="svg2" inkscape:window-maximized="0" inkscape:window-y="39" inkscape:window-x="15" inkscape:window-height="480" inkscape:window-width="640" inkscape:pageshadow="2" inkscape:pageopacity="0">
	</sodipodi:namedview>
<g id="g4">
	<path id="path6" inkscape:connector-curvature="0" fill="#8EC857" d="M492.131,400.958c0,104.204-84.475,188.67-188.67,188.67
		c-104.204,0-188.67-84.475-188.67-188.67c0-104.203,84.475-188.669,188.67-188.669
		C407.664,212.289,492.131,296.764,492.131,400.958"/>
	<g id="g8" transform="matrix(0.94343,0,0,0.94343,-644.62,-495.31)">
		<path id="path10" inkscape:connector-curvature="0" fill="#8EC857" d="M1007.621,737.23c-78.795,0-147.677,42.328-185.256,105.445
			c-19.177,32.21-30.219,69.814-30.219,110.031c0,119.001,96.473,215.474,215.475,215.474c0.126,0,0.25,0,0.378,0V737.23
			C1007.874,737.23,1007.747,737.23,1007.621,737.23 M1031.005,738.496c0.808,0.087,1.619,0.173,2.423,0.27
			C1032.625,738.671,1031.811,738.583,1031.005,738.496 M1048.027,741.001c1.724,0.327,3.432,0.708,5.145,1.077
			C1051.458,741.709,1049.757,741.329,1048.027,741.001 M1055.837,742.671c0.708,0.163,1.422,0.316,2.128,0.485
			C1057.26,742.988,1056.543,742.833,1055.837,742.671 M1095.51,755.923c0.667,0.299,1.329,0.61,1.994,0.916
			C1096.839,756.535,1096.177,756.222,1095.51,755.923 M1101.408,758.698c1.386,0.671,2.779,1.347,4.149,2.047
			C1104.187,760.044,1102.795,759.37,1101.408,758.698 M1160.095,1104.939c-2.434,2.439-4.915,4.819-7.461,7.137
			C1155.178,1109.76,1157.665,1107.374,1160.095,1104.939 M1081.953,1155.005c-1.645,0.609-3.289,1.186-4.953,1.752
			C1078.659,1156.192,1080.313,1155.611,1081.953,1155.005 M1077,1156.757c-1.318,0.448-2.659,0.87-3.987,1.294
			C1074.346,1157.626,1075.678,1157.206,1077,1156.757 M1071.693,1158.482c-3.28,1.021-6.593,1.962-9.938,2.828
			C1065.095,1160.448,1068.418,1159.5,1071.693,1158.482 M1035.382,1166.4c-1.794,0.232-3.579,0.434-5.387,0.62
			C1031.797,1166.834,1033.592,1166.63,1035.382,1166.4 M1029.995,1167.02c-1.523,0.157-3.048,0.306-4.578,0.432
			C1026.948,1167.326,1028.47,1167.178,1029.995,1167.02"/>
		<path id="path12" inkscape:connector-curvature="0" fill="#8EC857" d="M1008.001,737.23v430.949
			c118.83-0.204,215.095-96.6,215.095-215.475c0-40.21-11.045-77.813-30.218-110.03C1155.363,779.652,1086.64,737.359,1008,737.229"
			/>
	</g>
</g>
<path fill="#0B9948" d="M210.149,383.523c0,0,51.35-37.026,83.351-46.025s69.112,8.579,78.674,15.001s41.268,33.569,47.297,50.785
	s17.707,14.382,29.368,17.799s148.354,79.646,148.354,79.646S558.57,655.834,371.535,702.667"/>
<path id="path80" inkscape:connector-curvature="0" fill="#FFF5F9" d="M306.422,315.95v2.092c0-0.696,0.056-1.37,0.112-2.047
	C306.501,315.984,306.454,315.96,306.422,315.95 M313.72,335.287c-0.906,0.006-1.819,0.014-2.737,0.044
	c-1.523,0.052-3.045,0.195-4.56,0.313c-0.013,0.001-0.011,0-0.022,0c-51.611,4.156-96.251,47.88-96.251,47.88
	s25.271,73.147,96.273,79.854c3.408,0.329,6.937,0.624,10.546,0.624c37.455,0,103.521-19.187,131.871-42.919
	c-4.159-4.217-24.427-13.841-29.368-17.799c-29.814,25.737-60.64,47.48-103.215,47.48c-3.411,0-6.681-0.224-9.834-0.622
	c-52.103-6.556-69.909-64.014-69.909-64.014s23.305-34.417,69.909-37.977c1.5-0.104,3.017-0.151,4.561-0.2
	c0.658-0.021,1.306-0.043,1.958-0.045c41.092-0.128,67.972,36.244,67.972,36.244s-29.9,41.586-61.963,41.586
	c-4.614,0-8.803-0.84-12.526-2.092c-22.2-7.459-29.368-33.284-29.368-33.284s12.886-15.417,29.368-13.439
	c16.426,1.985,19.826,9.277,29.703,25.745l21.915-18.625c0,0-15.999-20.981-43.031-20.981c-2.94,0-5.828,0.216-8.587,0.512
	c-31.405,3.396-50.258,24.299-50.258,24.299s10.882,40.973,50.258,47.995c3.688,0.651,7.599,1.046,11.792,1.046
	c45.753,0,89.666-53.375,89.666-53.375s-37.022-48.607-94.158-48.236"/>
<path fill="#0A6634" d="M210.149,383.523"/>
</svg>
