<?xml version="1.0" encoding="utf-8"?>
<!-- Generator: Adobe Illustrator 16.0.0, SVG Export Plug-In . SVG Version: 6.00 Build 0)  -->
<!DOCTYPE svg PUBLIC "-//W3C//DTD SVG 1.1//EN" "http://www.w3.org/Graphics/SVG/1.1/DTD/svg11.dtd">
<svg version="1.1"
	 id="svg2" xmlns:dc="http://purl.org/dc/elements/1.1/" xmlns:cc="http://creativecommons.org/ns#" xmlns:rdf="http://www.w3.org/1999/02/22-rdf-syntax-ns#" xmlns:svg="http://www.w3.org/2000/svg" xmlns:sodipodi="http://sodipodi.sourceforge.net/DTD/sodipodi-0.dtd" xmlns:inkscape="http://www.inkscape.org/namespaces/inkscape" sodipodi:docname="org.gnome.Software2.svg" inkscape:version="0.91 r13725"
	 xmlns="http://www.w3.org/2000/svg" xmlns:xlink="http://www.w3.org/1999/xlink" x="0px" y="0px" width="512px" height="512px"
	 viewBox="0 0 512 512" enable-background="new 0 0 512 512" xml:space="preserve">
<sodipodi:namedview  inkscape:cy="176.79303" inkscape:cx="51.18697" inkscape:zoom="0.1285513" showgrid="false" bordercolor="#666666" pagecolor="#ffffff" borderopacity="1.0" id="base" inkscape:document-units="px" inkscape:current-layer="layer1" inkscape:window-maximized="1" inkscape:window-y="25" inkscape:window-x="0" inkscape:window-height="717" inkscape:window-width="1360" inkscape:pageshadow="2" inkscape:pageopacity="0.0">
	</sodipodi:namedview>
<circle fill="#472910" cx="258.195" cy="256" r="253.5"/>
<path fill="#281F10" d="M500.326,331.297L347.863,178.858l-0.107-0.107h-7.671l-71.604-71.594c-0.069-0.076-0.147-0.185-0.251-0.254
	c-1.014-0.981-2.393-1.559-3.911-1.559c-3.188,0-5.798,2.571-5.798,5.757c0,1.374,0.507,2.641,1.341,3.656l0.796,0.798
	l26.717,26.717c-4.193,0.327-7.527,3.808-7.527,8.084c0,1.847,0.618,3.546,1.636,4.89l1.661,1.667l21.84,21.836h-3.011
	l-39.798-39.801l-1.848-1.848c-1.666-1.338-3.803-2.101-6.123-2.101c-2.583,0-4.913,1.009-6.699,2.612l-15.064-15.069l-0.9-0.896
	c-1.161-1.015-2.642-1.595-4.274-1.595c-3.696,0-6.665,3.009-6.665,6.662c0,1.376,0.439,2.682,1.126,3.73l48.306,48.31h-32.047
	l-6.016-6.013c0-0.035-0.036-0.068-0.069-0.104l-0.208-0.216c-0.177-0.188-0.363-0.371-0.553-0.55l-0.216-0.215
	c-0.038-0.036-0.073-0.072-0.107-0.072c-0.054-0.045-0.112-0.076-0.163-0.113c-0.256-0.204-0.52-0.398-0.796-0.568
	c-0.223-0.14-0.458-0.258-0.694-0.377c-0.203-0.1-0.4-0.205-0.611-0.29c-0.33-0.132-0.675-0.226-1.029-0.313
	c-0.158-0.045-0.312-0.101-0.474-0.131c-0.527-0.101-1.07-0.162-1.628-0.162c-4.675,0-8.512,3.799-8.512,8.506
	c0,0.216,0.074,0.434,0.074,0.617h-22.092v13.942l-26.36,7.174v79.125v115.96l0.108,0.112L281.94,508.356
	C385.206,498.757,470.513,427.266,500.326,331.297z"/>
<rect x="194.896" y="178.759" fill="#A6B83D" width="152.987" height="189.917"/>
<g>
	<polygon fill="#B8D1E6" points="314.249,189.313 314.249,381.871 347.879,368.684 347.879,178.766 	"/>
	<polygon fill="#B8D1E6" points="207.419,235.393 194.892,235.393 194.892,178.766 207.419,189.313 	"/>
</g>
<g>
	<polygon fill="#D0E070" points="326.776,248.577 314.249,248.577 314.249,189.313 326.776,199.873 	"/>
	<polygon fill="#D0E070" points="168.517,221.138 207.419,221.138 207.419,189.313 168.517,199.873 	"/>
</g>
<rect x="168.507" y="199.873" fill="#FFFFFF" width="158.26" height="195.191"/>
<path fill="#C1D354" d="M247.644,254.37c-23.791,0-43.092,19.307-43.092,43.093c0,23.798,19.298,43.097,43.092,43.097
	c23.798,0,43.09-19.299,43.09-43.097C290.734,273.679,271.445,254.37,247.644,254.37z M251.187,321.408v4.5
	c0,0.945-0.391,1.792-1.001,2.502c-0.7,0.654-1.587,0.973-2.449,0.973h-0.78c-0.897,0-1.777-0.318-2.446-0.973
	c-0.656-0.71-0.996-1.557-0.996-2.502v-3.952c-5.243-0.236-10.348-1.655-13.304-3.388l2.34-9.118
	c3.285,1.839,7.896,3.455,12.995,3.455c4.463,0,7.49-1.764,7.49-4.897c0-2.947-2.481-4.852-8.269-6.766
	c-8.378-2.83-14.094-6.762-14.094-14.396c0-6.85,4.852-12.254,13.234-13.895v-3.962c0-0.892,0.317-1.794,1.005-2.434
	c0.653-0.71,1.557-1.018,2.446-1.018h0.738c0.89,0,1.792,0.308,2.481,1.018c0.667,0.64,0.989,1.54,0.989,2.434v3.449
	c5.259,0.203,8.768,1.308,11.349,2.567l-2.295,8.804c-2.002-0.811-5.612-2.628-11.231-2.628c-5.101,0-6.744,2.197-6.744,4.387
	c0,2.572,2.753,4.186,9.393,6.726c9.323,3.275,13.041,7.564,13.041,14.63C265.08,313.92,260.178,319.869,251.187,321.408z"/>
<g>
	<path fill="#5D6D7E" d="M214.807,218.265c0-3.022-2.449-5.474-5.464-5.474c-3.029,0-5.482,2.453-5.482,5.474
		c0,3.039,2.454,5.476,5.482,5.476C212.358,223.739,214.807,221.304,214.807,218.265z"/>
	<path fill="#5D6D7E" d="M291.43,218.265c0-3.022-2.454-5.474-5.471-5.474c-3.019,0-5.473,2.453-5.473,5.474
		c0,3.039,2.454,5.476,5.473,5.476C288.979,223.739,291.43,221.304,291.43,218.265z"/>
</g>
<path fill="#CEE2F2" d="M249.376,276.3h-3.458c-10.311,0-20.021-4.019-27.307-11.313c-7.298-7.302-11.322-17-11.322-27.329v-19.253
	c0-0.489,0.178-0.976,0.553-1.353c0.377-0.365,0.87-0.561,1.363-0.561h0.274c0.484,0,0.97,0.196,1.353,0.561
	c0.37,0.375,0.556,0.862,0.556,1.353v19.253c0,9.223,3.589,17.896,10.12,24.418c6.528,6.522,15.192,10.12,24.41,10.12h3.458
	c9.222,0,17.879-3.598,24.417-10.12c6.527-6.525,10.12-15.197,10.12-24.418v-19.253c0-0.489,0.18-0.976,0.552-1.353
	c0.375-0.365,0.86-0.561,1.351-0.561h0.273c0.489,0,0.986,0.196,1.356,0.561c0.375,0.375,0.562,0.862,0.562,1.353v19.253
	c0,10.328-4.019,20.024-11.314,27.329C269.395,272.282,259.69,276.3,249.376,276.3z"/>
<path fill="#FF9D4D" d="M233.954,178.127c0,4.702-3.808,8.501-8.512,8.501c-4.695,0-8.512-3.799-8.512-8.501
	c0-4.703,3.817-8.513,8.512-8.513C230.146,169.614,233.954,173.426,233.954,178.127z"/>
<path fill="#F28124" d="M225.44,185.278c-3.939,0-7.141-3.208-7.141-7.147c0-3.948,3.201-7.149,7.141-7.149
	c3.949,0,7.148,3.201,7.148,7.149C232.589,182.067,229.39,185.278,225.44,185.278z M225.44,171.656
	c-3.564,0-6.464,2.902-6.464,6.475c0,3.563,2.9,6.463,6.464,6.463c3.575,0,6.472-2.9,6.472-6.463
	C231.91,174.558,229.015,171.656,225.44,171.656z"/>
<path fill="#FF9D4D" d="M270.079,111.112c0,3.188-2.595,5.779-5.772,5.779c-3.184,0-5.764-2.591-5.764-5.779
	c0-3.179,2.58-5.763,5.764-5.763C267.484,105.35,270.079,107.933,270.079,111.112z"/>
<path fill="#F28124" d="M264.307,115.969c-2.681,0-4.854-2.174-4.854-4.856c0-2.677,2.173-4.845,4.854-4.845
	c2.671,0,4.848,2.168,4.848,4.845C269.154,113.791,266.978,115.969,264.307,115.969z M264.307,106.726
	c-2.41,0-4.383,1.962-4.383,4.386c0,2.428,1.973,4.391,4.383,4.391c2.414,0,4.384-1.965,4.384-4.391
	C268.69,108.689,266.721,106.726,264.307,106.726z"/>
<path fill="#FF9D4D" d="M264.307,145.132c0,5.585-4.52,10.102-10.096,10.102s-10.104-4.517-10.104-10.102
	c0-5.581,4.527-10.114,10.104-10.114S264.307,139.552,264.307,145.132z"/>
<path fill="#F28124" d="M254.21,153.622c-4.677,0-8.484-3.811-8.484-8.49c0-4.684,3.807-8.487,8.484-8.487
	c4.68,0,8.485,3.803,8.485,8.487C262.695,149.81,258.889,153.622,254.21,153.622z M254.21,137.451c-4.236,0-7.678,3.45-7.678,7.681
	c0,4.228,3.442,7.679,7.678,7.679c4.234,0,7.671-3.451,7.671-7.679C261.882,140.901,258.445,137.451,254.21,137.451z"/>
<circle fill="#FF9D4D" cx="290.29" cy="189.304" r="7.288"/>
<path fill="#F28124" d="M290.301,195.434c-3.369,0-6.117-2.746-6.117-6.125c0-3.374,2.748-6.114,6.117-6.114
	c3.371,0,6.119,2.739,6.119,6.114C296.42,192.688,293.672,195.434,290.301,195.434z M290.301,183.775
	c-3.051,0-5.536,2.484-5.536,5.537c0,3.059,2.483,5.543,5.536,5.543c3.058,0,5.539-2.48,5.539-5.543
	C295.84,186.262,293.358,183.775,290.301,183.775z"/>
<circle fill="#FF9D4D" cx="288.008" cy="150.367" r="8.16"/>
<path fill="#F28124" d="M288.009,157.224c-3.778,0-6.856-3.08-6.856-6.859c0-3.777,3.078-6.862,6.856-6.862
	c3.786,0,6.854,3.085,6.854,6.862C294.863,154.142,291.795,157.224,288.009,157.224z M288.009,144.164
	c-3.413,0-6.207,2.78-6.207,6.2c0,3.425,2.797,6.206,6.207,6.206c3.418,0,6.204-2.781,6.204-6.206
	C294.213,146.944,291.424,144.164,288.009,144.164z"/>
<circle fill="#FF9D4D" cx="227.269" cy="126.741" r="6.674"/>
<path fill="#F28124" d="M227.276,132.335c-3.088,0-5.603-2.516-5.603-5.607s2.515-5.604,5.603-5.604
	c3.093,0,5.603,2.515,5.603,5.604C232.878,129.82,230.366,132.335,227.276,132.335z M227.276,121.658c-2.788,0-5.07,2.277-5.07,5.07
	c0,2.796,2.282,5.072,5.07,5.072c2.798,0,5.067-2.276,5.067-5.072C232.341,123.935,230.075,121.658,227.276,121.658z"/>
</svg>
