<?xml version="1.0" encoding="utf-8"?>
<!-- Generator: Adobe Illustrator 16.0.0, SVG Export Plug-In . SVG Version: 6.00 Build 0)  -->
<!DOCTYPE svg PUBLIC "-//W3C//DTD SVG 1.1//EN" "http://www.w3.org/Graphics/SVG/1.1/DTD/svg11.dtd">
<svg version="1.1"
	 id="svg2" xmlns:dc="http://purl.org/dc/elements/1.1/" xmlns:cc="http://creativecommons.org/ns#" xmlns:rdf="http://www.w3.org/1999/02/22-rdf-syntax-ns#" xmlns:svg="http://www.w3.org/2000/svg" xmlns:sodipodi="http://sodipodi.sourceforge.net/DTD/sodipodi-0.dtd" xmlns:inkscape="http://www.inkscape.org/namespaces/inkscape" sodipodi:docname="org.gnome.Software3.svg" inkscape:version="0.91 r13725"
	 xmlns="http://www.w3.org/2000/svg" xmlns:xlink="http://www.w3.org/1999/xlink" x="0px" y="0px" width="512px" height="512px"
	 viewBox="0 0 512 512" enable-background="new 0 0 512 512" xml:space="preserve">
<circle fill="#B8E5FA" cx="255.963" cy="257.547" r="255.617"/>
<path fill="#ADD8F4" d="M500.116,333.473L346.38,179.76l-0.108-0.107h-7.735l-72.201-72.192c-0.069-0.077-0.147-0.187-0.253-0.255
	c-1.022-0.989-2.414-1.571-3.943-1.571c-3.217,0-5.847,2.592-5.847,5.805c0,1.386,0.51,2.664,1.351,3.686l0.804,0.805l26.939,26.939
	c-4.229,0.33-7.59,3.839-7.59,8.151c0,1.862,0.624,3.576,1.648,4.931l1.677,1.68l22.021,22.018h-3.034l-40.133-40.132l-1.862-1.863
	c-1.68-1.35-3.834-2.119-6.173-2.119c-2.606,0-4.954,1.018-6.756,2.633l-15.19-15.194l-0.907-0.904
	c-1.17-1.022-2.664-1.608-4.309-1.608c-3.728,0-6.721,3.034-6.721,6.718c0,1.388,0.443,2.704,1.136,3.763l48.71,48.713h-32.316
	l-6.065-6.063c0-0.036-0.036-0.069-0.07-0.104l-0.208-0.218c-0.179-0.188-0.366-0.375-0.558-0.555l-0.217-0.219
	c-0.038-0.035-0.074-0.071-0.107-0.071c-0.055-0.046-0.113-0.077-0.165-0.115c-0.257-0.205-0.524-0.401-0.801-0.572
	c-0.226-0.14-0.463-0.26-0.701-0.38c-0.206-0.1-0.404-0.207-0.616-0.292c-0.333-0.133-0.68-0.228-1.038-0.314
	c-0.159-0.046-0.314-0.102-0.479-0.133c-0.531-0.101-1.078-0.164-1.641-0.164c-4.714,0-8.583,3.832-8.583,8.578
	c0,0.218,0.074,0.437,0.074,0.622h-22.276v14.059l-26.582,7.234v79.786v116.93l0.11,0.113l114.243,114.235
	C384.036,502.331,470.053,430.242,500.116,333.473z"/>
<rect x="192.135" y="179.66" fill="#A6B83D" width="154.266" height="191.505"/>
<g>
	<polygon fill="#B8D1E6" points="312.485,190.302 312.485,384.47 346.396,371.172 346.396,179.667 	"/>
	<polygon fill="#B8D1E6" points="204.763,236.768 192.13,236.768 192.13,179.667 204.763,190.302 	"/>
</g>
<g>
	<polygon fill="#D0E070" points="325.117,250.063 312.485,250.063 312.485,190.302 325.117,200.951 	"/>
	<polygon fill="#D0E070" points="165.536,222.395 204.763,222.395 204.763,190.302 165.536,200.951 	"/>
</g>
<rect x="165.525" y="200.951" fill="#FFFFFF" width="159.582" height="196.822"/>
<path fill="#C1D354" d="M245.323,255.903c-23.989,0-43.452,19.467-43.452,43.452c0,23.997,19.46,43.458,43.452,43.458
	c23.998,0,43.451-19.459,43.451-43.458C288.774,275.373,269.324,255.903,245.323,255.903z M248.896,323.502v4.538
	c0,0.952-0.394,1.806-1.01,2.521c-0.706,0.658-1.6,0.981-2.47,0.981h-0.786c-0.906,0-1.792-0.323-2.467-0.981
	c-0.661-0.716-1.004-1.569-1.004-2.521v-3.986c-5.286-0.237-10.434-1.669-13.415-3.415l2.359-9.195
	c3.313,1.854,7.962,3.484,13.104,3.484c4.501,0,7.555-1.778,7.555-4.938c0-2.973-2.502-4.893-8.339-6.823
	c-8.449-2.853-14.213-6.817-14.213-14.516c0-6.907,4.894-12.356,13.347-14.009v-3.997c0-0.899,0.32-1.809,1.013-2.454
	c0.658-0.715,1.568-1.024,2.466-1.024h0.744c0.898,0,1.807,0.31,2.503,1.024c0.671,0.646,0.995,1.555,0.995,2.454v3.478
	c5.305,0.205,8.843,1.317,11.444,2.588l-2.313,8.879c-2.019-0.817-5.659-2.65-11.326-2.65c-5.144,0-6.801,2.216-6.801,4.425
	c0,2.593,2.777,4.219,9.472,6.78c9.403,3.302,13.149,7.628,13.149,14.753C262.905,315.95,257.961,321.949,248.896,323.502z"/>
<g>
	<path fill="#5D6D7E" d="M212.211,219.496c0-3.048-2.469-5.519-5.509-5.519c-3.054,0-5.529,2.473-5.529,5.519
		c0,3.064,2.475,5.522,5.529,5.522C209.743,225.017,212.211,222.56,212.211,219.496z"/>
	<path fill="#5D6D7E" d="M289.475,219.496c0-3.048-2.475-5.519-5.516-5.519c-3.045,0-5.52,2.473-5.52,5.519
		c0,3.064,2.475,5.522,5.52,5.522C287.003,225.017,289.475,222.56,289.475,219.496z"/>
</g>
<path fill="#CEE2F2" d="M247.07,278.016h-3.487c-10.396,0-20.188-4.052-27.534-11.408c-7.359-7.361-11.417-17.14-11.417-27.556
	v-19.413c0-0.493,0.179-0.984,0.557-1.365c0.38-0.368,0.877-0.565,1.375-0.565h0.276c0.489,0,0.978,0.197,1.364,0.565
	c0.374,0.378,0.562,0.869,0.562,1.365v19.413c0,9.3,3.619,18.045,10.204,24.621c6.582,6.578,15.319,10.206,24.613,10.206h3.487
	c9.3,0,18.029-3.628,24.622-10.206c6.582-6.577,10.205-15.324,10.205-24.621v-19.413c0-0.494,0.182-0.984,0.558-1.365
	c0.377-0.368,0.866-0.565,1.361-0.565h0.274c0.494,0,0.996,0.197,1.369,0.565c0.378,0.378,0.564,0.869,0.564,1.365v19.413
	c0,10.414-4.052,20.191-11.408,27.556C267.257,273.966,257.471,278.016,247.07,278.016z"/>
<path fill="#FF9D4D" d="M231.518,179.023c0,4.742-3.839,8.573-8.583,8.573c-4.733,0-8.583-3.832-8.583-8.573s3.85-8.583,8.583-8.583
	C227.679,170.44,231.518,174.283,231.518,179.023z"/>
<path fill="#F28124" d="M222.935,186.234c-3.972,0-7.201-3.236-7.201-7.208c0-3.98,3.228-7.208,7.201-7.208
	c3.982,0,7.208,3.228,7.208,7.208C230.142,182.996,226.917,186.234,222.935,186.234z M222.935,172.498
	c-3.594,0-6.519,2.927-6.519,6.529c0,3.594,2.924,6.518,6.519,6.518c3.604,0,6.526-2.924,6.526-6.518
	C229.458,175.425,226.539,172.498,222.935,172.498z"/>
<path fill="#FF9D4D" d="M267.946,111.449c0,3.215-2.616,5.828-5.821,5.828c-3.21,0-5.812-2.612-5.812-5.828
	c0-3.206,2.602-5.811,5.812-5.811C265.33,105.638,267.946,108.243,267.946,111.449z"/>
<path fill="#F28124" d="M262.125,116.346c-2.704,0-4.895-2.192-4.895-4.897c0-2.7,2.19-4.885,4.895-4.885
	c2.693,0,4.889,2.186,4.889,4.885C267.014,114.15,264.818,116.346,262.125,116.346z M262.125,107.026
	c-2.431,0-4.418,1.978-4.418,4.423c0,2.448,1.989,4.427,4.418,4.427c2.435,0,4.421-1.981,4.421-4.427
	C266.546,109.005,264.56,107.026,262.125,107.026z"/>
<path fill="#FF9D4D" d="M262.125,145.752c0,5.632-4.556,10.187-10.18,10.187c-5.623,0-10.188-4.555-10.188-10.187
	c0-5.626,4.565-10.199,10.188-10.199C257.569,135.553,262.125,140.126,262.125,145.752z"/>
<path fill="#F28124" d="M251.945,154.313c-4.716,0-8.556-3.842-8.556-8.56c0-4.724,3.84-8.558,8.556-8.558
	c4.718,0,8.556,3.834,8.556,8.558C260.501,150.469,256.663,154.313,251.945,154.313z M251.945,138.007
	c-4.271,0-7.743,3.479-7.743,7.746c0,4.264,3.471,7.743,7.743,7.743c4.269,0,7.735-3.479,7.735-7.743
	C259.68,141.487,256.215,138.007,251.945,138.007z"/>
<circle fill="#FF9D4D" cx="288.324" cy="190.293" r="7.349"/>
<path fill="#F28124" d="M288.337,196.475c-3.397,0-6.168-2.768-6.168-6.176c0-3.402,2.771-6.166,6.168-6.166
	c3.399,0,6.17,2.763,6.17,6.166C294.507,193.707,291.736,196.475,288.337,196.475z M288.337,184.719
	c-3.076,0-5.584,2.505-5.584,5.583c0,3.085,2.507,5.59,5.584,5.59c3.082,0,5.585-2.502,5.585-5.59
	C293.922,187.227,291.421,184.719,288.337,184.719z"/>
<circle fill="#FF9D4D" cx="286.023" cy="151.031" r="8.229"/>
<path fill="#F28124" d="M286.026,157.946c-3.812,0-6.915-3.105-6.915-6.917c0-3.809,3.104-6.919,6.915-6.919
	c3.815,0,6.912,3.111,6.912,6.919S289.842,157.946,286.026,157.946z M286.026,144.775c-3.442,0-6.26,2.804-6.26,6.253
	c0,3.453,2.819,6.258,6.26,6.258c3.445,0,6.255-2.805,6.255-6.258C292.281,147.581,289.469,144.775,286.026,144.775z"/>
<circle fill="#FF9D4D" cx="224.778" cy="127.208" r="6.73"/>
<path fill="#F28124" d="M224.785,132.85c-3.114,0-5.648-2.539-5.648-5.655c0-3.117,2.535-5.652,5.648-5.652
	c3.118,0,5.65,2.537,5.65,5.652C230.435,130.313,227.9,132.85,224.785,132.85z M224.785,122.082c-2.811,0-5.112,2.296-5.112,5.113
	c0,2.82,2.301,5.115,5.112,5.115c2.822,0,5.109-2.295,5.109-5.115C229.893,124.378,227.607,122.082,224.785,122.082z"/>
</svg>
