<?xml version="1.0" encoding="utf-8"?>
<!-- Generator: Adobe Illustrator 16.0.0, SVG Export Plug-In . SVG Version: 6.00 Build 0)  -->
<!DOCTYPE svg PUBLIC "-//W3C//DTD SVG 1.1//EN" "http://www.w3.org/Graphics/SVG/1.1/DTD/svg11.dtd">
<svg version="1.1"
	 id="svg2" xmlns:dc="http://purl.org/dc/elements/1.1/" xmlns:cc="http://creativecommons.org/ns#" xmlns:rdf="http://www.w3.org/1999/02/22-rdf-syntax-ns#" xmlns:svg="http://www.w3.org/2000/svg" xmlns:sodipodi="http://sodipodi.sourceforge.net/DTD/sodipodi-0.dtd" xmlns:inkscape="http://www.inkscape.org/namespaces/inkscape" sodipodi:docname="preferences-system.svg" inkscape:version="0.91 r13725" inkscape:export-ydpi="50" inkscape:export-xdpi="50" inkscape:export-filename="/home/cecilia/corebird-new.png"
	 xmlns="http://www.w3.org/2000/svg" xmlns:xlink="http://www.w3.org/1999/xlink" x="0px" y="0px" width="512px" height="512px"
	 viewBox="0 0 512 512" enable-background="new 0 0 512 512" xml:space="preserve">
<sodipodi:namedview  units="px" showgrid="false" inkscape:cy="155.37237" inkscape:cx="154.39942" inkscape:zoom="0.53974135" borderopacity="1.0" bordercolor="#666666" pagecolor="#ffffff" id="base" inkscape:window-maximized="1" inkscape:window-y="25" inkscape:current-layer="layer1" inkscape:document-units="px" inkscape:pageopacity="0.0" inkscape:window-x="0" inkscape:window-height="721" inkscape:window-width="1360" inkscape:pageshadow="2" showguides="false">
	</sodipodi:namedview>
<ellipse fill="#C1D354" cx="257" cy="257.202" rx="255" ry="254.798"/>
<path fill="#9DB138" d="M510.797,281.772L353.24,124.369c-0.353-0.443-0.794-0.884-1.272-1.274
	c-1.681-1.409-3.759-2.206-6.088-2.206h-1.323c-5.288,0-9.57,4.316-9.57,9.563v25.416c-9.088,2.833-16.455,9.415-20.492,17.897
	l-49.389-49.354c0,0-0.043,0-0.043-0.044l-1.28-1.274c-0.044,0-0.044-0.045-0.044-0.045c-1.677-1.364-3.789-2.161-6.043-2.161
	h-1.365c-5.247,0-9.57,4.316-9.57,9.563v63.824l-69.834-69.777c-0.044-0.043-0.044-0.086-0.084-0.13l-1.28-1.274
	c-0.092-0.046-0.132-0.092-0.174-0.132c-1.631-1.328-3.659-2.072-5.902-2.072h-1.372c-5.247,0-9.518,4.317-9.518,9.563v81.981
	c-13.844,4.317-23.898,17.227-23.898,32.474c0,15.242,10.052,28.188,23.898,32.507V383.93c0,2.161,0.706,4.146,1.938,5.774
	l1.54,1.587c0.044,0.09,0.141,0.142,0.224,0.182l119.409,119.314C402.845,499.146,499.195,402.834,510.797,281.772z"/>
<path fill="#FFFFFF" d="M179.026,383.946c0,5.256-4.297,9.55-9.55,9.55h-1.365c-5.261,0-9.542-4.294-9.542-9.55V130.448
	c0-5.246,4.28-9.542,9.542-9.542h1.365c5.253,0,9.55,4.296,9.55,9.542V383.946z"/>
<ellipse fill="#FF8E31" cx="168.795" cy="244.946" rx="34.102" ry="34.074"/>
<path fill="#34495E" d="M168.79,258.57c-7.535,0-13.634-6.12-13.634-13.634c0-7.521,6.1-13.631,13.634-13.631
	c7.528,0,13.643,6.107,13.643,13.631C182.432,252.45,176.318,258.57,168.79,258.57z"/>
<path fill="#FFFFFF" d="M267.236,383.946c0,5.256-4.304,9.55-9.563,9.55h-1.35c-5.252,0-9.558-4.294-9.558-9.55V130.448
	c0-5.246,4.305-9.542,9.558-9.542h1.35c5.26,0,9.563,4.296,9.563,9.542V383.946z"/>
<path fill="#FF8E31" d="M291.097,332.156c0,18.819-15.265,34.08-34.097,34.08c-18.824,0-34.104-15.261-34.104-34.08
	c0-18.809,15.28-34.076,34.104-34.076C275.832,298.079,291.097,313.348,291.097,332.156z"/>
<path fill="#34495E" d="M257,345.796c-7.52,0-13.642-6.124-13.642-13.641c0-7.507,6.119-13.616,13.642-13.616
	c7.527,0,13.635,6.106,13.635,13.616C270.635,339.67,264.527,345.796,257,345.796z"/>
<path fill="#FFFFFF" d="M355.438,383.946c0,5.256-4.304,9.55-9.549,9.55h-1.361c-5.256,0-9.55-4.294-9.55-9.55V130.448
	c0-5.246,4.297-9.542,9.55-9.542h1.361c5.247,0,9.549,4.296,9.549,9.542V383.946z"/>
<path fill="#FF8E31" d="M379.306,188.378c0,18.814-15.269,34.072-34.104,34.072c-18.826,0-34.097-15.255-34.097-34.072
	c0-18.824,15.27-34.074,34.097-34.074C364.037,154.305,379.306,169.555,379.306,188.378z"/>
<path fill="#34495E" d="M345.202,202.002c-7.513,0-13.643-6.115-13.643-13.624c0-7.521,6.128-13.626,13.643-13.626
	c7.527,0,13.65,6.105,13.65,13.626C358.85,195.887,352.729,202.002,345.202,202.002z"/>
</svg>
