<?xml version="1.0" encoding="utf-8"?>
<!-- Generator: Adobe Illustrator 16.0.0, SVG Export Plug-In . SVG Version: 6.00 Build 0)  -->
<!DOCTYPE svg PUBLIC "-//W3C//DTD SVG 1.1//EN" "http://www.w3.org/Graphics/SVG/1.1/DTD/svg11.dtd">
<svg version="1.1"
	 id="svg2" xmlns:dc="http://purl.org/dc/elements/1.1/" xmlns:cc="http://creativecommons.org/ns#" xmlns:rdf="http://www.w3.org/1999/02/22-rdf-syntax-ns#" xmlns:svg="http://www.w3.org/2000/svg" xmlns:sodipodi="http://sodipodi.sourceforge.net/DTD/sodipodi-0.dtd" xmlns:inkscape="http://www.inkscape.org/namespaces/inkscape" sodipodi:docname="skype.svg" inkscape:version="0.91+devel r"
	 xmlns="http://www.w3.org/2000/svg" xmlns:xlink="http://www.w3.org/1999/xlink" x="0px" y="0px" width="512px" height="512px"
	 viewBox="0 0 512 512" enable-background="new 0 0 512 512" xml:space="preserve">
<sodipodi:namedview  showgrid="false" inkscape:cy="256" inkscape:cx="492.30769" inkscape:zoom="1.4843976" borderopacity="1" bordercolor="#666666" pagecolor="#ffffff" id="namedview59" inkscape:window-maximized="0" inkscape:window-y="27" inkscape:current-layer="svg2" inkscape:pageopacity="0" inkscape:window-x="0" inkscape:window-height="1026" inkscape:window-width="959" inkscape:pageshadow="2" guidetolerance="10" gridtolerance="10" objecttolerance="10">
	</sodipodi:namedview>
<g id="g33" transform="matrix(4.051497,0,0,4.051497,-5.3989211,314.99598)">
</g>
<ellipse fill="#2C318F" cx="255" cy="257.202" rx="255" ry="254.798"/>
<path fill="#151047" d="M156.018,344.908l189.989-195.037l156.558,168.646c0,0-26.18,149.401-198.122,188.692"/>
<ellipse id="path3006" fill="#FFFFFF" cx="264.605" cy="260.449" rx="111.59" ry="114.801"/>
<g id="g47" transform="matrix(17.311021,0,0,17.311021,-159.53375,-159.42123)">
	<g id="g49">
		<g id="g51">
			<path id="path53" inkscape:connector-curvature="0" fill="#00AFE2" d="M20.451,15.737c-2.477,0-4.481,2.006-4.481,4.481
				c0,0.765,0.194,1.504,0.531,2.135c-0.112,0.534-0.174,1.077-0.174,1.644c0,4.362,3.538,7.9,7.905,7.9
				c0.564,0,1.11-0.06,1.641-0.172c0.633,0.343,1.363,0.534,2.132,0.534c2.477,0,4.481-2.006,4.481-4.481
				c0-0.77-0.194-1.504-0.534-2.137c0.112-0.531,0.172-1.077,0.172-1.641c0-4.359-3.538-7.9-7.9-7.9
				c-0.566,0-1.112,0.057-1.644,0.172c-0.63-0.337-1.37-0.534-2.135-0.534 M24.071,19.016c2.468,0,3.742,1.298,3.742,2.06
				c0,0.765-0.367,0.879-0.973,0.879c-1.177,0-0.695-1.413-2.9-1.413c-0.73,0-1.641,0.332-1.641,1.182
				c0,0.683,0.807,0.934,2.232,1.284c2.148,0.573,3.759,1.145,3.759,3.108c0,1.907-1.559,2.863-4.027,2.863
				c-2.468,0-4.044-1.47-4.044-2.232c0-0.762,0.29-0.953,0.896-0.953c1.179,0,1.02,1.603,3.225,1.603
				c0.732,0,1.813-0.332,1.813-1.184c0-0.68-0.057-0.916-1.621-1.336c-1.671-0.226-4.369-0.767-4.369-2.843
				c0-1.907,1.445-3.016,3.912-3.016"/>
		</g>
	</g>
</g>
</svg>
