<?xml version="1.0" encoding="utf-8"?>
<!-- Generator: Adobe Illustrator 16.0.0, SVG Export Plug-In . SVG Version: 6.00 Build 0)  -->
<!DOCTYPE svg PUBLIC "-//W3C//DTD SVG 1.1//EN" "http://www.w3.org/Graphics/SVG/1.1/DTD/svg11.dtd">
<svg version="1.1"
	 id="svg2" xmlns:dc="http://purl.org/dc/elements/1.1/" xmlns:cc="http://creativecommons.org/ns#" xmlns:rdf="http://www.w3.org/1999/02/22-rdf-syntax-ns#" xmlns:svg="http://www.w3.org/2000/svg" xmlns:sodipodi="http://sodipodi.sourceforge.net/DTD/sodipodi-0.dtd" xmlns:inkscape="http://www.inkscape.org/namespaces/inkscape" sodipodi:docname="steam.svg" inkscape:version="0.91+devel r14055 custom"
	 xmlns="http://www.w3.org/2000/svg" xmlns:xlink="http://www.w3.org/1999/xlink" x="0px" y="0px" width="512px" height="512px"
	 viewBox="0 0 512 512" enable-background="new 0 0 512 512" xml:space="preserve">
<ellipse fill="#242163" cx="256" cy="256" rx="255" ry="254.798"/>
<path fill="#1A134E" d="M107.999,266.432L256,296.483L385.47,175.54L508.78,289.731c0,0-22.765,201.997-243.022,220.883"/>
<sodipodi:namedview  showgrid="false" inkscape:cy="256" inkscape:cx="256" inkscape:zoom="1" borderopacity="1" bordercolor="#666666" pagecolor="#ffffff" id="namedview4" inkscape:window-maximized="1" inkscape:window-y="32" inkscape:current-layer="svg2" inkscape:document-units="px" inkscape:pageopacity="0" inkscape:window-x="0" inkscape:window-height="1008" inkscape:window-width="1920" inkscape:pageshadow="2" guidetolerance="10" gridtolerance="10" objecttolerance="10">
	</sodipodi:namedview>
<path id="path3009" sodipodi:nodetypes="sssssssssssssscsscsssssscsss" inkscape:connector-curvature="0" fill="#245DC4" d="
	M249.76,362.803c-14.092-3.874-25.556-12.893-31.946-25.792c-2.93-5.912-6.68-21.063-5.666-22.093
	c0.229-0.233,5.65,4.887,8.691,6.957c3.042,2.07,5.754,4.033,5.754,4.033c0.381,0.296,4.973,3.586,11.124,8.127
	c13.069,9.65,16.769,10.684,24.582,10.746c10.679,0.085,19.563-4.575,25.262-13.251c5.069-7.717,6.599-17.612,4.024-26.022
	c-2.77-9.046-6.763-13.374-20.324-22.029c-5.112-3.262-10.384-6.307-11.692-7.033c-1.157-0.644-8.682-4.229-11.535-6.195
	c-1.684-1.16-3.934-2.618-3.688-2.748c1.517-0.793,4.607-0.835,9.242-2.271l2.826-0.876l7.368-11.511
	c3.998-6.244,8.121-12.894,9.173-14.897c2.149-4.095,4.767-8.532,5.214-9.045c0.286-0.029,0.725,3.659,0.955,6.165
	c1.023,11.099,7.061,25.461,14.822,35.26c10.556,13.327,28.173,23.431,44.197,25.349c2.1,0.251,4.098,0.181,4.098,0.49
	c0,0.684-5.458,4.438-7.251,5.479c-0.667,0.387-6.393,4.012-12.584,8.36l-11.258,7.906l-1.106,5.736
	c-3.494,18.099-15.706,32.314-32.807,38.192C269.869,364.369,257.092,364.817,249.76,362.803L249.76,362.803z"/>
<path id="path3007" sodipodi:nodetypes="sssssscssssssssss" inkscape:connector-curvature="0" fill="#245DC4" d="M141.454,289.144
	c-22.548-3.932-38.605-22.497-41.115-44.944c-2.723-24.361,11.674-45.954,35.296-53.429c6.444-2.039,19.183-2.214,25.867-0.355
	c8.784,2.443,17.137,7.585,23.497,14.26c3.716,3.9,6.26,8.489,9.116,12.934c3.134,4.877,6.067,19.992,5.332,20.74
	c-0.189,0.193-4.749-5.15-7.476-7.273c-2.545-1.982-5.073-4.179-5.525-4.444c-0.391-0.229-5.374-4.01-11.368-8.156
	c-12.706-8.788-17.453-10.203-25.016-10.224c-8.237-0.024-15.021,2.57-20.601,7.876c-11.169,10.622-13.144,27.037-4.791,39.831
	c2.482,3.801,6.551,7.722,9.817,9.46c4.523,2.406,33.902,20.024,33.952,20.814c0.056,0.87-4.584,2.42-10.179,3.07
	C152.184,290.011,144.983,289.759,141.454,289.144z"/>
<path id="path2992-3" inkscape:connector-curvature="0" opacity="0.3" enable-background="new    " d="M346.052,168.776
	c-10.49-0.077-16.96,1.049-25.497,4.439c-23.41,9.294-40.189,31.988-41.698,56.399c-0.177,2.849-0.296,4.419-0.704,5.823
	c0.004-0.004,0.013-0.019,0.017-0.023c0.286-0.028,0.725,3.66,0.956,6.166c1.022,11.1,7.06,25.46,14.821,35.259
	c10.558,13.327,28.173,23.43,44.197,25.349c1.962,0.234,3.836,0.188,4.072,0.435c1.306-0.467,3.295-0.666,7.513-0.884
	c15.929-0.821,30.861-7.546,42.556-19.165c19.997-19.868,25.35-50.012,13.407-75.509c-8.515-18.18-24.311-31.28-44.006-36.498
	C356.221,169.12,353.702,168.832,346.052,168.776L346.052,168.776z M150.062,214.767c-8.238-0.023-15.021,2.569-20.601,7.875
	c-11.169,10.622-13.144,27.037-4.791,39.831c2.481,3.801,6.55,7.723,9.816,9.461c4.523,2.406,33.902,20.023,33.953,20.813
	c0.002,0.028-0.014,0.059-0.021,0.088l0.265-0.094l8.238,5.368c4.53,2.953,14.28,9.393,21.664,14.309l13.426,8.938l0.035,0.301
	c0.026-0.099,0.059-0.181,0.103-0.226c0.229-0.232,5.649,4.887,8.691,6.957c3.042,2.069,5.754,4.034,5.754,4.034
	c0.381,0.296,4.974,3.585,11.125,8.127c13.068,9.65,16.769,10.684,24.581,10.745c10.679,0.086,19.563-4.574,25.261-13.25
	c5.069-7.717,6.601-17.612,4.025-26.023c-2.769-9.045-6.763-13.375-20.324-22.028c-5.112-3.263-10.385-6.307-11.692-7.033
	c-1.157-0.644-8.682-4.23-11.534-6.196c-1.65-1.136-3.837-2.556-3.695-2.735c-2.171-0.802-8.68-4.912-22.705-14.292l-22.147-14.814
	l-0.013-0.115c-0.009,0.019-0.018,0.044-0.029,0.056c-0.19,0.192-4.749-5.15-7.475-7.273c-2.545-1.982-5.073-4.179-5.525-4.444
	c-0.391-0.229-5.374-4.009-11.368-8.155C162.372,216.203,157.625,214.788,150.062,214.767z M197.42,232.81
	c0.426,1.567,0.806,3.154,1.124,4.646C198.255,235.888,197.885,234.337,197.42,232.81z M269.898,249.62
	c-0.743,1.198-1.25,2.014-2.053,3.308C268.58,251.754,269.269,250.646,269.898,249.62z M212.747,327.428
	c0.636,4.081,1.746,8.01,3.29,11.72C214.748,335.479,213.51,330.986,212.747,327.428z"/>
<path id="path2992" fill="#91B0E8" d="M346.052,162.262c-10.49-0.076-16.96,1.05-25.497,4.439
	c-23.41,9.294-40.189,31.988-41.698,56.399c-0.177,2.849-0.296,4.419-0.704,5.823c0.004-0.004,0.013-0.019,0.017-0.022
	c0.286-0.029,0.725,3.659,0.956,6.165c1.022,11.1,7.06,25.461,14.821,35.26c10.558,13.327,28.173,23.43,44.197,25.349
	c1.962,0.234,3.836,0.188,4.072,0.435c1.306-0.467,3.295-0.667,7.513-0.884c15.929-0.821,30.861-7.546,42.556-19.166
	c19.997-19.867,25.35-50.011,13.407-75.508c-8.515-18.18-24.311-31.28-44.006-36.497
	C356.221,162.605,353.702,162.317,346.052,162.262z M150.062,208.253c-8.238-0.024-15.021,2.569-20.601,7.875
	c-11.169,10.622-13.144,27.037-4.791,39.831c2.481,3.801,6.55,7.723,9.816,9.46c4.523,2.406,33.902,20.024,33.953,20.814
	c0.002,0.028-0.014,0.059-0.021,0.088l0.265-0.095l8.238,5.369c4.53,2.953,14.28,9.392,21.664,14.308l13.426,8.939l0.035,0.3
	c0.026-0.098,0.059-0.18,0.103-0.225c0.229-0.233,5.649,4.887,8.691,6.956c3.042,2.07,5.754,4.034,5.754,4.034
	c0.381,0.296,4.974,3.586,11.125,8.128c13.068,9.649,16.769,10.683,24.581,10.745c10.679,0.085,19.563-4.575,25.261-13.25
	c5.069-7.718,6.601-17.613,4.025-26.023c-2.769-9.045-6.763-13.375-20.324-22.029c-5.112-3.262-10.385-6.306-11.692-7.033
	c-1.157-0.644-8.682-4.229-11.534-6.195c-1.65-1.137-3.837-2.556-3.695-2.735c-2.171-0.802-8.68-4.912-22.705-14.293l-22.147-14.814
	l-0.013-0.115c-0.009,0.019-0.018,0.044-0.029,0.056c-0.19,0.193-4.749-5.15-7.475-7.273c-2.545-1.982-5.073-4.179-5.525-4.444
	c-0.391-0.229-5.374-4.01-11.368-8.155C162.372,209.689,157.625,208.274,150.062,208.253z M197.42,226.296
	c0.426,1.567,0.806,3.154,1.124,4.646C198.255,229.374,197.885,227.823,197.42,226.296z M269.898,243.106
	c-0.743,1.198-1.25,2.014-2.053,3.308C268.58,245.24,269.269,244.133,269.898,243.106z M212.747,320.914
	c0.636,4.081,1.746,8.009,3.29,11.72C214.748,328.966,213.51,324.473,212.747,320.914z"/>
<path id="path2988" inkscape:connector-curvature="0" opacity="0.3" fill-opacity="0.9961" enable-background="new    " d="
	M336.189,278.511c-9.816-2.203-20.088-8.804-25.946-16.676c-6.927-9.307-9.905-18.981-9.395-30.516
	c0.835-18.875,12.821-35.105,30.477-41.265c5.082-1.772,6.28-1.926,14.822-1.893c8.763,0.034,9.608,0.157,14.786,2.152
	c11.461,4.416,19.913,12.084,25.111,22.784c3.871,7.966,5.146,14.198,4.697,22.946c-0.99,19.285-13.199,35.367-31.317,41.255
	C352.615,279.512,342.907,280.019,336.189,278.511L336.189,278.511z"/>
<path id="path2988-5" inkscape:connector-curvature="0" fill="#245DC4" d="M336.189,271.997
	c-9.816-2.203-20.088-8.805-25.946-16.676c-6.927-9.306-9.905-18.981-9.395-30.516c0.835-18.875,12.821-35.104,30.477-41.265
	c5.082-1.773,6.28-1.926,14.822-1.893c8.763,0.034,9.608,0.157,14.786,2.152c11.461,4.417,19.913,12.085,25.111,22.784
	c3.871,7.966,5.146,14.198,4.697,22.946c-0.99,19.285-13.199,35.368-31.317,41.255C352.615,272.998,342.907,273.504,336.189,271.997
	L336.189,271.997z"/>
</svg>
