<?xml version="1.0" encoding="utf-8"?>
<!-- Generator: Adobe Illustrator 16.0.0, SVG Export Plug-In . SVG Version: 6.00 Build 0)  -->
<!DOCTYPE svg PUBLIC "-//W3C//DTD SVG 1.1//EN" "http://www.w3.org/Graphics/SVG/1.1/DTD/svg11.dtd">
<svg version="1.1"
	 id="svg3752" xmlns:dc="http://purl.org/dc/elements/1.1/" xmlns:cc="http://creativecommons.org/ns#" xmlns:rdf="http://www.w3.org/1999/02/22-rdf-syntax-ns#" xmlns:svg="http://www.w3.org/2000/svg" xmlns:sodipodi="http://sodipodi.sourceforge.net/DTD/sodipodi-0.dtd" xmlns:inkscape="http://www.inkscape.org/namespaces/inkscape" sodipodi:docname="thunder223.svg" inkscape:version="0.48.4 r9939" inkscape:export-ydpi="90" inkscape:export-xdpi="90" inkscape:export-filename="/home/silerio/Imágenes/iconos/email2.png"
	 xmlns="http://www.w3.org/2000/svg" xmlns:xlink="http://www.w3.org/1999/xlink" x="0px" y="0px" width="512px" height="512px"
	 viewBox="0 0 512 512" enable-background="new 0 0 512 512" xml:space="preserve">
<ellipse fill="#005E82" cx="254.75" cy="254.5" rx="254.75" ry="254.5"/>
<path fill="#003348" d="M120.07,362.694L407.5,213.739l100.104,71.927c0,0-13.049,193.201-240.076,223.018"/>
<sodipodi:namedview  units="px" width="512px" showgrid="true" inkscape:cy="295.47802" inkscape:cx="654.06924" inkscape:zoom="0.3535534" borderopacity="1.0" bordercolor="#666666" pagecolor="#ffffff" id="base" inkscape:window-maximized="1" inkscape:window-y="25" inkscape:current-layer="layer1" inkscape:document-units="px" inkscape:pageopacity="0.0" inkscape:window-x="0" inkscape:window-height="717" inkscape:window-width="1360" inkscape:pageshadow="2" inkscape:guide-bbox="true" inkscape:grid-bbox="true" showguides="true">
	</sodipodi:namedview>
<g id="layer1" transform="translate(0,464.00004)" inkscape:label="Layer 1" inkscape:groupmode="layer">
	<path id="path3846" sodipodi:nodetypes="cccsccccsccc" inkscape:connector-curvature="0" fill="#686868" d="M260.632-361.435
		c-1.47,0.033-2.922,0.577-4.05,1.519l-116.598,97.848c-1.654,1.384-2.548,3.624-2.303,5.766c0.246,2.143,1.624,4.122,3.547,5.096
		l119.508,60.514c1.829,0.928,4.1,0.928,5.928,0l119.509-60.514c1.952-0.982,3.344-2.999,3.569-5.173
		c0.226-2.173-0.722-4.433-2.43-5.795L264.893-360C263.698-360.957,262.16-361.474,260.632-361.435L260.632-361.435z"/>
	<g>
		<defs>
			<path id="SVGID_1_" d="M260.632-361.435c-1.47,0.033-2.922,0.577-4.05,1.519l-116.598,97.848
				c-1.654,1.384-2.548,3.624-2.303,5.766c0.246,2.143,1.624,4.122,3.547,5.096l119.508,60.514c1.829,0.928,4.1,0.928,5.928,0
				l119.509-60.514c1.952-0.982,3.344-2.999,3.569-5.173c0.226-2.173-0.722-4.433-2.43-5.795L264.893-360
				C263.698-360.957,262.16-361.474,260.632-361.435z"/>
		</defs>
		<clipPath id="SVGID_2_">
			<use xlink:href="#SVGID_1_"  overflow="visible"/>
		</clipPath>
		
			<path id="path4020" sodipodi:nodetypes="ccccccc" inkscape:connector-curvature="0" clip-path="url(#SVGID_2_)" fill-opacity="0.1457" d="
			M138.826-276.237L263.267-178l124.44-97.018l5.641,24.109L262.358-98.659L134.067-250.832L138.826-276.237z"/>
	</g>
	<path id="rect3820" fill="#65AEE5" d="M184.092-338.685h159.232c10.166,0,18.406,8.241,18.406,18.406v179.942
		c0,10.164-8.24,18.405-18.406,18.405H184.092c-10.166,0-18.406-8.241-18.406-18.405v-179.942
		C165.686-330.444,173.926-338.685,184.092-338.685z"/>
	<path id="path3005" inkscape:connector-curvature="0" fill="#FAFDF5" d="M325.269-318.417c-6.955,0.528-24.658,8.91-31.198,16.529
		l-12.515,19.451c-2.239-4.346,0.619-10.857,3.955-17.592c0,0-19.818,9.545-25.798,18.211c-4.152,6.02-5.46,21.251-5.46,21.251
		l-3.365-13.961c-16.651,21.614-30.278,44.007-28.513,70.426c46.5-67.14,62.645-72.532,89.847-93.803
		c-33.217,28.371-61.291,60.778-83.176,98.053c13.177-0.882,28.507-7.353,47.343-22.787c-3.573-1.856-6.543-4.006-8.5-6.67
		l7.438-1.919c10.848-2.805,11.024-2.513,17.622-12.456l11.393-15.083c-3.731-0.193-8.007,0.476-13.371-1.21l9.239-4.605
		c4.63-2.315,7.657-3.378,9.977-5.283C317.479-276.007,329.373-309.641,325.269-318.417z M223.733-204.16l-14.788,25.826
		l6.818-0.323l12.987-22.64L223.733-204.16z"/>
	<path id="path4170" fill-opacity="0.201" d="M165.68-250.261v8.35l83.999,54.654l14.03,9.133l13.829-8.992l84.199-54.795v-8.35
		l-91.746,59.712c-2.363-0.736-4.776-1.144-7.266-1.084c-1.805,0.044-3.651,0.346-5.561,0.903L165.68-250.261z"/>
	<g id="g4148" transform="translate(-468.10469,2.8284271)">
		<path id="rect4129" sodipodi:nodetypes="scssssssss" inkscape:connector-curvature="0" fill="#D9D9D9" d="M604.781-263.612
			l127.031,82.658l127.031-82.658c8.547-5.562,18.406,8.209,18.406,18.406v133.102c0,10.196-8.209,18.405-18.406,18.405H604.781
			c-10.197,0-18.406-8.209-18.406-18.405v-133.102C586.375-255.403,594.584-263.612,604.781-263.612L604.781-263.612z"/>
		<path id="rect4115" sodipodi:nodetypes="csscccccccc" inkscape:connector-curvature="0" fill="#ECECEC" d="M871.165-98.517
			c-3.326,3.327-7.928,5.379-13.027,5.379H605.5c-5.099,0-9.7-2.052-13.027-5.379l69.673-46.806l34.836-23.403l17.418-11.7
			c13.804-10.725,24.074-7.189,34.836,0l17.419,11.7l34.836,23.403L871.165-98.517z"/>
		<g>
			<defs>
				<path id="SVGID_3_" d="M604.781-263.612l127.031,82.658l127.031-82.658c8.547-5.562,18.406,8.209,18.406,18.406v133.102
					c0,10.196-8.209,18.405-18.406,18.405H604.781c-10.197,0-18.406-8.209-18.406-18.405v-133.102
					C586.375-255.403,594.584-263.612,604.781-263.612L604.781-263.612z"/>
			</defs>
			<clipPath id="SVGID_4_">
				<use xlink:href="#SVGID_3_"  overflow="visible"/>
			</clipPath>
			
				<path id="path4132" sodipodi:nodetypes="sccsccccccccccsccs" inkscape:connector-curvature="0" clip-path="url(#SVGID_4_)" fill-opacity="0.1256" d="
				M730.341-190.838c-5.203,0.127-11.672-0.553-17.929,4.32c-43.062,28.982-80.794,59.566-125.381,89.605
				c3.446,3.455,8.207,3.782,13.488,3.782h4.978c-5.099,0-9.7-2.053-13.026-5.379l69.667-46.807l34.844-23.403l17.422-11.702
				c13.805-10.724,24.062-7.188,34.824,0l17.422,11.702l34.844,23.403l69.668,46.807c-3.327,3.326-7.929,5.379-13.026,5.379h4.074
				c5.281,0,9.588-0.327,13.034-3.782c-41.546-27.989-84.373-64.295-122.656-90.06C746.317-191.171,737.031-190.999,730.341-190.838
				z"/>
		</g>
		<path id="path4143" inkscape:connector-curvature="0" fill="#FFFFFF" fill-opacity="0.1357" d="M730.823-187.205
			c-5.024,0.122-10.38,2.093-16.419,6.784l-17.422,11.702l-34.844,23.403l-69.667,46.807c0.365,0.366,0.749,0.71,1.144,1.044
			l68.524-46.044l34.844-23.403l17.422-11.702c13.805-10.725,24.062-7.188,34.824,0l17.422,11.702l34.844,23.403l68.524,46.044
			c0.395-0.334,0.777-0.678,1.144-1.044l-69.668-46.807l-34.844-23.403l-17.422-11.702
			C743.174-184.464,737.281-187.361,730.823-187.205z"/>
	</g>
</g>
</svg>
