<?xml version="1.0" encoding="utf-8"?>
<!-- Generator: Adobe Illustrator 16.0.0, SVG Export Plug-In . SVG Version: 6.00 Build 0)  -->
<!DOCTYPE svg PUBLIC "-//W3C//DTD SVG 1.1//EN" "http://www.w3.org/Graphics/SVG/1.1/DTD/svg11.dtd">
<svg version="1.1"
	 id="svg2985" xmlns:dc="http://purl.org/dc/elements/1.1/" xmlns:cc="http://creativecommons.org/ns#" xmlns:rdf="http://www.w3.org/1999/02/22-rdf-syntax-ns#" xmlns:svg="http://www.w3.org/2000/svg" xmlns:sodipodi="http://sodipodi.sourceforge.net/DTD/sodipodi-0.dtd" xmlns:inkscape="http://www.inkscape.org/namespaces/inkscape" sodipodi:docname="vlc.svg" inkscape:version="0.48.4 r9939"
	 xmlns="http://www.w3.org/2000/svg" xmlns:xlink="http://www.w3.org/1999/xlink" x="0px" y="0px" width="512px" height="512px"
	 viewBox="0 0 512 512" enable-background="new 0 0 512 512" xml:space="preserve">
<circle fill="#A070B0" cx="256" cy="256" r="255.75"/>
<path fill="#CB99C5" d="M133.5,375.772l138.512-257.727L509.37,220.992c0,0,32.001,213.102-187.935,282.305"/>
<sodipodi:namedview  showgrid="true" inkscape:cy="13.888769" inkscape:cx="23.972779" inkscape:zoom="0.21875" borderopacity="1.0" bordercolor="#666666" pagecolor="#ffffff" id="base" inkscape:window-maximized="1" inkscape:window-y="25" inkscape:current-layer="layer1" inkscape:document-units="px" inkscape:pageopacity="0.0" inkscape:window-x="0" inkscape:window-height="721" inkscape:window-width="1360" inkscape:pageshadow="2" inkscape:guide-bbox="true" inkscape:grid-bbox="true" showguides="true">
	</sodipodi:namedview>
<g id="layer1" transform="translate(0,464)" inkscape:label="Layer 1" inkscape:groupmode="layer">
	<path id="path3813" sodipodi:nodetypes="ccccc" inkscape:connector-curvature="0" fill="#E4D4B9" d="M154.808-223.304
		l185.694-65.507v51.504l-185.694,65.506V-223.304z"/>
	<path id="path3937" sodipodi:nodetypes="ccc" inkscape:connector-curvature="0" fill="#D57B13" d="M243.392-345.584
		c10.801-2.508,18.839-1.701,28.65-0.027C263.843-339.861,253.739-340.165,243.392-345.584L243.392-345.584z"/>
	<path id="path3949" inkscape:connector-curvature="0" fill-opacity="0.0891" d="M339.787-238.203l-25.402,2.747l2.061-15.104
		L339.787-238.203z"/>
	<path id="path3953" inkscape:connector-curvature="0" fill-opacity="0.0891" d="M156.026-223.557l39.819,5.492l-18.766,16.477
		L156.026-223.557z"/>
	<path id="path2999" sodipodi:nodetypes="csssscscsssscc" inkscape:connector-curvature="0" fill="#F08B29" d="M243.288-345.954
		c-2.316,5.111-4.633,10.223-6.95,15.334c-4.633,10.223-9.266,20.446-13.898,30.668c-4.633,10.222-9.266,20.445-13.899,30.667
		c-4.632,10.223-9.265,20.445-13.898,30.668c-18.532,40.892-37.063,81.781-55.595,122.672c39.534,0,79.068,0,118.603,0
		c39.534,0,79.069,0,118.603,0c-18.531-40.891-37.063-81.78-55.595-122.672c-4.633-10.223-9.267-20.445-13.899-30.668
		s-9.266-20.445-13.898-30.667c-4.633-10.223-9.266-20.446-13.898-30.668c-2.317-5.111-4.634-10.223-6.949-15.334
		C261.434-340.706,254.092-341.712,243.288-345.954z"/>
	<path id="path3152" inkscape:connector-curvature="0" fill="#F1EAD6" d="M191.419-336.229l-14.383,52.17l163.845,46.249
		l-0.563-53.017L191.419-336.229z M155.04-223.71v55.837l215.452,47.658c14.162,3.572,30.384-6.552,33.276-20.868
		c2.895-14.315-8.123-29.939-22.561-32.148L155.04-223.71z"/>
	<path id="rect3939" fill="#F29740" d="M128.733-117.878h267.501c8.188,0,14.826,6.638,14.826,14.825l0,0
		c0,8.188-6.639,14.825-14.826,14.825H128.733c-8.188,0-14.826-6.637-14.826-14.825l0,0
		C113.908-111.24,120.545-117.878,128.733-117.878z"/>
	<path id="path3943" inkscape:connector-curvature="0" fill="#FFFFFF" fill-opacity="0.2228" d="M243.33-345.901l-0.4,1.001
		c13.125,5.642,21.436,3.564,29.634,0.4l-0.6-1.401C261.387-340.653,254.135-341.659,243.33-345.901z"/>
	
		<path id="path3955" inkscape:connector-curvature="0" fill="none" stroke="#848C9E" stroke-width="12.9078" stroke-dasharray="12.9078,25.8156" d="
		M193.099-329.282l140.968,45.769"/>
	
		<path id="path3957" inkscape:connector-curvature="0" fill="none" stroke="#848C9E" stroke-width="12.9078" stroke-dasharray="12.9078,25.8156" d="
		M185.776-289.921l148.291,42.107"/>
	
		<path id="path3959" inkscape:connector-curvature="0" fill="none" stroke="#848C9E" stroke-width="12.9078" stroke-dasharray="12.9078,25.8156" d="
		M158.314-213.029l218.774,51.261"/>
	
		<path id="path3963" inkscape:connector-curvature="0" fill="none" stroke="#848C9E" stroke-width="12.9078" stroke-dasharray="12.9078,25.8156" d="
		M161.044-176.605l211.008,46.604"/>
	<path id="rect3968" inkscape:connector-curvature="0" fill="#FFFFFF" fill-opacity="0.1634" d="M128.793-117.831
		c-7.663,0-13.812,5.773-14.617,13.216c1.377-6.769,7.431-11.813,14.617-11.813h267.517c8.012,0,14.504,6.284,14.818,14.217
		c0.014-0.266,0-0.532,0-0.801c0-8.214-6.604-14.818-14.818-14.818H128.793z"/>
	<g>
		<defs>
			<path id="SVGID_1_" d="M243.288-345.954c-2.316,5.111-4.633,10.223-6.95,15.334c-4.633,10.223-9.266,20.446-13.898,30.668
				c-4.633,10.222-9.266,20.445-13.899,30.667c-4.632,10.223-9.265,20.445-13.898,30.668
				c-18.532,40.892-37.063,81.781-55.595,122.672c39.534,0,79.068,0,118.603,0s79.069,0,118.603,0
				c-18.531-40.891-37.063-81.78-55.595-122.672c-4.633-10.223-9.267-20.445-13.899-30.668s-9.266-20.445-13.898-30.667
				c-4.633-10.223-9.266-20.446-13.898-30.668c-2.317-5.111-4.634-10.223-6.949-15.334
				C261.434-340.706,254.092-341.712,243.288-345.954z"/>
		</defs>
		<clipPath id="SVGID_2_">
			<use xlink:href="#SVGID_1_"  overflow="visible"/>
		</clipPath>
		<path id="path3973" inkscape:connector-curvature="0" clip-path="url(#SVGID_2_)" fill="#FFFFFF" fill-opacity="0.0941" d="
			M269.99-342.097c-4.577,10.069-46.684,230.674-46.684,230.674l-108.93,10.984l82.383-283.766L269.99-342.097z"/>
	</g>
	<g>
		<defs>
			<path id="SVGID_3_" d="M243.288-345.954c-2.316,5.111-4.633,10.223-6.95,15.334c-4.633,10.223-9.266,20.446-13.898,30.668
				c-4.633,10.222-9.266,20.445-13.899,30.667c-4.632,10.223-9.265,20.445-13.898,30.668
				c-18.532,40.892-37.063,81.781-55.595,122.672c39.534,0,79.068,0,118.603,0s79.069,0,118.603,0
				c-18.531-40.891-37.063-81.78-55.595-122.672c-4.633-10.223-9.267-20.445-13.899-30.668s-9.266-20.445-13.898-30.667
				c-4.633-10.223-9.266-20.446-13.898-30.668c-2.317-5.111-4.634-10.223-6.949-15.334
				C261.434-340.706,254.092-341.712,243.288-345.954z"/>
		</defs>
		<clipPath id="SVGID_4_">
			<use xlink:href="#SVGID_3_"  overflow="visible"/>
		</clipPath>
		<path id="path3983" inkscape:connector-curvature="0" clip-path="url(#SVGID_4_)" fill-opacity="0.1386" d="M177.852-283.828
			l-0.6,1.602l161.993,52.462l0.199-8.41L177.852-283.828z M340.244-283.027l0.2,8.41l0.2-8.21L340.244-283.027z M153.022-222.755
			l-2.202,55.865l187.623,49.059h52.062c3.615-3.309,6.523-7.477,7.81-12.214c-6.611,7.948-17.725,12.36-27.833,9.811
			l-215.456-47.656v-54.264L153.022-222.755z"/>
	</g>
</g>
</svg>
