<?xml version="1.0" encoding="utf-8"?>
<!-- Generator: Adobe Illustrator 16.0.0, SVG Export Plug-In . SVG Version: 6.00 Build 0)  -->
<!DOCTYPE svg PUBLIC "-//W3C//DTD SVG 1.1//EN" "http://www.w3.org/Graphics/SVG/1.1/DTD/svg11.dtd">
<svg version="1.1"
	 id="svg4204" xmlns:dc="http://purl.org/dc/elements/1.1/" xmlns:cc="http://creativecommons.org/ns#" xmlns:rdf="http://www.w3.org/1999/02/22-rdf-syntax-ns#" xmlns:svg="http://www.w3.org/2000/svg" xmlns:sodipodi="http://sodipodi.sourceforge.net/DTD/sodipodi-0.dtd" xmlns:inkscape="http://www.inkscape.org/namespaces/inkscape" sodipodi:docname="folder usar.svg" inkscape:version="0.91 r13725" xmlns:osb="http://www.openswatchbook.org/uri/2009/osb"
	 xmlns="http://www.w3.org/2000/svg" xmlns:xlink="http://www.w3.org/1999/xlink" x="0px" y="0px" width="512px" height="512px"
	 viewBox="0 0 512 512" enable-background="new 0 0 512 512" xml:space="preserve">
<sodipodi:namedview  units="px" showgrid="false" inkscape:cy="280.56683" inkscape:cx="261.90647" inkscape:zoom="0.49497475" borderopacity="1.0" bordercolor="#666666" pagecolor="#ffffff" id="base" inkscape:window-maximized="1" inkscape:window-y="24" inkscape:current-layer="layer1" inkscape:document-units="px" inkscape:pageopacity="0.0" inkscape:window-x="0" inkscape:window-height="716" inkscape:window-width="1360" inkscape:pageshadow="2" showguides="false">
	</sodipodi:namedview>
<path fill="#F6C358" d="M472.704,442.008H73.426c-14.7,0-26.618-11.917-26.618-26.617V113.088c0-11.761,9.533-21.295,21.293-21.295
	h95.912c5.869,0,11.476,2.421,15.5,6.694l37.547,39.853c4.023,4.269,9.632,6.692,15.5,6.692h245.462
	c11.762,0,21.297,9.535,21.297,21.296v249.063C499.321,430.091,487.402,442.008,472.704,442.008z"/>
<path fill="#FCD462" d="M448.566,417.874H49.291c-14.699,0-26.617-11.916-26.617-26.617V88.954c0-11.761,9.533-21.294,21.293-21.294
	h95.912c5.869,0,11.475,2.421,15.499,6.692l37.547,39.853c4.024,4.27,9.632,6.693,15.5,6.693h245.462
	c11.762,0,21.297,9.534,21.297,21.293v249.069C475.188,405.958,463.269,417.874,448.566,417.874z"/>
<path fill="#EBF0F3" d="M357.561,270.139c0,28.178-10.748,53.786-28.351,73.107c-19.835,21.837-48.471,35.498-80.251,35.498
	c-31.837,0-60.418-13.661-80.309-35.498c-17.607-19.321-28.293-44.928-28.293-73.107c0-60.017,48.585-108.604,108.603-108.604
	C308.919,161.537,357.561,210.122,357.561,270.139z"/>
<path fill="#2D93BA" d="M329.21,343.246c-19.835,21.837-48.471,35.498-80.251,35.498c-31.837,0-60.418-13.661-80.309-35.498
	c4.801-10.861,14.175-19.376,26.065-22.808l28.351-8.173l7.715-2.229l18.176-5.201l18.292,5.257l7.546,2.171l28.35,8.176
	C315.035,323.87,324.409,332.385,329.21,343.246z"/>
<path fill="#F6C358" d="M276.636,325.774c0,18.609-55.41,18.609-55.41,0l5.932-43.832h43.55L276.636,325.774z"/>
<path fill="#64798A" d="M299.272,259.84c1.497-3.947,2.844-8.049,2.806-12.27c-0.044-4.572-1.709-8.954-3.384-13.208
	c-2.715-6.89-5.581-13.856-10.245-19.61c-6.632-8.18-16.405-13.266-26.446-16.441c-7.817-2.474-17.099-3.679-23.584,1.338
	c-1.13,0.875-2.188,1.942-3.565,2.316c-1.585,0.432-3.239-0.143-4.854-0.431c-7.805-1.404-15.108,3.795-21.337,8.7
	c-2.479,1.953-4.993,3.943-6.828,6.51c-2.314,3.245-3.39,7.199-4.202,11.101c-1.466,7.038-2.225,14.293-1.332,21.424
	c0.771,6.134,2.742,12.043,4.704,17.904c2.171,6.486,5.576,14.055,12.352,14.978c5.69,0.776,10.623-3.671,16.06-5.515
	c3.826-1.296,7.951-1.293,11.993-1.276c7.961,0.03,15.92,0.065,23.88,0.098c3.749,0.014,7.519,0.019,11.253,0.399
	c3.46,0.349,8.433,2.87,11.65,2.611C293.948,278.002,297.327,264.971,299.272,259.84z"/>
<path fill="#FCD462" d="M293.388,264.367c-2.055,18.698-21.145,52.564-44.39,52.564c-24.616,0-44.571-37.976-44.571-55.704
	c4.985-4.194,10.688-7.838,15.673-12.034c1.994-1.678,3.993-3.359,5.79-5.247c3.295-3.462,5.866-7.606,7.532-12.086
	c0.715-1.922,3.291-2.245,4.473-0.568l6.867,9.744c1.442,2.045,2.934,4.143,5.03,5.509c3.745,2.44,8.573,2.08,13.041,1.964
	c5.144-0.133,10.295,0.18,15.382,0.934c3.523,0.524,7.118,1.297,10.062,3.31C291.597,255.025,293.826,260.364,293.388,264.367z"/>
</svg>
