<?xml version="1.0" encoding="utf-8"?>
<!-- Generator: Adobe Illustrator 16.0.0, SVG Export Plug-In . SVG Version: 6.00 Build 0)  -->
<!DOCTYPE svg PUBLIC "-//W3C//DTD SVG 1.1//EN" "http://www.w3.org/Graphics/SVG/1.1/DTD/svg11.dtd">
<svg version="1.1"
	 id="svg2" xmlns:dc="http://purl.org/dc/elements/1.1/" xmlns:cc="http://creativecommons.org/ns#" xmlns:rdf="http://www.w3.org/1999/02/22-rdf-syntax-ns#" xmlns:svg="http://www.w3.org/2000/svg" xmlns:sodipodi="http://sodipodi.sourceforge.net/DTD/sodipodi-0.dtd" xmlns:inkscape="http://www.inkscape.org/namespaces/inkscape" sodipodi:docname="folder-publicshare.svg" inkscape:version="0.91 r13725" inkscape:export-ydpi="100" inkscape:export-xdpi="100" inkscape:export-filename="/home/alecive/Scrivania/firefoxTest1.png" xmlns:osb="http://www.openswatchbook.org/uri/2009/osb"
	 xmlns="http://www.w3.org/2000/svg" xmlns:xlink="http://www.w3.org/1999/xlink" x="0px" y="0px" width="512px" height="512px"
	 viewBox="0 0 512 512" enable-background="new 0 0 512 512" xml:space="preserve">
<sodipodi:namedview  showgrid="false" inkscape:cy="227.77487" inkscape:cx="260.98209" inkscape:zoom="1.88" borderopacity="1.0" bordercolor="#666666" pagecolor="#ffffff" id="base" inkscape:window-maximized="1" inkscape:window-y="30" inkscape:current-layer="svg2" inkscape:document-units="px" inkscape:pageopacity="0.0" inkscape:window-x="0" inkscape:window-height="834" inkscape:window-width="1600" inkscape:pageshadow="2" inkscape:object-paths="false" inkscape:snap-global="false" inkscape:object-nodes="true" inkscape:guide-bbox="true" inkscape:snap-nodes="true" inkscape:snap-smooth-nodes="true" inkscape:snap-intersection-paths="false" showguides="true">
	</sodipodi:namedview>
<g id="layer1" transform="translate(0,-540.36218)" inkscape:label="Livello 1" inkscape:groupmode="layer">
</g>
<g id="g2036" transform="matrix(1.1,0,0,0.44444,95.081063,256.39254)">
	<g id="g3712" transform="matrix(1.0526,0,0,1.2857,-1.2632,-13.429)" opacity="0.4">
	</g>
</g>
<g id="g3541" transform="translate(97.481063,231.28154)">
</g>
<g id="g3536" transform="translate(97.481063,231.28154)">
</g>
<g id="g4076" transform="translate(-605.51932,-353.96833)">
	<g id="g4038" transform="translate(-926.66758,684.38448)">
	</g>
</g>
<path fill="#F6C358" d="M461.016,497.211H61.883c-14.694,0-26.607-11.912-26.607-26.607V168.411
	c0-11.757,9.529-21.287,21.285-21.287h95.877c5.867,0,11.471,2.42,15.494,6.691l37.533,39.838c4.022,4.268,9.628,6.689,15.494,6.689
	h245.374c11.757,0,21.288,9.531,21.288,21.289v248.972C487.623,485.299,475.708,497.211,461.016,497.211z"/>
<path fill="#FCD462" d="M436.887,473.086H37.757c-14.694,0-26.608-11.912-26.608-26.607V144.286c0-11.757,9.53-21.287,21.286-21.287
	h95.877c5.867,0,11.471,2.42,15.494,6.69l37.533,39.837c4.022,4.269,9.629,6.691,15.495,6.691h245.374
	c11.757,0,21.288,9.53,21.288,21.285v248.977C463.498,461.174,451.583,473.086,436.887,473.086z"/>
<path fill="#FFF8DF" d="M347.409,325.406c0,28.168-10.743,53.765-28.34,73.079c-19.828,21.829-48.453,35.484-80.222,35.484
	c-31.826,0-60.396-13.655-80.279-35.484c-17.6-19.314-28.283-44.911-28.283-73.079c0-59.996,48.568-108.564,108.564-108.564
	C298.785,216.842,347.409,265.41,347.409,325.406z"/>
<g>
	<path fill="#DCF9F7" d="M184.198,330.143h-3.724c-1.289,0-2.333-1.044-2.333-2.332c0-1.29,1.044-2.336,2.333-2.336h3.724
		c1.289,0,2.333,1.045,2.333,2.336C186.532,329.099,185.487,330.143,184.198,330.143z"/>
	<path fill="#DCF9F7" d="M192.888,336.673h-12.413c-1.289,0-2.333-1.044-2.333-2.336c0-1.286,1.044-2.332,2.333-2.332h12.413
		c1.29,0,2.335,1.044,2.335,2.332C195.223,335.629,194.178,336.673,192.888,336.673z"/>
</g>
<path fill="#F9B767" d="M273.022,270.952l-3.531-6.882c-0.369-0.722-1.111-1.176-1.924-1.176h-24.198
	c-1.193,0-2.161,0.968-2.161,2.16V299.4v7.858c0,1.195,0.968,2.16,2.161,2.16h56.978c1.194,0,2.163-0.967,2.163-2.16v-34.144
	c0-1.195-0.969-2.163-2.163-2.163H273.022L273.022,270.952z"/>
<path fill="#EF9D45" d="M302.504,304.369v2.89c0,1.193-0.967,2.16-2.16,2.16h-56.979c-1.193,0-2.161-0.967-2.161-2.16v-2.89H302.504
	z"/>
<path fill="#F9B767" d="M273.022,345.453l-3.531-6.885c-0.369-0.72-1.111-1.174-1.924-1.174h-24.198
	c-1.193,0-2.161,0.968-2.161,2.161V373.9v7.858c0,1.195,0.968,2.162,2.161,2.162h56.978c1.194,0,2.163-0.967,2.163-2.162v-34.146
	c0-1.193-0.969-2.16-2.163-2.16H273.022z"/>
<g>
	<path fill="#DCF9F7" d="M253.539,371.81h-3.235c-1.121,0-2.027-0.906-2.027-2.026c0-1.118,0.906-2.024,2.027-2.024h3.235
		c1.12,0,2.026,0.906,2.026,2.024C255.565,370.904,254.659,371.81,253.539,371.81z"/>
	<path fill="#DCF9F7" d="M261.087,377.484h-10.783c-1.121,0-2.027-0.907-2.027-2.027c0-1.119,0.906-2.024,2.027-2.024h10.783
		c1.118,0,2.026,0.905,2.026,2.024C263.113,376.577,262.205,377.484,261.087,377.484z"/>
	<path fill="#DCF9F7" d="M253.539,297.311h-3.235c-1.121,0-2.027-0.908-2.027-2.027c0-1.117,0.906-2.025,2.027-2.025h3.235
		c1.12,0,2.026,0.908,2.026,2.025C255.565,296.403,254.659,297.311,253.539,297.311z"/>
	<path fill="#DCF9F7" d="M261.087,302.984h-10.783c-1.121,0-2.027-0.908-2.027-2.027c0-1.12,0.906-2.027,2.027-2.027h10.783
		c1.118,0,2.026,0.907,2.026,2.027S262.205,302.984,261.087,302.984z"/>
</g>
<path fill="#5089DD" d="M200.006,305.499l-3.53-6.885c-0.371-0.722-1.113-1.176-1.924-1.176h-24.199
	c-1.193,0-2.161,0.969-2.161,2.163v34.343v7.857c0,1.196,0.968,2.162,2.161,2.162h56.978c1.193,0,2.161-0.967,2.161-2.162v-34.143
	c0-1.194-0.968-2.16-2.161-2.16H200.006L200.006,305.499L200.006,305.499z"/>
<path fill="#2358C1" d="M229.494,338.916v2.888c0,1.194-0.968,2.161-2.161,2.161h-56.978c-1.194,0-2.162-0.968-2.162-2.161v-2.888
	H229.494z"/>
<g>
	<path fill="#DCF9F7" d="M180.524,331.855h-3.234c-1.12,0-2.026-0.908-2.026-2.025c0-1.119,0.906-2.024,2.026-2.024h3.234
		c1.12,0,2.029,0.905,2.029,2.024C182.553,330.947,181.644,331.855,180.524,331.855z"/>
	<path fill="#DCF9F7" d="M188.072,337.528h-10.781c-1.12,0-2.026-0.908-2.026-2.025c0-1.12,0.906-2.027,2.026-2.027h10.781
		c1.121,0,2.027,0.907,2.027,2.027C190.099,336.62,189.193,337.528,188.072,337.528z"/>
</g>
<g>
	<path fill="#F9B767" d="M209.996,295.92c-1.121,0-2.027-0.907-2.027-2.026v-10.212c0-1.118,0.906-2.025,2.027-2.025h19.496
		c1.12,0,2.027,0.907,2.027,2.025c0,1.122-0.908,2.026-2.027,2.026h-17.47v8.186C212.023,295.013,211.116,295.92,209.996,295.92z"/>
	<path fill="#F9B767" d="M229.492,365.162h-19.496c-1.121,0-2.027-0.906-2.027-2.024v-10.212c0-1.12,0.906-2.027,2.027-2.027
		c1.12,0,2.026,0.907,2.026,2.027v8.185h17.47c1.12,0,2.027,0.905,2.027,2.024C231.519,364.255,230.612,365.162,229.492,365.162z"/>
</g>
</svg>
