<?xml version="1.0" encoding="utf-8"?>
<!-- Generator: Adobe Illustrator 16.0.0, SVG Export Plug-In . SVG Version: 6.00 Build 0)  -->
<!DOCTYPE svg PUBLIC "-//W3C//DTD SVG 1.1//EN" "http://www.w3.org/Graphics/SVG/1.1/DTD/svg11.dtd">
<svg version="1.1"
	 id="svg2" xmlns:dc="http://purl.org/dc/elements/1.1/" xmlns:cc="http://creativecommons.org/ns#" xmlns:rdf="http://www.w3.org/1999/02/22-rdf-syntax-ns#" xmlns:svg="http://www.w3.org/2000/svg" xmlns:sodipodi="http://sodipodi.sourceforge.net/DTD/sodipodi-0.dtd" xmlns:inkscape="http://www.inkscape.org/namespaces/inkscape" sodipodi:docname="folder-recent.svg" inkscape:version="0.92.2 (5c3e80d, 2017-08-06)" inkscape:export-ydpi="100" inkscape:export-xdpi="100" inkscape:export-filename="/home/alecive/Scrivania/firefoxTest1.png" xmlns:osb="http://www.openswatchbook.org/uri/2009/osb"
	 xmlns="http://www.w3.org/2000/svg" xmlns:xlink="http://www.w3.org/1999/xlink" x="0px" y="0px" width="512px" height="512px"
	 viewBox="0 0 512 512" enable-background="new 0 0 512 512" xml:space="preserve">
<filter  height="1.0994889" width="1.0564131" y="-0.049744379" x="-0.028206533" id="filter4166" inkscape:collect="always" style="color-interpolation-filters:sRGB">
	<feGaussianBlur  id="feGaussianBlur4168" inkscape:collect="always" stdDeviation="5.8998423"></feGaussianBlur>
</filter>
<sodipodi:namedview  showgrid="false" inkscape:cy="156.56355" inkscape:cx="346.21244" inkscape:zoom="0.35355339" borderopacity="1.0" bordercolor="#666666" pagecolor="#ffffff" id="base" inkscape:window-maximized="1" inkscape:window-y="25" inkscape:current-layer="svg2" inkscape:document-units="px" inkscape:pageopacity="0.0" inkscape:window-x="0" inkscape:window-height="717" inkscape:window-width="1360" inkscape:pageshadow="2" inkscape:object-paths="false" inkscape:object-nodes="true" inkscape:guide-bbox="true" inkscape:snap-nodes="true" inkscape:snap-smooth-nodes="true" inkscape:snap-intersection-paths="false" showguides="true">
	</sodipodi:namedview>
<g id="layer1" transform="translate(0,-540.36218)" inkscape:label="Livello 1" inkscape:groupmode="layer">
</g>
<g id="g2036" transform="matrix(1.1,0,0,0.44444,95.081063,256.39254)">
	<g id="g3712" transform="matrix(1.0526,0,0,1.2857,-1.2632,-13.429)" opacity="0.4">
	</g>
</g>
<g id="g3541" transform="translate(97.481063,231.28154)">
</g>
<g id="g3536" transform="translate(97.481063,231.28154)">
</g>
<g id="g4076" transform="translate(-605.51932,-353.96833)">
	<g id="g4038" transform="translate(-926.66758,684.38448)">
	</g>
</g>
<g id="rect2982-5" sodipodi:nodetypes="cccsssccscc" inkscape:connector-curvature="0" filter="url(#filter4166)">
</g>
<path fill="#F6C358" d="M450.679,411.579H62.634c-14.286,0-25.869-11.581-25.869-25.869V91.914c0-11.431,9.265-20.696,20.693-20.696
	h93.214c5.704,0,11.152,2.353,15.063,6.505l36.491,38.731c3.91,4.149,9.361,6.503,15.063,6.503h238.556
	c11.431,0,20.697,9.267,20.697,20.697V385.71C476.547,399.998,464.963,411.579,450.679,411.579z"/>
<path fill="#FCD462" d="M427.221,388.124H39.179c-14.285,0-25.869-11.581-25.869-25.868V68.458c0-11.43,9.265-20.695,20.694-20.695
	h93.213c5.704,0,11.152,2.353,15.064,6.504l36.49,38.73c3.911,4.15,9.362,6.505,15.064,6.505h238.557
	c11.431,0,20.697,9.266,20.697,20.694v242.06C453.092,376.543,441.508,388.124,427.221,388.124z"/>
<path fill="#00AFB6" d="M338.775,244.547c0,27.386-10.444,52.271-27.553,71.049c-19.277,21.223-47.106,34.499-77.994,34.499
	c-30.941,0-58.718-13.276-78.049-34.499c-17.111-18.777-27.497-43.663-27.497-71.049c0-58.33,47.218-105.548,105.548-105.548
	C291.502,138.999,338.775,186.217,338.775,244.547z"/>
<path id="path3233-4" sodipodi:nodetypes="ssssssssssssccccccc" inkscape:connector-curvature="0" fill="#BFF5FF" d="
	M235.644,188.088c-30.958,0-56.169,25.213-56.169,56.171c0,14.647,5.644,28.008,14.872,38.021
	c10.273,11.149,24.989,18.146,41.297,18.146c30.958,0,56.169-25.214,56.169-56.17c0-12.426-4.063-23.927-10.927-33.242
	C270.649,197.124,254.175,188.088,235.644,188.088L235.644,188.088z M235.644,198.935c25.097,0,45.323,20.229,45.323,45.324
	c0,25.094-20.227,45.322-45.323,45.322c-25.095,0-45.323-20.229-45.323-45.322C190.32,219.163,210.549,198.935,235.644,198.935
	L235.644,198.935z M229.06,207.458v42.225h25.955v-10.847h-15.108v-31.378H229.06z"/>
</svg>
