<?xml version="1.0" encoding="utf-8"?>
<!-- Generator: Adobe Illustrator 16.0.0, SVG Export Plug-In . SVG Version: 6.00 Build 0)  -->
<!DOCTYPE svg PUBLIC "-//W3C//DTD SVG 1.1//EN" "http://www.w3.org/Graphics/SVG/1.1/DTD/svg11.dtd">
<svg version="1.1"
	 id="svg2" xmlns:dc="http://purl.org/dc/elements/1.1/" xmlns:cc="http://creativecommons.org/ns#" xmlns:rdf="http://www.w3.org/1999/02/22-rdf-syntax-ns#" xmlns:svg="http://www.w3.org/2000/svg" xmlns:sodipodi="http://sodipodi.sourceforge.net/DTD/sodipodi-0.dtd" xmlns:inkscape="http://www.inkscape.org/namespaces/inkscape" sodipodi:docname="folder-pictures.svg" inkscape:version="0.91 r13725" inkscape:export-ydpi="100" inkscape:export-xdpi="100" inkscape:export-filename="/home/alecive/Scrivania/firefoxTest1.png" xmlns:osb="http://www.openswatchbook.org/uri/2009/osb"
	 xmlns="http://www.w3.org/2000/svg" xmlns:xlink="http://www.w3.org/1999/xlink" x="0px" y="0px" width="512px" height="512px"
	 viewBox="0 0 512 512" enable-background="new 0 0 512 512" xml:space="preserve">
<sodipodi:namedview  showgrid="false" inkscape:cy="175.80866" inkscape:cx="334.51988" inkscape:zoom="2.49" borderopacity="1.0" bordercolor="#666666" pagecolor="#ffffff" id="base" inkscape:window-maximized="1" inkscape:window-y="30" inkscape:current-layer="g3877" inkscape:document-units="px" inkscape:pageopacity="0.0" inkscape:window-x="0" inkscape:window-height="834" inkscape:window-width="1600" inkscape:pageshadow="2" inkscape:object-paths="false" inkscape:snap-global="false" inkscape:object-nodes="true" inkscape:guide-bbox="true" inkscape:snap-nodes="true" inkscape:snap-smooth-nodes="true" inkscape:snap-intersection-paths="false" showguides="true">
	</sodipodi:namedview>
<g id="layer1" transform="translate(0,-540.36218)" inkscape:label="Livello 1" inkscape:groupmode="layer">
</g>
<g id="g2036" transform="matrix(1.1,0,0,0.44444,95.081063,256.39254)">
	<g id="g3712" transform="matrix(1.0526,0,0,1.2857,-1.2632,-13.429)" opacity="0.4">
	</g>
</g>
<g id="g3541" transform="translate(97.481063,231.28154)">
</g>
<g id="g3536" transform="translate(97.481063,231.28154)">
</g>
<g id="g4076" transform="translate(-605.51932,-353.96833)">
	<g id="g4038" transform="translate(-926.66758,684.38448)">
	</g>
</g>
<path fill="#F6C358" d="M459.179,424.471H61.625c-14.637,0-26.503-11.864-26.503-26.502V96.972c0-11.711,9.492-21.203,21.201-21.203
	h95.498c5.844,0,11.426,2.411,15.433,6.665l37.385,39.681c4.005,4.25,9.59,6.663,15.431,6.663h244.404
	c11.71,0,21.203,9.494,21.203,21.205v247.987C485.682,412.606,473.814,424.471,459.179,424.471z"/>
<path fill="#FCD462" d="M435.147,400.441H37.595c-14.636,0-26.503-11.865-26.503-26.503V72.941c0-11.71,9.492-21.203,21.202-21.203
	h95.498c5.844,0,11.426,2.411,15.433,6.664l37.384,39.68c4.008,4.252,9.591,6.665,15.433,6.665h244.403
	c11.711,0,21.204,9.492,21.204,21.201V373.94C461.651,388.576,449.783,400.441,435.147,400.441z"/>
<path fill="#D0E8CF" d="M344.532,253.346c0,28.057-10.701,53.553-28.228,72.79c-19.75,21.742-48.262,35.345-79.907,35.345
	c-31.698,0-60.155-13.603-79.96-35.345c-17.53-19.237-28.171-44.733-28.171-72.79c0-59.758,48.375-108.135,108.135-108.135
	C296.101,145.211,344.532,193.588,344.532,253.346z"/>
<path fill="#71C272" d="M260.899,223.934l-3.763-11.646c-0.779-2.415-3.028-4.052-5.567-4.052h-30.354
	c-2.537,0-4.786,1.637-5.566,4.052l-3.762,11.646h-27.959c-3.229,0-5.85,2.619-5.85,5.85v56.589c0,3.229,2.621,5.853,5.85,5.853
	h104.929c3.232,0,5.851-2.623,5.851-5.853v-56.589c0-3.231-2.618-5.85-5.851-5.85H260.899L260.899,223.934z"/>
<circle fill="#E1E6E9" cx="236.391" cy="258.084" r="26.326"/>
<circle fill="#D5D6DB" cx="236.391" cy="258.084" r="19.014"/>
<circle fill="#64798A" cx="236.391" cy="258.084" r="9.379"/>
<g>
	<circle fill="#EBF0F3" cx="234.374" cy="253.344" r="3.986"/>
	<circle fill="#EBF0F3" cx="239.203" cy="264.023" r="2.808"/>
</g>
<circle fill="#E56353" cx="196.612" cy="236.393" r="4.387"/>
<path fill="#64798A" d="M202.448,223.891h-11.67v-1.311c0-1.615,1.31-2.925,2.928-2.925h5.817c1.616,0,2.925,1.31,2.925,2.925
	V223.891L202.448,223.891z"/>
</svg>
