<?xml version="1.0" encoding="utf-8"?>
<!-- Generator: Adobe Illustrator 16.0.0, SVG Export Plug-In . SVG Version: 6.00 Build 0)  -->
<!DOCTYPE svg PUBLIC "-//W3C//DTD SVG 1.1//EN" "http://www.w3.org/Graphics/SVG/1.1/DTD/svg11.dtd">
<svg version="1.1"
	 id="svg2" xmlns:dc="http://purl.org/dc/elements/1.1/" xmlns:cc="http://creativecommons.org/ns#" xmlns:rdf="http://www.w3.org/1999/02/22-rdf-syntax-ns#" xmlns:svg="http://www.w3.org/2000/svg" xmlns:sodipodi="http://sodipodi.sourceforge.net/DTD/sodipodi-0.dtd" xmlns:inkscape="http://www.inkscape.org/namespaces/inkscape" sodipodi:docname="folder-download.svg" inkscape:version="0.91 r13725" inkscape:export-ydpi="100" inkscape:export-xdpi="100" inkscape:export-filename="/home/alecive/Scrivania/firefoxTest1.png" xmlns:osb="http://www.openswatchbook.org/uri/2009/osb"
	 xmlns="http://www.w3.org/2000/svg" xmlns:xlink="http://www.w3.org/1999/xlink" x="0px" y="0px" width="512px" height="512px"
	 viewBox="0 0 512 512" enable-background="new 0 0 512 512" xml:space="preserve">
<sodipodi:namedview  showgrid="false" inkscape:cy="235.75731" inkscape:cx="278.61478" inkscape:zoom="2.86" borderopacity="1.0" bordercolor="#666666" pagecolor="#ffffff" id="base" inkscape:window-maximized="1" inkscape:window-y="30" inkscape:current-layer="svg2" inkscape:document-units="px" inkscape:pageopacity="0.0" inkscape:window-x="0" inkscape:window-height="834" inkscape:window-width="1600" inkscape:pageshadow="2" inkscape:object-paths="false" inkscape:snap-global="false" inkscape:object-nodes="true" inkscape:guide-bbox="true" inkscape:snap-nodes="true" inkscape:snap-smooth-nodes="true" inkscape:snap-intersection-paths="false" showguides="true">
	</sodipodi:namedview>
<g id="layer1" transform="translate(0,-540.36218)" inkscape:label="Livello 1" inkscape:groupmode="layer">
</g>
<g id="g2036" transform="matrix(1.1,0,0,0.44444,95.081063,256.39254)">
	<g id="g3712" transform="matrix(1.0526,0,0,1.2857,-1.2632,-13.429)" opacity="0.4">
	</g>
</g>
<g id="g3541" transform="translate(97.481063,231.28154)">
</g>
<g id="g3536" transform="translate(97.481063,231.28154)">
</g>
<g id="g4076" transform="translate(-605.51932,-353.96833)">
	<g id="g4038" transform="translate(-926.66758,684.38448)">
	</g>
</g>
<path fill="#F6C358" d="M456.753,424.211H61.887c-14.538,0-26.324-11.785-26.324-26.323V98.926c0-11.631,9.428-21.06,21.058-21.06
	h94.853c5.804,0,11.348,2.394,15.328,6.62l37.132,39.413c3.979,4.222,9.525,6.618,15.328,6.618h242.75
	c11.632,0,21.061,9.429,21.061,21.061v246.311C483.076,412.426,471.289,424.211,456.753,424.211z"/>
<path fill="#FCD462" d="M432.883,400.344H38.02c-14.537,0-26.324-11.784-26.324-26.323V75.058c0-11.631,9.428-21.059,21.058-21.059
	h94.853c5.804,0,11.348,2.394,15.328,6.619l37.132,39.411c3.979,4.223,9.526,6.62,15.329,6.62h242.75
	c11.632,0,21.061,9.428,21.061,21.058v246.315C459.209,388.56,447.422,400.344,432.883,400.344z"/>
<path fill="#B7A9D2" d="M342.882,254.243c0,27.867-10.629,53.19-28.037,72.297c-19.616,21.596-47.935,35.106-79.365,35.106
	c-31.485,0-59.75-13.511-79.421-35.106c-17.412-19.107-27.98-44.431-27.98-72.297c0-59.354,48.048-107.403,107.403-107.403
	C294.778,146.839,342.882,194.889,342.882,254.243z"/>
<polygon fill="#3D53A4" points="212.038,201.864 222.466,212.29 296.301,212.29 296.301,309.652 176.535,309.652 176.535,201.864 
	"/>
<polygon fill="#263A95" points="236.419,223.956 225.99,234.384 176.535,234.384 176.535,309.652 296.301,309.652 296.301,223.956 
	"/>
<g>
	
		<linearGradient id="SVGID_1_" gradientUnits="userSpaceOnUse" x1="-1390.7611" y1="345.0517" x2="-1345.0436" y2="345.0517" gradientTransform="matrix(2.2041 0 0 -2.2041 3246.8184 1047.0459)">
		<stop  offset="0" style="stop-color:#FFFFFF"/>
		<stop  offset="1" style="stop-color:#C8C6CC"/>
	</linearGradient>
	<polygon fill="url(#SVGID_1_)" points="260.523,277.018 260.523,287.247 212.313,287.247 212.313,277.018 203.545,277.018 
		203.545,287.247 203.545,296.016 212.313,296.016 260.523,296.016 269.293,296.016 269.293,287.247 269.293,277.018 	"/>
	
		<linearGradient id="SVGID_2_" gradientUnits="userSpaceOnUse" x1="-1390.7616" y1="355.4706" x2="-1345.0425" y2="355.4706" gradientTransform="matrix(2.2041 0 0 -2.2041 3246.8184 1047.0459)">
		<stop  offset="0" style="stop-color:#FFFFFF"/>
		<stop  offset="1" style="stop-color:#C8C6CC"/>
	</linearGradient>
	<polygon fill="url(#SVGID_2_)" points="245.093,265.843 245.093,243.945 227.742,243.945 227.742,265.843 220.138,265.843 
		236.419,283.16 252.7,265.843 	"/>
</g>
</svg>
