<?xml version="1.0" encoding="utf-8"?>
<!-- Generator: Adobe Illustrator 16.0.0, SVG Export Plug-In . SVG Version: 6.00 Build 0)  -->
<!DOCTYPE svg PUBLIC "-//W3C//DTD SVG 1.1//EN" "http://www.w3.org/Graphics/SVG/1.1/DTD/svg11.dtd">
<svg version="1.1"
	 id="svg2" xmlns:dc="http://purl.org/dc/elements/1.1/" xmlns:cc="http://creativecommons.org/ns#" xmlns:rdf="http://www.w3.org/1999/02/22-rdf-syntax-ns#" xmlns:svg="http://www.w3.org/2000/svg" xmlns:sodipodi="http://sodipodi.sourceforge.net/DTD/sodipodi-0.dtd" xmlns:inkscape="http://www.inkscape.org/namespaces/inkscape" sodipodi:docname="folder-documents.svg" inkscape:version="0.91 r13725" inkscape:export-ydpi="100" inkscape:export-xdpi="100" inkscape:export-filename="/home/alecive/Scrivania/firefoxTest1.png" xmlns:osb="http://www.openswatchbook.org/uri/2009/osb"
	 xmlns="http://www.w3.org/2000/svg" xmlns:xlink="http://www.w3.org/1999/xlink" x="0px" y="0px" width="512px" height="512px"
	 viewBox="0 0 512 512" enable-background="new 0 0 512 512" xml:space="preserve">
<sodipodi:namedview  showgrid="false" inkscape:cy="237.44363" inkscape:cx="266.59074" inkscape:zoom="2.16" borderopacity="1.0" bordercolor="#666666" pagecolor="#ffffff" id="base" inkscape:window-maximized="1" inkscape:window-y="30" inkscape:current-layer="svg2" inkscape:document-units="px" inkscape:pageopacity="0.0" inkscape:window-x="0" inkscape:window-height="834" inkscape:window-width="1600" inkscape:pageshadow="2" inkscape:object-paths="false" inkscape:snap-global="false" inkscape:object-nodes="true" inkscape:guide-bbox="true" inkscape:snap-nodes="true" inkscape:snap-smooth-nodes="true" inkscape:snap-intersection-paths="false" showguides="true">
	</sodipodi:namedview>
<g id="layer1" transform="translate(0,-540.36218)" inkscape:label="Livello 1" inkscape:groupmode="layer">
</g>
<g id="g2036" transform="matrix(1.1,0,0,0.44444,95.081063,256.39254)">
	<g id="g3712" transform="matrix(1.0526,0,0,1.2857,-1.2632,-13.429)" opacity="0.4">
	</g>
</g>
<g id="g3541" transform="translate(97.481063,231.28154)">
</g>
<g id="g3536" transform="translate(97.481063,231.28154)">
</g>
<g id="g4076" transform="translate(-605.51932,-353.96833)">
	<g id="g4038" transform="translate(-926.66758,684.38448)">
	</g>
</g>
<path fill="#F6C358" d="M460.179,424.471H62.625c-14.637,0-26.503-11.864-26.503-26.502V96.972c0-11.711,9.492-21.203,21.201-21.203
	h95.498c5.844,0,11.425,2.411,15.433,6.665l37.385,39.681c4.005,4.25,9.59,6.663,15.431,6.663h244.404
	c11.709,0,21.203,9.494,21.203,21.205v247.987C486.682,412.606,474.814,424.471,460.179,424.471z"/>
<path fill="#FCD462" d="M436.147,400.441H38.595c-14.636,0-26.503-11.865-26.503-26.503V72.941c0-11.71,9.492-21.203,21.202-21.203
	h95.498c5.844,0,11.426,2.411,15.433,6.664l37.385,39.68c4.006,4.252,9.591,6.665,15.433,6.665h244.403
	c11.711,0,21.204,9.492,21.204,21.201V373.94C462.651,388.576,450.783,400.441,436.147,400.441z"/>
<path fill="#9ED3AA" d="M345.532,253.346c0,28.057-10.701,53.553-28.228,72.79c-19.75,21.742-48.262,35.345-79.907,35.345
	c-31.698,0-60.156-13.603-79.96-35.345c-17.53-19.237-28.171-44.733-28.171-72.79c0-59.758,48.375-108.135,108.135-108.135
	C297.101,145.211,345.532,193.588,345.532,253.346z"/>
<path fill="#FFFFFF" d="M263.787,319.365h-71.126c-4.493,0-8.146-3.654-8.146-8.146V196.593c0-4.493,3.653-8.146,8.146-8.146h92.668
	c4.492,0,8.144,3.654,8.144,8.146v93.128h-29.642v29.642h-0.044V319.365z"/>
<polygon fill="#ACB3BA" points="263.787,319.365 263.787,289.722 293.431,289.722 "/>
<g>
	<rect x="200.092" y="204.738" fill="#E6E9EE" width="77.718" height="9.364"/>
	<rect x="200.092" y="224.431" fill="#E6E9EE" width="77.718" height="9.364"/>
	<rect x="200.092" y="244.166" fill="#E6E9EE" width="77.718" height="9.363"/>
	<rect x="235.278" y="263.858" fill="#E6E9EE" width="42.576" height="9.362"/>
</g>
</svg>
