<?xml version="1.0" encoding="utf-8"?>
<!-- Generator: Adobe Illustrator 16.0.0, SVG Export Plug-In . SVG Version: 6.00 Build 0)  -->
<!DOCTYPE svg PUBLIC "-//W3C//DTD SVG 1.1//EN" "http://www.w3.org/Graphics/SVG/1.1/DTD/svg11.dtd">
<svg version="1.1"
	 id="svg2" xmlns:dc="http://purl.org/dc/elements/1.1/" xmlns:cc="http://creativecommons.org/ns#" xmlns:rdf="http://www.w3.org/1999/02/22-rdf-syntax-ns#" xmlns:svg="http://www.w3.org/2000/svg" xmlns:sodipodi="http://sodipodi.sourceforge.net/DTD/sodipodi-0.dtd" xmlns:inkscape="http://www.inkscape.org/namespaces/inkscape" sodipodi:docname="folder.svg" inkscape:version="0.91 r13725" inkscape:export-ydpi="100" inkscape:export-xdpi="100" inkscape:export-filename="/home/alecive/Scrivania/firefoxTest1.png" xmlns:osb="http://www.openswatchbook.org/uri/2009/osb"
	 xmlns="http://www.w3.org/2000/svg" xmlns:xlink="http://www.w3.org/1999/xlink" x="0px" y="0px" width="512px" height="512px"
	 viewBox="0 0 512 512" enable-background="new 0 0 512 512" xml:space="preserve">
<sodipodi:namedview  showgrid="false" inkscape:cy="237.44363" inkscape:cx="194.93465" inkscape:zoom="1" borderopacity="1.0" bordercolor="#666666" pagecolor="#ffffff" id="base" inkscape:window-maximized="1" inkscape:window-y="30" inkscape:current-layer="svg2" inkscape:document-units="px" inkscape:pageopacity="0.0" inkscape:window-x="0" inkscape:window-height="834" inkscape:window-width="1600" inkscape:pageshadow="2" inkscape:object-paths="false" inkscape:object-nodes="true" inkscape:guide-bbox="true" inkscape:snap-nodes="true" inkscape:snap-smooth-nodes="true" inkscape:snap-intersection-paths="false" showguides="true">
	</sodipodi:namedview>
<g id="layer1" transform="translate(0,-540.36218)" inkscape:label="Livello 1" inkscape:groupmode="layer">
</g>
<g id="g2036" transform="matrix(1.1,0,0,0.44444,95.081063,256.39254)">
	<g id="g3712" transform="matrix(1.0526,0,0,1.2857,-1.2632,-13.429)" opacity="0.4">
	</g>
</g>
<g id="g3541" transform="translate(97.481063,231.28154)">
</g>
<g id="g3536" transform="translate(97.481063,231.28154)">
</g>
<g id="g4076" transform="translate(-605.51932,-353.96833)">
	<g id="g4038" transform="translate(-926.66758,684.38448)">
	</g>
</g>
<path fill="#F6C358" d="M461.067,425.256H61.838c-14.698,0-26.614-11.915-26.614-26.614V96.377c0-11.76,9.531-21.292,21.29-21.292
	h95.9c5.868,0,11.474,2.421,15.498,6.693l37.542,39.848c4.022,4.269,9.631,6.691,15.498,6.691h245.432
	c11.761,0,21.294,9.533,21.294,21.293v249.032C487.681,413.341,475.763,425.256,461.067,425.256z"/>
<path fill="#FCD462" d="M436.933,401.125H37.706c-14.697,0-26.614-11.915-26.614-26.614V72.245c0-11.759,9.532-21.292,21.291-21.292
	h95.9c5.868,0,11.474,2.421,15.498,6.692l37.542,39.847c4.023,4.27,9.632,6.693,15.499,6.693h245.432
	c11.761,0,21.294,9.532,21.294,21.29v249.037C463.55,389.21,451.632,401.125,436.933,401.125z"/>
</svg>
