<?xml version="1.0" encoding="utf-8"?>
<!-- Generator: Adobe Illustrator 16.0.0, SVG Export Plug-In . SVG Version: 6.00 Build 0)  -->
<!DOCTYPE svg PUBLIC "-//W3C//DTD SVG 1.1//EN" "http://www.w3.org/Graphics/SVG/1.1/DTD/svg11.dtd">
<svg version="1.1"
	 id="svg4204" xmlns:dc="http://purl.org/dc/elements/1.1/" xmlns:cc="http://creativecommons.org/ns#" xmlns:rdf="http://www.w3.org/1999/02/22-rdf-syntax-ns#" xmlns:svg="http://www.w3.org/2000/svg" xmlns:sodipodi="http://sodipodi.sourceforge.net/DTD/sodipodi-0.dtd" xmlns:inkscape="http://www.inkscape.org/namespaces/inkscape" sodipodi:docname="open.svg" inkscape:version="0.91 r13725" xmlns:osb="http://www.openswatchbook.org/uri/2009/osb"
	 xmlns="http://www.w3.org/2000/svg" xmlns:xlink="http://www.w3.org/1999/xlink" x="0px" y="0px" width="512px" height="512px"
	 viewBox="0 0 512 512" enable-background="new 0 0 512 512" xml:space="preserve">
<sodipodi:namedview  units="px" showgrid="false" inkscape:cy="-608.84972" inkscape:cx="-1435.7709" inkscape:zoom="0.0875" borderopacity="1.0" bordercolor="#666666" pagecolor="#ffffff" id="base" inkscape:window-maximized="1" inkscape:window-y="24" inkscape:current-layer="layer1" inkscape:document-units="px" inkscape:pageopacity="0.0" inkscape:window-x="0" inkscape:window-height="716" inkscape:window-width="1360" inkscape:pageshadow="2" showguides="true">
	</sodipodi:namedview>
<path fill="#F6C358" d="M406.58,402.822H70.549c-12.371,0-19.526-10.028-15.978-22.4l72.952-254.417
	c2.838-9.898,13.163-17.921,23.06-17.921h80.719c4.939,0,9.073,2.038,11.431,5.634l21.982,33.54
	c2.355,3.593,6.49,5.632,11.429,5.632h206.58c9.899,0,15.623,8.024,12.784,17.923l-60.104,209.61
	C431.855,392.794,418.95,402.822,406.58,402.822z"/>
<path fill="#FCD462" d="M412.832,403.917H76.804c-12.371,0-23.99-10.028-25.948-22.4L10.56,127.099
	c-1.568-9.898,5.184-17.921,15.083-17.921h80.719c4.938,0,9.979,2.038,13.936,5.633l36.91,33.539
	c3.957,3.593,8.998,5.634,13.938,5.634h206.58c9.898,0,19.194,8.022,20.761,17.919l33.2,209.615
	C433.648,393.889,425.205,403.917,412.832,403.917z"/>
</svg>
