<?xml version="1.0" encoding="utf-8"?>
<!-- Generator: Adobe Illustrator 16.0.0, SVG Export Plug-In . SVG Version: 6.00 Build 0)  -->
<!DOCTYPE svg PUBLIC "-//W3C//DTD SVG 1.1//EN" "http://www.w3.org/Graphics/SVG/1.1/DTD/svg11.dtd">
<svg version="1.1"
	 id="svg2" xmlns:dc="http://purl.org/dc/elements/1.1/" xmlns:cc="http://creativecommons.org/ns#" xmlns:rdf="http://www.w3.org/1999/02/22-rdf-syntax-ns#" xmlns:svg="http://www.w3.org/2000/svg" xmlns:sodipodi="http://sodipodi.sourceforge.net/DTD/sodipodi-0.dtd" xmlns:inkscape="http://www.inkscape.org/namespaces/inkscape" sodipodi:docname="folder-videos.svg" inkscape:version="0.91 r13725" inkscape:export-ydpi="100" inkscape:export-xdpi="100" inkscape:export-filename="/home/alecive/Scrivania/firefoxTest1.png" xmlns:osb="http://www.openswatchbook.org/uri/2009/osb"
	 xmlns="http://www.w3.org/2000/svg" xmlns:xlink="http://www.w3.org/1999/xlink" x="0px" y="0px" width="512px" height="512px"
	 viewBox="0 0 512 512" enable-background="new 0 0 512 512" xml:space="preserve">
<sodipodi:namedview  showgrid="false" inkscape:cy="240.46133" inkscape:cx="469.3246" inkscape:zoom="1.15" borderopacity="1.0" bordercolor="#666666" pagecolor="#ffffff" id="base" inkscape:window-maximized="1" inkscape:window-y="30" inkscape:current-layer="layer1-0" inkscape:document-units="px" inkscape:pageopacity="0.0" inkscape:window-x="0" inkscape:window-height="834" inkscape:window-width="1600" inkscape:pageshadow="2" inkscape:object-paths="false" inkscape:snap-global="false" inkscape:object-nodes="true" inkscape:guide-bbox="true" inkscape:snap-nodes="true" inkscape:snap-smooth-nodes="true" inkscape:snap-intersection-paths="false" showguides="true">
	</sodipodi:namedview>
<g id="layer1" transform="translate(0,-540.36218)" inkscape:label="Livello 1" inkscape:groupmode="layer">
</g>
<g id="g2036" transform="matrix(1.1,0,0,0.44444,95.081063,256.39254)">
	<g id="g3712" transform="matrix(1.0526,0,0,1.2857,-1.2632,-13.429)" opacity="0.4">
	</g>
</g>
<g id="g3541" transform="translate(97.481063,231.28154)">
</g>
<g id="g3536" transform="translate(97.481063,231.28154)">
</g>
<g id="g4076" transform="translate(-605.51932,-353.96833)">
	<g id="g4038" transform="translate(-926.66758,684.38448)">
	</g>
</g>
<path fill="#F6C358" d="M459.884,424.211H62.885c-14.616,0-26.466-11.849-26.466-26.466V97.168c0-11.694,9.478-21.173,21.171-21.173
	h95.364c5.836,0,11.41,2.407,15.411,6.656l37.333,39.625c4,4.245,9.577,6.653,15.411,6.653h244.062
	c11.694,0,21.175,9.48,21.175,21.175v247.641C486.35,412.362,474.498,424.211,459.884,424.211z"/>
<path fill="#FCD462" d="M435.885,400.215H38.888c-14.615,0-26.465-11.849-26.465-26.466V73.172c0-11.694,9.479-21.173,21.172-21.173
	h95.364c5.836,0,11.41,2.407,15.411,6.654l37.332,39.625c4.001,4.246,9.578,6.655,15.412,6.655h244.062
	c11.694,0,21.175,9.479,21.175,21.171v247.646C462.354,388.366,450.502,400.215,435.885,400.215z"/>
<path fill="#715000" d="M345.399,253.323c0,28.017-10.687,53.479-28.189,72.69c-19.722,21.713-48.193,35.296-79.793,35.296
	c-31.656,0-60.073-13.583-79.851-35.296c-17.506-19.211-28.132-44.671-28.132-72.69c0-59.675,48.308-107.983,107.983-107.983
	C297.034,145.341,345.399,193.648,345.399,253.323z"/>
<path fill="#F5F5F5" d="M211.727,171.467h80.205c2.007,0,3.646,1.641,3.646,3.646v149.473c0,2.007-1.642,3.646-3.646,3.646H178.916
	c-2.005,0-3.646-1.642-3.646-3.646v-114.84L211.727,171.467z"/>
<path fill="#E6E6E6" d="M209.568,214.208c2.005,0,3.646-1.641,3.646-3.646v-34.633l-36.456,38.28H209.568z"/>
<circle fill="#E16B5A" cx="236.912" cy="261.604" r="32.812"/>
<path fill="#F5F5F5" d="M229.38,247.925c-0.869-0.497-1.583-0.083-1.583,0.919v25.518c0,1.003,0.712,1.418,1.583,0.919
	l22.355-12.775c0.873-0.497,0.873-1.311,0-1.808L229.38,247.925z"/>
</svg>
