<?xml version="1.0" encoding="utf-8"?>
<!-- Generator: Adobe Illustrator 16.0.0, SVG Export Plug-In . SVG Version: 6.00 Build 0)  -->
<!DOCTYPE svg PUBLIC "-//W3C//DTD SVG 1.1//EN" "http://www.w3.org/Graphics/SVG/1.1/DTD/svg11.dtd">
<svg version="1.1"
	 id="svg2" xmlns:dc="http://purl.org/dc/elements/1.1/" xmlns:cc="http://creativecommons.org/ns#" xmlns:rdf="http://www.w3.org/1999/02/22-rdf-syntax-ns#" xmlns:svg="http://www.w3.org/2000/svg" xmlns:sodipodi="http://sodipodi.sourceforge.net/DTD/sodipodi-0.dtd" xmlns:inkscape="http://www.inkscape.org/namespaces/inkscape" sodipodi:docname="folder-templates.svg" inkscape:version="0.91 r13725" inkscape:export-ydpi="100" inkscape:export-xdpi="100" inkscape:export-filename="/home/alecive/Scrivania/firefoxTest1.png"
	 xmlns="http://www.w3.org/2000/svg" xmlns:xlink="http://www.w3.org/1999/xlink" x="0px" y="0px" width="512px" height="512px"
	 viewBox="0 0 512 512" enable-background="new 0 0 512 512" xml:space="preserve">
<sodipodi:namedview  showgrid="false" inkscape:cy="220.82335" inkscape:cx="458.60778" inkscape:zoom="1.42" borderopacity="1.0" bordercolor="#666666" pagecolor="#ffffff" id="base" inkscape:window-maximized="1" inkscape:window-y="30" inkscape:current-layer="svg2" inkscape:document-units="px" inkscape:pageopacity="0.0" inkscape:window-x="0" inkscape:window-height="834" inkscape:window-width="1600" inkscape:pageshadow="2" inkscape:object-paths="false" inkscape:snap-global="false" inkscape:object-nodes="true" inkscape:snap-nodes="true" inkscape:snap-smooth-nodes="true" inkscape:snap-intersection-paths="false">
	</sodipodi:namedview>
<g id="layer1" transform="translate(0,-540.36218)" inkscape:label="Livello 1" inkscape:groupmode="layer">
</g>
<g id="g2036" transform="matrix(1.1,0,0,0.44444,95.081063,256.39254)">
	<g id="g3712" transform="matrix(1.0526,0,0,1.2857,-1.2632,-13.429)" opacity="0.4">
	</g>
</g>
<g id="g3541" transform="translate(97.481063,231.28154)">
</g>
<g id="g3536" transform="translate(97.481063,231.28154)">
</g>
<g id="g4076" transform="translate(-605.51932,-353.96833)">
	<g id="g4038" transform="translate(-926.66758,684.38448)">
	</g>
</g>
<path fill="#F6C358" d="M459.178,424.471H61.625c-14.637,0-26.503-11.865-26.503-26.503V96.972c0-11.711,9.492-21.203,21.201-21.203
	h95.498c5.844,0,11.425,2.411,15.433,6.665l37.385,39.681c4.006,4.25,9.59,6.663,15.433,6.663h244.402
	c11.71,0,21.204,9.494,21.204,21.205v247.986C485.681,412.605,473.813,424.471,459.178,424.471z"/>
<path fill="#FCD462" d="M435.146,400.441H37.595c-14.636,0-26.503-11.865-26.503-26.503V72.941c0-11.71,9.492-21.202,21.202-21.202
	h95.498c5.844,0,11.426,2.41,15.433,6.664l37.384,39.68c4.006,4.251,9.591,6.665,15.434,6.665h244.402
	c11.711,0,21.205,9.493,21.205,21.201V373.94C461.651,388.576,449.783,400.441,435.146,400.441z"/>
<path fill="#004871" d="M344.532,253.346c0,28.057-10.701,53.552-28.228,72.79c-19.75,21.742-48.262,35.345-79.907,35.345
	c-31.7,0-60.155-13.603-79.96-35.345c-17.531-19.238-28.171-44.733-28.171-72.79c0-59.76,48.375-108.135,108.134-108.135
	C296.101,145.211,344.532,193.586,344.532,253.346z"/>
<g>
	<rect x="274" y="310.477" fill="#00DEFC" width="4.882" height="4.819"/>
	<rect x="225.178" y="310.477" fill="#00DEFC" width="4.88" height="4.819"/>
	<rect x="195.887" y="310.477" fill="#00DEFC" width="4.881" height="4.819"/>
	<rect x="205.65" y="310.477" fill="#00DEFC" width="4.878" height="4.819"/>
	<rect x="234.941" y="310.477" fill="#00DEFC" width="4.882" height="4.819"/>
	<rect x="244.713" y="310.477" fill="#00DEFC" width="4.882" height="4.819"/>
	<rect x="215.413" y="310.477" fill="#00DEFC" width="4.88" height="4.819"/>
	<rect x="254.475" y="310.477" fill="#00DEFC" width="4.881" height="4.819"/>
	<rect x="264.235" y="310.477" fill="#00DEFC" width="4.881" height="4.819"/>
	<rect x="176.417" y="232.362" fill="#00DEFC" width="4.82" height="4.881"/>
	<rect x="176.417" y="251.893" fill="#00DEFC" width="4.82" height="4.882"/>
	<rect x="176.417" y="242.129" fill="#00DEFC" width="4.82" height="4.88"/>
	<rect x="176.417" y="212.837" fill="#00DEFC" width="4.82" height="4.881"/>
	<rect x="176.417" y="290.951" fill="#00DEFC" width="4.82" height="4.882"/>
	<rect x="176.417" y="222.601" fill="#00DEFC" width="4.82" height="4.881"/>
	<rect x="176.417" y="261.664" fill="#00DEFC" width="4.82" height="4.879"/>
	<rect x="176.417" y="271.426" fill="#00DEFC" width="4.82" height="4.882"/>
	<rect x="176.417" y="281.186" fill="#00DEFC" width="4.82" height="4.881"/>
	<rect x="205.65" y="193.369" fill="#00DEFC" width="4.881" height="4.82"/>
	<rect x="195.887" y="193.369" fill="#00DEFC" width="4.881" height="4.82"/>
	<rect x="215.414" y="193.369" fill="#00DEFC" width="4.88" height="4.82"/>
	<rect x="254.475" y="193.369" fill="#00DEFC" width="4.881" height="4.82"/>
	<rect x="264.235" y="193.369" fill="#00DEFC" width="4.881" height="4.82"/>
	<rect x="274" y="193.369" fill="#00DEFC" width="4.882" height="4.82"/>
	<rect x="225.179" y="193.369" fill="#00DEFC" width="4.881" height="4.82"/>
	<rect x="234.943" y="193.369" fill="#00DEFC" width="4.882" height="4.82"/>
	<rect x="244.713" y="193.369" fill="#00DEFC" width="4.882" height="4.82"/>
	<rect x="293.526" y="251.894" fill="#00DEFC" width="4.821" height="4.882"/>
	<rect x="293.526" y="261.664" fill="#00DEFC" width="4.821" height="4.879"/>
	<rect x="293.526" y="242.13" fill="#00DEFC" width="4.821" height="4.88"/>
	<rect x="293.526" y="281.186" fill="#00DEFC" width="4.821" height="4.88"/>
	<rect x="293.526" y="271.426" fill="#00DEFC" width="4.821" height="4.882"/>
	<rect x="293.526" y="290.951" fill="#00DEFC" width="4.821" height="4.882"/>
	<rect x="293.526" y="232.364" fill="#00DEFC" width="4.821" height="4.881"/>
	<rect x="293.526" y="222.602" fill="#00DEFC" width="4.821" height="4.88"/>
	<polygon fill="#00DEFC" points="298.352,300.717 293.531,300.717 293.531,305.156 288.206,305.156 288.206,310.479 
		283.765,310.479 283.765,315.302 288.206,315.302 288.206,320.625 303.674,320.625 303.674,305.156 298.352,305.156 	"/>
	<rect x="293.526" y="212.837" fill="#00DEFC" width="4.821" height="4.881"/>
	<polygon fill="#00DEFC" points="186.561,188.045 171.094,188.045 171.094,203.512 176.419,203.512 176.419,207.955 181.24,207.955 
		181.24,203.512 186.561,203.512 186.561,198.189 191.004,198.189 191.004,193.369 186.561,193.369 	"/>
	<polygon fill="#00DEFC" points="288.206,188.045 288.206,193.369 283.765,193.369 283.765,198.189 288.206,198.189 
		288.206,203.512 293.531,203.512 293.531,207.955 298.352,207.955 298.352,203.512 303.674,203.512 303.674,188.045 	"/>
	<polygon fill="#00DEFC" points="186.561,305.156 181.24,305.156 181.24,300.717 176.419,300.717 176.419,305.156 171.094,305.156 
		171.094,320.625 186.561,320.625 186.561,315.302 191.004,315.302 191.004,310.479 186.561,310.479 	"/>
</g>
<rect x="193.624" y="253.955" fill="#F6C358" width="91.987" height="4.82"/>
<path fill="#FFFFFF" d="M191.082,206.313v36.554h92.211v-36.554H191.082z M230.122,224.591l-34.22,12.425v-24.851L230.122,224.591z
	 M207.199,211.135h59.979l-29.989,10.891L207.199,211.135z M237.189,227.156l29.989,10.891h-59.979L237.189,227.156z
	 M244.254,224.591l34.22-12.425v24.851L244.254,224.591z"/>
<rect x="192.134" y="266.156" fill="#E1E6E9" width="43.559" height="4.819"/>
<rect x="242.799" y="266.156" fill="#27A2DB" width="43.558" height="4.819"/>
<g>
	<rect x="192.134" y="278.352" fill="#E1E6E9" width="43.559" height="4.821"/>
	<rect x="240.564" y="278.352" fill="#E1E6E9" width="43.558" height="4.821"/>
	<rect x="192.134" y="290.574" fill="#E1E6E9" width="43.559" height="4.822"/>
	<rect x="240.564" y="290.574" fill="#E1E6E9" width="43.558" height="4.822"/>
	<rect x="192.134" y="302.772" fill="#E1E6E9" width="43.559" height="4.821"/>
	<rect x="240.564" y="302.772" fill="#E1E6E9" width="43.558" height="4.821"/>
</g>
</svg>
