<?xml version="1.0" encoding="utf-8"?>
<!-- Generator: Adobe Illustrator 16.0.0, SVG Export Plug-In . SVG Version: 6.00 Build 0)  -->
<!DOCTYPE svg PUBLIC "-//W3C//DTD SVG 1.1//EN" "http://www.w3.org/Graphics/SVG/1.1/DTD/svg11.dtd">
<svg version="1.1"
	 id="svg2" xmlns:dc="http://purl.org/dc/elements/1.1/" xmlns:cc="http://creativecommons.org/ns#" xmlns:rdf="http://www.w3.org/1999/02/22-rdf-syntax-ns#" xmlns:svg="http://www.w3.org/2000/svg" xmlns:sodipodi="http://sodipodi.sourceforge.net/DTD/sodipodi-0.dtd" xmlns:inkscape="http://www.inkscape.org/namespaces/inkscape" sodipodi:docname="folder-remote.svg" inkscape:version="0.91 r13725" inkscape:export-ydpi="100" inkscape:export-xdpi="100" inkscape:export-filename="/home/alecive/Scrivania/firefoxTest1.png" xmlns:osb="http://www.openswatchbook.org/uri/2009/osb"
	 xmlns="http://www.w3.org/2000/svg" xmlns:xlink="http://www.w3.org/1999/xlink" x="0px" y="0px" width="512px" height="512px"
	 viewBox="0 0 512 512" enable-background="new 0 0 512 512" xml:space="preserve">
<sodipodi:namedview  showgrid="false" inkscape:cy="191.92462" inkscape:cx="336.60164" inkscape:zoom="2.32" borderopacity="1.0" bordercolor="#666666" pagecolor="#ffffff" id="base" inkscape:window-maximized="1" inkscape:window-y="30" inkscape:current-layer="layer6-8" inkscape:document-units="px" inkscape:pageopacity="0.0" inkscape:window-x="0" inkscape:window-height="834" inkscape:window-width="1600" inkscape:pageshadow="2" inkscape:object-paths="false" inkscape:snap-global="false" inkscape:object-nodes="true" inkscape:guide-bbox="true" inkscape:snap-nodes="true" inkscape:snap-smooth-nodes="true" inkscape:snap-intersection-paths="false" showguides="true">
	</sodipodi:namedview>
<g id="layer1" transform="translate(0,-540.36218)" inkscape:label="Livello 1" inkscape:groupmode="layer">
</g>
<g id="g2036" transform="matrix(1.1,0,0,0.44444,95.081063,256.39254)">
	<g id="g3712" transform="matrix(1.0526,0,0,1.2857,-1.2632,-13.429)" opacity="0.4">
	</g>
</g>
<g id="g3541" transform="translate(97.481063,231.28154)">
</g>
<g id="g3536" transform="translate(97.481063,231.28154)">
</g>
<g id="g4076" transform="translate(-605.51932,-353.96833)">
	<g id="g4038" transform="translate(-926.66758,684.38448)">
	</g>
</g>
<path fill="#F6C358" d="M457.753,424.211H62.887c-14.537,0-26.323-11.785-26.323-26.323V98.926c0-11.631,9.427-21.06,21.057-21.06
	h94.853c5.804,0,11.348,2.394,15.328,6.62l37.132,39.413c3.979,4.222,9.525,6.618,15.329,6.618h242.75
	c11.632,0,21.062,9.429,21.062,21.061v246.311C484.076,412.426,472.289,424.211,457.753,424.211z"/>
<path fill="#FCD462" d="M433.883,400.344H39.02c-14.537,0-26.324-11.784-26.324-26.323V75.058c0-11.631,9.428-21.059,21.058-21.059
	h94.853c5.804,0,11.348,2.394,15.328,6.619l37.132,39.411c3.979,4.223,9.526,6.62,15.329,6.62h242.75
	c11.632,0,21.062,9.428,21.062,21.058v246.315C460.209,388.56,448.422,400.344,433.883,400.344z"/>
<path fill="#CAECFF" d="M343.882,254.243c0,27.867-10.628,53.19-28.037,72.297c-19.616,21.596-47.935,35.106-79.364,35.106
	c-31.486,0-59.75-13.511-79.421-35.106c-17.412-19.107-27.981-44.431-27.981-72.297c0-59.356,48.049-107.403,107.403-107.403
	C295.778,146.839,343.882,194.887,343.882,254.243z"/>
<path fill="#0EE0B8" d="M281.561,177.653h-95.108c-4.146,0-8.536,3.901-8.536,8.047v97.548l48.286,45.603h55.359
	c4.146,0,8.535-3.904,8.535-8.047V185.7C290.094,181.555,285.707,177.653,281.561,177.653z"/>
<path fill="#00ADDB" d="M281.561,177.653h-95.108c-4.146,0-8.536,3.901-8.536,8.047v97.548l48.286,45.603h55.359
	c4.146,0,8.535-3.904,8.535-8.047V185.7C290.094,181.555,285.707,177.653,281.561,177.653z"/>
<path fill="#59E2FF" d="M226.202,328.852h0.489v-38.288c0-4.147-3.658-8.045-7.804-8.045l-40.971,0.485L226.202,328.852z"/>
<path fill="#40DBFF" d="M204.055,268.773L204.055,268.773v-65.763c0-2.802,1.978-5.438,4.614-5.438h-2.142
	c-2.802,0-5.769,2.637-5.769,5.438v65.929L204.055,268.773L204.055,268.773z"/>
<path fill="#0491BC" d="M265.952,250.569c0.977-1.217,1.708-2.682,1.708-4.389c0-4.146-4.39-7.316-6.829-7.561v-0.486
	c0-4.146-3.658-7.804-8.047-7.804c-3.169,0-5.607,1.952-6.828,4.633c-2.439-1.219-4.877-0.731-7.316,0.732v-1.95
	c0-4.146-4.39-7.803-8.535-7.803c-4.146,0-8.535,3.415-8.535,7.803v5.609c-2.438-1.463-6.099-0.732-8.291,1.707
	c-2.684,2.684-2.439,7.562-0.488,10h-4.877c-4.146,0-7.804,3.169-7.804,7.315c0,4.146,3.414,7.317,7.804,7.317h56.576
	c4.144,0,7.802-3.414,7.802-7.56C272.292,253.987,269.61,251.058,265.952,250.569z"/>
<path fill="#FFFFFF" d="M263.759,242.766c0.977-1.219,1.706-2.683,1.706-4.389c0-4.146-4.391-7.316-6.829-7.559v-0.489
	c0-4.146-3.658-7.803-7.803-7.803c-3.171,0-5.609,1.952-6.829,4.635c-2.438-1.221-4.878-0.732-7.315,0.73v-1.708
	c0-4.146-4.39-7.803-8.536-7.803c-4.146,0-8.536,3.414-8.536,7.803v5.609c-2.438-1.464-5.854-0.488-8.292,1.951
	c-2.683,2.683-2.438,5.365-0.488,10.242h-4.878c-4.146,0-7.803,3.171-7.803,7.316c0,4.146,3.415,7.316,7.803,7.316h56.577
	c4.147,0,7.803-3.66,7.803-7.804C270.096,246.424,267.172,243.254,263.759,242.766z"/>
</svg>
