<?xml version="1.0" encoding="utf-8"?>
<!-- Generator: Adobe Illustrator 16.0.0, SVG Export Plug-In . SVG Version: 6.00 Build 0)  -->
<!DOCTYPE svg PUBLIC "-//W3C//DTD SVG 1.1//EN" "http://www.w3.org/Graphics/SVG/1.1/DTD/svg11.dtd">
<svg version="1.1"
	 id="svg2" xmlns:dc="http://purl.org/dc/elements/1.1/" xmlns:cc="http://creativecommons.org/ns#" xmlns:rdf="http://www.w3.org/1999/02/22-rdf-syntax-ns#" xmlns:svg="http://www.w3.org/2000/svg" xmlns:sodipodi="http://sodipodi.sourceforge.net/DTD/sodipodi-0.dtd" xmlns:inkscape="http://www.inkscape.org/namespaces/inkscape" sodipodi:docname="folder-remote.svg" inkscape:version="0.91 r13725" inkscape:export-ydpi="100" inkscape:export-xdpi="100" inkscape:export-filename="/home/alecive/Scrivania/firefoxTest1.png" xmlns:osb="http://www.openswatchbook.org/uri/2009/osb"
	 xmlns="http://www.w3.org/2000/svg" xmlns:xlink="http://www.w3.org/1999/xlink" x="0px" y="0px" width="512px" height="512px"
	 viewBox="0 0 512 512" enable-background="new 0 0 512 512" xml:space="preserve">
<sodipodi:namedview  showgrid="false" inkscape:cy="191.92462" inkscape:cx="336.60164" inkscape:zoom="2.32" borderopacity="1.0" bordercolor="#666666" pagecolor="#ffffff" id="base" inkscape:window-maximized="1" inkscape:window-y="30" inkscape:current-layer="layer6-8" inkscape:document-units="px" inkscape:pageopacity="0.0" inkscape:window-x="0" inkscape:window-height="834" inkscape:window-width="1600" inkscape:pageshadow="2" inkscape:object-paths="false" inkscape:snap-global="false" inkscape:object-nodes="true" inkscape:guide-bbox="true" inkscape:snap-nodes="true" inkscape:snap-smooth-nodes="true" inkscape:snap-intersection-paths="false" showguides="true">
	</sodipodi:namedview>
<g id="layer1" transform="translate(0,-540.36218)" inkscape:label="Livello 1" inkscape:groupmode="layer">
</g>
<g id="g2036" transform="matrix(1.1,0,0,0.44444,95.081063,256.39254)">
	<g id="g3712" transform="matrix(1.0526,0,0,1.2857,-1.2632,-13.429)" opacity="0.4">
	</g>
</g>
<g id="g3541" transform="translate(97.481063,231.28154)">
</g>
<g id="g3536" transform="translate(97.481063,231.28154)">
</g>
<g id="g4076" transform="translate(-605.51932,-353.96833)">
	<g id="g4038" transform="translate(-926.66758,684.38448)">
	</g>
</g>
<path fill="#F6C358" d="M461.147,427.211H59.881c-14.773,0-26.75-11.976-26.75-26.75V96.654c0-11.82,9.58-21.401,21.398-21.401
	h96.39c5.898,0,11.532,2.433,15.577,6.727l37.733,40.051c4.043,4.291,9.68,6.725,15.577,6.725h246.685
	c11.819,0,21.402,9.583,21.402,21.403v250.302C487.897,415.235,475.918,427.211,461.147,427.211z"/>
<path fill="#FCD462" d="M436.89,402.957H35.626c-14.772,0-26.75-11.976-26.75-26.75V72.399c0-11.819,9.581-21.4,21.399-21.4h96.39
	c5.898,0,11.532,2.433,15.577,6.726l37.733,40.05c4.044,4.292,9.681,6.727,15.578,6.727h246.685
	c11.819,0,21.402,9.581,21.402,21.399v250.307C463.643,390.981,451.664,402.957,436.89,402.957z"/>
<path fill="#CAECFF" d="M345.43,254.488c0,28.319-10.801,54.052-28.491,73.469c-19.935,21.946-48.712,35.675-80.651,35.675
	c-31.996,0-60.719-13.729-80.708-35.675c-17.694-19.417-28.434-45.15-28.434-73.469c0-60.317,48.827-109.144,109.144-109.144
	C296.546,145.344,345.43,194.17,345.43,254.488z"/>
<path fill="#0EE0B8" d="M282.098,176.658h-96.649c-4.212,0-8.674,3.964-8.674,8.177v99.128l49.068,46.343h56.255
	c4.214,0,8.674-3.968,8.674-8.178V184.834C290.77,180.622,286.312,176.658,282.098,176.658z"/>
<path fill="#00ADDB" d="M282.098,176.658h-96.649c-4.212,0-8.674,3.964-8.674,8.177v99.128l49.068,46.343h56.255
	c4.214,0,8.674-3.968,8.674-8.178V184.834C290.77,180.622,286.312,176.658,282.098,176.658z"/>
<path fill="#59E2FF" d="M225.842,330.307h0.496v-38.907c0-4.216-3.717-8.176-7.93-8.176l-41.634,0.493L225.842,330.307z"/>
<path fill="#40DBFF" d="M181.732,283.714L181.732,283.714v-98.879c0-4.212,2.974-8.177,6.937-8.177h-3.221
	c-4.212,0-8.674,3.964-8.674,8.177v99.128L181.732,283.714L181.732,283.714z"/>
<path fill="#0491BC" d="M266.236,250.755c0.993-1.237,1.736-2.726,1.736-4.46c0-4.213-4.461-7.435-6.939-7.683v-0.494
	c0-4.213-3.718-7.931-8.178-7.931c-3.221,0-5.699,1.984-6.938,4.708c-2.479-1.239-4.956-0.743-7.434,0.744v-1.982
	c0-4.212-4.461-7.93-8.674-7.93s-8.673,3.471-8.673,7.93v5.7c-2.478-1.486-6.197-0.744-8.426,1.735
	c-2.727,2.727-2.479,7.684-0.496,10.162h-4.956c-4.213,0-7.931,3.221-7.931,7.434s3.469,7.436,7.931,7.436h57.493
	c4.211,0,7.929-3.469,7.929-7.683C272.68,254.228,269.955,251.251,266.236,250.755z"/>
<path fill="#FFFFFF" d="M264.008,242.825c0.992-1.239,1.734-2.726,1.734-4.46c0-4.213-4.463-7.435-6.94-7.682v-0.497
	c0-4.212-3.717-7.93-7.93-7.93c-3.222,0-5.7,1.983-6.939,4.709c-2.478-1.24-4.957-0.744-7.433,0.743v-1.735
	c0-4.213-4.461-7.93-8.674-7.93c-4.213,0-8.674,3.469-8.674,7.93v5.7c-2.478-1.487-5.948-0.496-8.426,1.983
	c-2.726,2.726-2.478,5.452-0.497,10.408h-4.957c-4.212,0-7.93,3.222-7.93,7.434c0,4.213,3.471,7.436,7.93,7.436h57.494
	c4.214,0,7.929-3.719,7.929-7.93C270.448,246.543,267.477,243.321,264.008,242.825z"/>
</svg>
