<?xml version="1.0" encoding="utf-8"?>
<!-- Generator: Adobe Illustrator 16.0.0, SVG Export Plug-In . SVG Version: 6.00 Build 0)  -->
<!DOCTYPE svg PUBLIC "-//W3C//DTD SVG 1.1//EN" "http://www.w3.org/Graphics/SVG/1.1/DTD/svg11.dtd">
<svg version="1.1"
	 id="svg2" xmlns:dc="http://purl.org/dc/elements/1.1/" xmlns:cc="http://creativecommons.org/ns#" xmlns:rdf="http://www.w3.org/1999/02/22-rdf-syntax-ns#" xmlns:svg="http://www.w3.org/2000/svg" xmlns:sodipodi="http://sodipodi.sourceforge.net/DTD/sodipodi-0.dtd" xmlns:inkscape="http://www.inkscape.org/namespaces/inkscape" sodipodi:docname="user-trash.svg" inkscape:version="0.91+devel r"
	 xmlns="http://www.w3.org/2000/svg" xmlns:xlink="http://www.w3.org/1999/xlink" x="0px" y="0px" width="662px" height="646px"
	 viewBox="0 0 662 646" enable-background="new 0 0 662 646" xml:space="preserve">
<sodipodi:namedview  showgrid="false" inkscape:cy="315.44358" inkscape:cx="8.7275537" inkscape:zoom="0.5204747" borderopacity="1" bordercolor="#666666" pagecolor="#ffffff" id="namedview4" inkscape:window-maximized="1" inkscape:window-y="27" inkscape:current-layer="svg2" inkscape:pageopacity="0" inkscape:window-x="0" inkscape:window-height="1027" inkscape:window-width="1920" inkscape:pageshadow="2" guidetolerance="10" gridtolerance="10" objecttolerance="10">
	</sodipodi:namedview>
<sodipodi:namedview  showgrid="false" inkscape:cy="218.40016" inkscape:cx="328.16944" inkscape:zoom="2.32" borderopacity="1.0" bordercolor="#666666" pagecolor="#ffffff" id="base" inkscape:window-maximized="1" inkscape:window-y="30" inkscape:current-layer="svg2" inkscape:document-units="px" inkscape:pageopacity="0.0" inkscape:window-x="0" inkscape:window-height="834" inkscape:window-width="1600" inkscape:pageshadow="2" inkscape:object-paths="false" inkscape:object-nodes="true" inkscape:guide-bbox="true" inkscape:snap-nodes="true" inkscape:snap-smooth-nodes="true" inkscape:snap-intersection-paths="false" showguides="true">
	</sodipodi:namedview>
<g id="layer1" transform="translate(0,-540.36218)" inkscape:label="Livello 1" inkscape:groupmode="layer">
</g>
<g id="g2036" transform="matrix(1.1,0,0,0.44444,95.081063,256.39254)">
	<g id="g3712" transform="matrix(1.0526,0,0,1.2857,-1.2632,-13.429)" opacity="0.4">
	</g>
</g>
<g id="g3541" transform="translate(97.481063,231.28154)">
</g>
<g id="g3536" transform="translate(97.481063,231.28154)">
</g>
<g id="g4076" transform="translate(-605.51932,-353.96833)">
	<g id="g4038" transform="translate(-926.66758,684.38448)">
	</g>
</g>
<path id="path3348" inkscape:connector-curvature="0" fill="#CFD1D1" d="M304.98,627.895
	c-66.813-4.619-121.269-22.812-144.762-48.614c-8.421-9.097-10.592-14.123-13.172-28.38c-6.79-39.521-74.145-401.558-75.909-408.348
	c-12.086-46.171,37.072-87.997,130.366-110.81c21.319-5.296,53.775-10.459,79.578-12.765c23.084-2.038,76.725-2.038,99.947,0
	c112.85,10.05,197.315,48.887,209.945,96.688c2.443,9.235,2.307,16.296-0.815,29.061c-3.396,13.852-75.911,407.124-75.911,411.469
	c0,1.764-1.9,6.924-4.073,11.409c-11.407,22.811-49.566,43.047-101.17,53.499C380.212,627.082,335.127,629.934,304.98,627.895
	L304.98,627.895z"/>
<path id="path3340" inkscape:connector-curvature="0" fill="#A4A5A5" d="M301.042,207.464
	c-81.344-4.073-156.577-26.616-189.032-56.628c-8.283-7.605-14.802-18.469-14.802-24.443c0-10.184,12.493-25.258,30.011-36.395
	c74.691-47.664,229.5-60.428,342.892-28.11c39.11,11,68.714,26.209,85.008,43.456c10.999,11.677,13.173,19.146,8.284,29.74
	c-11.272,24.849-61.52,50.108-124.799,62.873c-25.396,5.159-49.704,8.011-79.714,9.506
	C332.685,208.821,329.287,208.821,301.042,207.464L301.042,207.464z"/>
<g id="XMLID_10_">
	<g id="XMLID_17_">
		<path id="XMLID_18_" fill="#729BCC" d="M201.094,318.683c-0.814,0.272-1.356,0.816-1.495,1.629c-0.135,0.815,0,1.632,0.68,2.173
			l10.186,10.184l-0.137,0.137c-34.357,34.357-34.902,89.625-2.173,124.799l-3.667-10.999c-2.716-8.015-0.679-16.705,5.294-22.814
			c4.21-4.075,9.643-6.383,15.62-6.383c2.442,0,4.752,0.406,7.059,1.22l11.815,3.938c-13.85-15.617-13.445-39.516,1.496-54.453
			l0.135-0.137l10.185,10.186c0.542,0.543,1.356,0.816,2.171,0.68c0.814-0.137,1.357-0.816,1.631-1.497
			c2.716-8.148,15.48-45.763,26.616-78.897c1.356-4.072-2.444-8.01-6.656-6.655C254.871,300.352,209.512,315.831,201.094,318.683z"
			/>
	</g>
	<g id="XMLID_15_">
		<path id="XMLID_16_" fill="#729BCC" d="M409.681,266.537c-0.815-0.137-1.631,0-2.174,0.679L397.324,277.4l-2.31-2.309
			c-16.975-16.974-39.516-26.345-63.553-26.345c-24.039,0-46.579,9.371-63.555,26.345l-0.135,0.137l11.134-3.802
			c2.31-0.815,4.754-1.223,7.199-1.223c5.838,0,11.269,2.308,15.753,6.52c5.975,5.973,7.875,14.666,5.159,22.541l-3.804,11.407
			l0.135-0.135c7.471-7.468,17.521-11.679,28.112-11.679s20.642,4.073,28.11,11.679l2.308,2.308l-10.185,10.184
			c-0.542,0.545-0.813,1.356-0.678,2.173c0.136,0.814,0.678,1.357,1.495,1.632c4.344,1.494,49.971,16.839,78.76,26.616
			c4.074,1.357,8.013-2.444,6.655-6.656c-8.419-24.849-24.309-71.837-26.615-78.762
			C411.173,267.351,410.494,266.672,409.681,266.537z"/>
	</g>
	<g id="XMLID_13_">
		<path id="XMLID_14_" fill="#729BCC" d="M384.015,521.293c-2.309,0.817-4.754,1.221-7.195,1.221c-5.84,0-11.409-2.305-15.618-6.517
			c-5.976-5.977-8.015-14.667-5.296-22.679l3.802-11.272l-0.135,0.137c-15.074,15.075-41.282,15.075-56.221,0l-2.306-2.307
			l10.183-10.187c0.544-0.543,0.816-1.355,0.679-2.174c-0.135-0.813-0.679-1.354-1.494-1.627
			c-6.79-2.309-55.948-19.014-78.762-26.753c-4.074-1.354-8.013,2.444-6.655,6.656c8.149,23.897,24.174,71.429,26.617,78.762
			c0.137,0.545,0.544,1.085,1.087,1.357c0.95,0.407,2.036,0.271,2.716-0.406l10.186-10.185l2.306,2.307
			c16.975,16.976,39.516,26.347,63.555,26.347c24.037,0,46.576-9.371,63.553-26.347l0.137-0.133L384.015,521.293z"/>
	</g>
	<g id="XMLID_11_">
		<path id="XMLID_12_" fill="#729BCC" d="M452.73,460.049l0.135-0.136c34.356-34.358,34.901-89.626,2.172-124.8l3.667,11.002
			c2.718,8.011,0.544,16.972-5.159,22.678c-4.074,4.209-9.778,6.518-15.618,6.518c-2.443,0-4.753-0.403-7.06-1.221l-11.814-3.939
			c13.853,15.618,13.443,39.517-1.495,54.455l-0.136,0.136l-10.183-10.185c-0.683-0.681-1.901-0.95-2.852-0.271
			c-0.409,0.271-0.817,0.813-0.954,1.221c-2.307,6.927-18.739,55.404-26.613,78.763c-1.359,4.075,2.443,8.015,6.653,6.652
			c22.678-7.604,71.973-24.441,78.762-26.749c0.816-0.271,1.355-0.814,1.494-1.632c0.137-0.813,0-1.63-0.678-2.17L452.73,460.049z"
			/>
	</g>
</g>
</svg>
