<?xml version="1.0" encoding="utf-8"?>
<!-- Generator: Adobe Illustrator 16.0.0, SVG Export Plug-In . SVG Version: 6.00 Build 0)  -->
<!DOCTYPE svg PUBLIC "-//W3C//DTD SVG 1.1//EN" "http://www.w3.org/Graphics/SVG/1.1/DTD/svg11.dtd">
<svg version="1.1"
	 id="svg2" xmlns:dc="http://purl.org/dc/elements/1.1/" xmlns:cc="http://creativecommons.org/ns#" xmlns:rdf="http://www.w3.org/1999/02/22-rdf-syntax-ns#" xmlns:svg="http://www.w3.org/2000/svg" xmlns:sodipodi="http://sodipodi.sourceforge.net/DTD/sodipodi-0.dtd" xmlns:inkscape="http://www.inkscape.org/namespaces/inkscape" sodipodi:docname="user-bookmarks.svg" inkscape:version="0.92.2 (5c3e80d, 2017-08-06)" inkscape:export-ydpi="100" inkscape:export-xdpi="100" inkscape:export-filename="/home/alecive/Scrivania/firefoxTest1.png" xmlns:osb="http://www.openswatchbook.org/uri/2009/osb"
	 xmlns="http://www.w3.org/2000/svg" xmlns:xlink="http://www.w3.org/1999/xlink" x="0px" y="0px" width="512px" height="512px"
	 viewBox="0 0 512 512" enable-background="new 0 0 512 512" xml:space="preserve">
<sodipodi:namedview  showgrid="false" inkscape:cy="110.77416" inkscape:cx="320.79247" inkscape:zoom="0.70710678" borderopacity="1.0" bordercolor="#666666" pagecolor="#ffffff" id="base" inkscape:window-maximized="1" inkscape:window-y="25" inkscape:current-layer="svg2" inkscape:document-units="px" inkscape:pageopacity="0.0" inkscape:window-x="0" inkscape:window-height="717" inkscape:window-width="1360" inkscape:pageshadow="2" inkscape:object-paths="false" inkscape:object-nodes="true" inkscape:guide-bbox="true" inkscape:snap-nodes="true" inkscape:snap-smooth-nodes="true" inkscape:snap-intersection-paths="false" showguides="true">
	</sodipodi:namedview>
<g id="layer1" transform="translate(0,-540.36218)" inkscape:label="Livello 1" inkscape:groupmode="layer">
</g>
<g id="g2036" transform="matrix(1.1,0,0,0.44444,95.081063,256.39254)">
	<g id="g3712" transform="matrix(1.0526,0,0,1.2857,-1.2632,-13.429)" opacity="0.4">
	</g>
</g>
<g id="g3541" transform="translate(97.481063,231.28154)">
</g>
<g id="g3536" transform="translate(97.481063,231.28154)">
</g>
<g id="g4076" transform="translate(-605.51932,-353.96833)">
	<g id="g4038" transform="translate(-926.66758,684.38448)">
	</g>
</g>
<path fill="#F6C358" d="M456.31,423.9H62.107c-14.512,0-26.279-11.766-26.279-26.279V99.161c0-11.612,9.412-21.024,21.022-21.024
	h94.693c5.795,0,11.33,2.391,15.304,6.609l37.069,39.346c3.973,4.215,9.51,6.606,15.303,6.606h242.343
	c11.611,0,21.025,9.414,21.025,21.026v245.897C482.589,412.135,470.821,423.9,456.31,423.9z"/>
<path fill="#FCD462" d="M432.48,400.073h-394.2C23.767,400.073,12,388.308,12,373.794V75.333c0-11.611,9.412-21.023,21.022-21.023
	h94.693c5.795,0,11.33,2.39,15.304,6.607l37.069,39.346c3.972,4.215,9.51,6.608,15.303,6.608h242.343
	c11.612,0,21.025,9.413,21.025,21.022v245.901C458.762,388.308,446.994,400.073,432.48,400.073z"/>
<path fill="#007142" d="M342.63,254.216c0,27.819-10.61,53.103-27.99,72.178c-19.583,21.56-47.854,35.047-79.233,35.047
	c-31.433,0-59.65-13.487-79.289-35.047c-17.383-19.075-27.933-44.356-27.933-72.178c0-59.255,47.967-107.223,107.223-107.223
	C294.607,146.994,342.63,194.961,342.63,254.216z"/>
<path fill="#0EE0B8" d="M284.123,172.478H180.057c-4.536,0-9.34,4.271-9.34,8.805v106.734l52.833,49.898h60.573
	c4.533,0,9.337-4.27,9.337-8.805V181.285C293.461,176.749,288.658,172.478,284.123,172.478z"/>
<path fill="#FFD400" d="M284.123,172.478H180.057c-4.536,0-9.34,4.271-9.34,8.805v106.734l52.833,49.898h60.573
	c4.533,0,9.337-4.27,9.337-8.805V181.285C293.461,176.749,288.658,172.478,284.123,172.478z"/>
<path fill="#FFB000" d="M216.079,289.62v40.024c0,0.532,0.533,1.067,0.533,1.602l6.403,6.137c0.533,0,1.068,0.532,1.601,0.532
	h21.348l-24.281-40.29L216.079,289.62z"/>
<path fill="#FFFFFF" d="M223.55,337.916h0.534v-41.893c0-4.535-4.001-8.805-8.54-8.805l-44.828,0.533L223.55,337.916z"/>
<polyline fill="#FFF7D7" points="170.717,287.752 223.55,337.916 224.085,337.916 224.085,295.225 "/>
<path fill="#F9E385" d="M176.055,287.752L176.055,287.752V181.285c0-4.536,3.201-8.805,7.471-8.805h-3.47
	c-4.536,0-9.34,4.271-9.34,8.805v106.734L176.055,287.752L176.055,287.752z"/>
<path fill="#FFB000" d="M263.576,240.789c-0.532-1.334-1.602-2.402-3.202-2.669l-14.942-2.134l-6.67-13.609
	c-0.533-1.333-1.869-2.134-3.47-2.134c-1.333,0-2.935,0.801-3.468,2.134l-6.671,13.609l-14.942,2.134
	c-1.333,0.268-2.667,1.333-3.202,2.669c-0.533,1.333,0,2.935,1.068,4.001l10.94,10.675l-2.669,14.942
	c-0.267,1.334,0.268,2.935,1.601,3.735c1.068,0.801,2.669,1.067,4.002,0.266l13.341-6.936l13.343,6.936
	c0.533,0.269,1.067,0.535,1.868,0.535c0.801,0,1.601-0.27,2.135-0.801c1.067-0.801,1.868-2.401,1.601-3.735l-2.669-14.942
	l10.94-10.675C263.576,243.724,264.109,242.122,263.576,240.789z"/>
<path fill="#FFFFFF" d="M260.374,235.718c-0.533-1.333-1.601-2.401-3.202-2.669l-14.942-2.133l-6.671-13.608
	c-0.8-1.334-2.135-2.135-3.47-2.135c-1.335,0-2.669,0.8-3.47,2.135l-6.671,13.608l-14.942,2.133
	c-1.333,0.268-2.667,1.334-3.201,2.669c-0.533,1.335,0,2.935,1.068,4.003l10.939,10.674l-2.668,14.942
	c-0.267,1.335,0.266,2.936,1.6,3.735c1.068,0.802,2.669,1.068,4.003,0.268l13.342-6.938l13.341,6.938
	c0.533,0.268,1.067,0.534,1.868,0.534s1.601-0.269,2.135-0.802c1.067-0.8,1.868-2.4,1.601-3.735l-2.667-14.942l10.938-10.674
	C260.374,238.654,260.907,237.053,260.374,235.718z"/>
</svg>
