<?xml version="1.0" encoding="utf-8"?>
<!-- Generator: Adobe Illustrator 16.0.0, SVG Export Plug-In . SVG Version: 6.00 Build 0)  -->
<!DOCTYPE svg PUBLIC "-//W3C//DTD SVG 1.1//EN" "http://www.w3.org/Graphics/SVG/1.1/DTD/svg11.dtd">
<svg version="1.1"
	 id="svg2" xmlns:dc="http://purl.org/dc/elements/1.1/" xmlns:cc="http://creativecommons.org/ns#" xmlns:rdf="http://www.w3.org/1999/02/22-rdf-syntax-ns#" xmlns:svg="http://www.w3.org/2000/svg" xmlns:sodipodi="http://sodipodi.sourceforge.net/DTD/sodipodi-0.dtd" xmlns:inkscape="http://www.inkscape.org/namespaces/inkscape" sodipodi:docname="user-trash-full.svg" inkscape:version="0.91+devel r"
	 xmlns="http://www.w3.org/2000/svg" xmlns:xlink="http://www.w3.org/1999/xlink" x="0px" y="0px" width="728px" height="700px"
	 viewBox="0 0 728 700" enable-background="new 0 0 728 700" xml:space="preserve">
<sodipodi:namedview  showgrid="false" inkscape:cy="-164.85309" inkscape:cx="206.07375" inkscape:zoom="0.5" borderopacity="1" bordercolor="#666666" pagecolor="#ffffff" id="namedview4" inkscape:window-maximized="0" inkscape:window-y="27" inkscape:current-layer="svg2" inkscape:pageopacity="0" inkscape:window-x="960" inkscape:window-height="1026" inkscape:window-width="959" inkscape:pageshadow="2" guidetolerance="10" gridtolerance="10" objecttolerance="10">
	</sodipodi:namedview>
<path id="path3348_1_" inkscape:connector-curvature="0" fill="#CFD1D0" d="M346.603,685.302
	c-71.432-4.934-129.653-24.394-154.771-51.976c-9.002-9.729-11.325-15.1-14.083-30.345c-7.258-42.252-79.271-429.322-81.16-436.582
	C83.667,117.037,136.224,72.317,235.97,47.925c22.795-5.662,57.495-11.179,85.081-13.647c24.681-2.177,82.032-2.177,106.86,0
	c120.65,10.741,210.958,52.265,224.461,103.375c2.613,9.872,2.468,17.422-0.871,31.069c-3.629,14.809-81.162,435.276-81.162,439.922
	c0,1.889-2.032,7.405-4.356,12.194c-12.196,24.396-52.993,46.028-108.165,57.209C427.038,684.432,378.836,687.479,346.603,685.302
	L346.603,685.302z"/>
<path id="path3340_1_" inkscape:connector-curvature="0" fill="#A4A5A5" d="M342.393,235.799
	c-86.967-4.355-167.401-28.459-202.102-60.545c-8.856-8.13-15.824-19.743-15.824-26.133c0-10.887,13.356-27.003,32.086-38.91
	c79.853-50.963,245.369-64.608,366.6-30.054c41.814,11.76,73.466,28.022,90.888,46.461c11.763,12.485,14.085,20.471,8.86,31.795
	c-12.051,26.571-65.77,53.574-133.43,67.225c-27.152,5.515-53.137,8.564-85.227,10.162
	C376.223,237.249,372.592,237.249,342.393,235.799L342.393,235.799z"/>
<path id="path3370_1_" sodipodi:nodetypes="ssscscssscs" inkscape:connector-curvature="0" fill="#F9DE69" d="M211.287,201.678
	c-34.991-11.179-35.57-12.777-36.004-28.02c-0.147-6.824-0.436-13.503-0.581-14.809c-0.292-3.196,70.706-53.576,75.787-53.721
	c2.032,0,6.534,0.87,9.875,2.177l6.096,2.323l-5.807,7.26c-23.956,29.763-37.459,48.927-37.459,52.995
	c0,2.613,3.63,12.632,7.985,22.214c4.356,9.581,7.694,17.713,7.26,18.003S225.372,206.18,211.287,201.678z"/>
<path id="path3374_1_" sodipodi:nodetypes="sssscss" inkscape:connector-curvature="0" fill="#1BA39C" fill-opacity="0.9961" d="
	M548.852,191.225c0-4.501-4.646-11.469-16.695-25.411c-18.73-21.486-19.022-20.326,5.517-23.665
	c10.741-1.451,12.049-1.163,18.438,4.792c12.196,11.615,30.779,34.554,27.875,36.297c-2.611,2.178-36.442,16.407-39.637,16.407
	C543.189,199.791,548.852,194.564,548.852,191.225z"/>
<path id="path3361_1_" sodipodi:nodetypes="ssssssssssssssss" inkscape:connector-curvature="0" fill="#FFFFFF" d="M316.113,223.021
	c-25.409-2.904-71.142-11.324-77.675-12.92c-6.098-1.308-7.696-6.242-13.792-21.488c-4.066-10.02-7.405-19.167-7.405-20.328
	c0-2.034,30.488-41.089,55.172-70.853c6.97-8.275,14.229-15.245,16.262-15.245c5.227,0,96.404,10.889,102.795,12.485
	c3.627,0.874,6.824,4.647,9.872,11.469c2.47,5.662,6.098,10.745,7.841,11.47c1.743,0.727,15.972-1.451,31.652-4.647
	c15.681-3.194,30.487-5.809,33.101-5.809c5.664,0,78.84,75.209,78.84,81.162c0,4.791-0.293,9.145-6.536,11.177
	c-5.808,1.89-15.681,5.807-29.039,9.001c-47.619,11.47-71.141,15.826-134.877,16.552
	C350.087,225.345,320.469,223.456,316.113,223.021L316.113,223.021z"/>
<g id="XMLID_1_">
	<g id="XMLID_8_">
		<path id="XMLID_9_" fill="#729BCC" d="M235.534,360.515c-0.872,0.291-1.453,0.874-1.597,1.743c-0.145,0.875,0,1.743,0.725,2.323
			l10.891,10.888l-0.149,0.147c-36.729,36.729-37.31,95.822-2.32,133.427l-3.921-11.759c-2.904-8.565-0.727-17.857,5.662-24.39
			c4.5-4.356,10.308-6.826,16.698-6.826c2.611,0,5.079,0.436,7.549,1.308l12.632,4.211c-14.809-16.695-14.374-42.252,1.598-58.223
			l0.143-0.142l10.89,10.887c0.581,0.581,1.453,0.869,2.323,0.727c0.872-0.146,1.453-0.874,1.744-1.599
			c2.903-8.711,16.55-48.925,28.456-84.354c1.453-4.355-2.613-8.564-7.113-7.113C293.028,340.915,244.536,357.466,235.534,360.515z"
			/>
	</g>
	<g id="XMLID_6_">
		<path id="XMLID_7_" fill="#729BCC" d="M458.545,304.764c-0.872-0.146-1.743,0-2.324,0.726l-10.887,10.888l-2.469-2.469
			c-18.148-18.149-42.249-28.167-67.948-28.167c-25.698,0-49.799,10.019-67.947,28.167l-0.146,0.147l11.905-4.068
			c2.468-0.872,5.079-1.307,7.696-1.307c6.243,0,12.049,2.47,16.843,6.969c6.389,6.39,8.418,15.683,5.517,24.101l-4.067,12.2
			l0.147-0.147c7.983-7.983,18.728-12.486,30.052-12.486c11.325,0,22.069,4.354,30.056,12.486l2.466,2.47L396.55,365.16
			c-0.581,0.583-0.871,1.451-0.726,2.322c0.145,0.872,0.726,1.451,1.596,1.745c4.646,1.595,53.429,18,84.209,28.458
			c4.358,1.447,8.567-2.617,7.115-7.115c-9.002-26.57-25.99-76.805-28.458-84.209C460.143,305.635,459.416,304.909,458.545,304.764z
			"/>
	</g>
	<g id="XMLID_4_">
		<path id="XMLID_5_" fill="#729BCC" d="M431.249,577.135c-2.468,0.874-5.083,1.31-7.694,1.31c-6.245,0-12.197-2.468-16.697-6.97
			c-6.389-6.389-8.564-15.683-5.664-24.244l4.068-12.051l-0.145,0.144c-16.117,16.114-44.138,16.114-60.109,0l-2.468-2.466
			l10.889-10.891c0.581-0.579,0.872-1.453,0.727-2.322c-0.146-0.87-0.727-1.453-1.597-1.744
			c-7.258-2.469-59.819-20.325-84.209-28.604c-4.356-1.447-8.565,2.615-7.115,7.115c8.711,25.554,25.843,76.369,28.456,84.211
			c0.145,0.579,0.581,1.162,1.162,1.452c1.015,0.435,2.177,0.289,2.906-0.438l10.888-10.887l2.468,2.468
			c18.148,18.147,42.25,28.166,67.951,28.166c25.696,0,49.799-10.021,67.947-28.166l0.144-0.145L431.249,577.135z"/>
	</g>
	<g id="XMLID_2_">
		<path id="XMLID_3_" fill="#729BCC" d="M504.571,511.654l0.142-0.144c36.733-36.733,37.314-95.822,2.324-133.429l3.919,11.762
			c2.906,8.568,0.581,18.147-5.515,24.245c-4.356,4.503-10.454,6.972-16.697,6.972c-2.615,0-5.08-0.438-7.551-1.306l-12.632-4.212
			c14.811,16.696,14.373,42.248-1.599,58.218l-0.143,0.147l-10.887-10.891c-0.73-0.727-2.034-1.016-3.051-0.287
			c-0.435,0.287-0.872,0.87-1.018,1.306c-2.468,7.402-20.035,59.234-28.455,84.209c-1.453,4.358,2.611,8.564,7.112,7.113
			c24.247-8.128,76.951-26.134,84.209-28.602c0.874-0.292,1.451-0.869,1.597-1.745c0.144-0.871,0-1.743-0.725-2.322L504.571,511.654
			z"/>
	</g>
</g>
</svg>
